<?xml version="1.0" encoding="iso-8859-1"?>
<!-- Generator: Adobe Illustrator 19.0.0, SVG Export Plug-In . SVG Version: 6.00 Build 0)  -->
<svg version="1.1" id="Layer_1" xmlns="http://www.w3.org/2000/svg" xmlns:xlink="http://www.w3.org/1999/xlink" x="0px" y="0px"
	 viewBox="0 0 512 512" style="enable-background:new 0 0 512 512;" xml:space="preserve">
<path style="fill:#FFD782;" d="M424,376h8V248c0-97.202-78.798-176-176-176S80,150.798,80,248v128h8c-17.6,0-32,14.4-32,32
	s14.4,32,32,32h336c17.6,0,32-14.4,32-32S441.6,376,424,376z"/>
<g>
	<path style="fill:#FFC36E;" d="M107,408c0-17.6,14.4-32,32-32h-8V248c0-88.541,65.384-161.799,150.5-174.154
		C273.173,72.637,264.662,72,256,72c-97.202,0-176,78.798-176,176v128h8c-17.6,0-32,14.4-32,32s14.4,32,32,32h51
		C121.4,440,107,425.6,107,408z"/>
	<circle style="fill:#FFC36E;" cx="256" cy="40" r="32"/>
	<path style="fill:#FFC36E;" d="M327.561,439.999c-3.979,36-34.5,64.001-71.561,64.001s-67.582-28.001-71.561-64.001H327.561z"/>
</g>
<path style="fill:#E1B464;" d="M218.879,439.999H184.44c3.979,36,34.5,64.001,71.561,64.001c5.936,0,11.701-0.727,17.22-2.081
	C244.285,494.816,222.221,470.232,218.879,439.999z"/>
<g>
	<path style="fill:#2D2B29;" d="M368,368h-15.996c-4.418,0-8,3.582-8,8s3.582,8,8,8H368c4.418,0,8-3.582,8-8S372.418,368,368,368z"
		/>
	<path style="fill:#2D2B29;" d="M440,371.35V248c0-91.255-66.779-167.193-154.033-181.547C292.203,59.396,296,50.136,296,40
		c0-22.056-17.944-40-40-40s-40,17.944-40,40c0,10.136,3.797,19.396,10.033,26.453C138.779,80.807,72,156.745,72,248v123.35
		c-14.112,6.186-24,20.281-24,36.65c0,22.056,17.944,40,40,40h89.605c7.461,36.95,39.977,64,78.395,64s70.934-27.05,78.395-64H424
		c22.056,0,40-17.944,40-40C464,391.631,454.112,377.535,440,371.35z M232,40c0-13.233,10.767-24,24-24s24,10.767,24,24
		s-10.767,24-24,24S232,53.233,232,40z M256,496c-29.621,0-54.86-20.091-61.993-48h89.702c-5.602,9.654-16.071,16-27.709,16
		c-4.418,0-8,3.582-8,8s3.582,8,8,8c20.491,0,38.577-13.121,45.259-32h16.734C310.86,475.909,285.621,496,256,496z M424,432h-96.363
		c-0.013,0-0.026,0-0.04,0h-32.363c-0.037,0-0.073,0-0.109,0h-110.72c-0.015,0-0.03,0-0.045,0H88c-13.234,0-24-10.767-24-24
		s10.766-24,24-24h232.002c4.418,0,8-3.582,8-8s-3.582-8-8-8H88V248c0-92.636,75.364-168,168-168s168,75.364,168,168v120h-24
		c-4.418,0-8,3.582-8,8s3.582,8,8,8h24c13.234,0,24,10.767,24,24S437.234,432,424,432z"/>
	<path style="fill:#2D2B29;" d="M392,248v8c0,4.418,3.582,8,8,8s8-3.582,8-8v-8c0-30.07-8.768-59.146-25.355-84.083
		c-2.447-3.679-7.413-4.678-11.092-2.23s-4.677,7.413-2.23,11.092C384.158,195.082,392,221.093,392,248z"/>
	<path style="fill:#2D2B29;" d="M351.976,148.648c2.197,0,4.385-0.899,5.965-2.665c2.946-3.293,2.665-8.351-0.627-11.297
		c-5.413-4.844-11.224-9.338-17.272-13.359c-3.68-2.445-8.645-1.447-11.091,2.232s-1.446,8.646,2.233,11.092
		c5.414,3.6,10.616,7.623,15.462,11.959C348.171,147.977,350.077,148.648,351.976,148.648z"/>
</g>
<g>
</g>
<g>
</g>
<g>
</g>
<g>
</g>
<g>
</g>
<g>
</g>
<g>
</g>
<g>
</g>
<g>
</g>
<g>
</g>
<g>
</g>
<g>
</g>
<g>
</g>
<g>
</g>
<g>
</g>
</svg>
