<?xml version="1.0" encoding="iso-8859-1"?>
<!-- Generator: Adobe Illustrator 19.0.0, SVG Export Plug-In . SVG Version: 6.00 Build 0)  -->
<svg version="1.1" id="Layer_1" xmlns="http://www.w3.org/2000/svg" xmlns:xlink="http://www.w3.org/1999/xlink" x="0px" y="0px"
	 viewBox="0 0 512 512" style="enable-background:new 0 0 512 512;" xml:space="preserve">
<g>
	<rect x="334.314" y="249.162" style="fill:#E4F5F4;" width="78.579" height="78.567"/>
	<rect x="334.314" y="327.729" style="fill:#E4F5F4;" width="78.579" height="78.579"/>
	<rect x="255.748" y="327.729" style="fill:#E4F5F4;" width="78.567" height="78.579"/>
	<rect x="255.748" y="249.162" style="fill:#E4F5F4;" width="78.567" height="78.567"/>
	<rect x="177.169" y="249.162" style="fill:#E4F5F4;" width="78.579" height="78.567"/>
	<rect x="177.169" y="327.729" style="fill:#E4F5F4;" width="78.579" height="78.579"/>
	<rect x="98.602" y="327.729" style="fill:#E4F5F4;" width="78.567" height="78.579"/>
	<rect x="98.602" y="249.162" style="fill:#E4F5F4;" width="78.567" height="78.567"/>
</g>
<path style="fill:#F27258;" d="M499.734,179.334v278.764c0,9.964-8.077,18.028-18.028,18.028H29.799
	c-9.964,0-18.028-8.065-18.028-18.028V179.334h0.517H499.734z M412.898,406.309V327.73v-78.567h-78.579h-78.567h-78.579H98.607
	v78.567v78.579h78.567h78.579h78.567H412.898z"/>
<path style="fill:#FFDB6F;" d="M130.589,72.463h83.446h83.434h83.434h100.801c9.952,0,18.028,8.077,18.028,18.028v88.843H12.288
	h-0.517V90.491c0-9.952,8.065-18.028,18.028-18.028H130.589z"/>
<g>
	<path style="fill:#201F2E;" d="M481.953,59.181h-88.778V37.136c0-6.637-5.381-12.019-12.019-12.019
		c-6.638,0-12.019,5.382-12.019,12.019v22.045h-59.399V37.136c0-6.637-5.381-12.019-12.019-12.019s-12.019,5.382-12.019,12.019
		v22.045h-59.4V37.136c0-6.637-5.381-12.019-12.019-12.019c-6.638,0-12.019,5.382-12.019,12.019v22.045h-59.399V37.136
		c0-6.637-5.381-12.019-12.019-12.019c-6.638,0-12.019,5.382-12.019,12.019v22.045H30.047C13.479,59.181,0,72.66,0,89.228v367.608
		c0,16.568,13.479,30.047,30.047,30.047h451.906c16.568,0,30.047-13.479,30.047-30.047V89.228
		C512,72.66,498.521,59.181,481.953,59.181z M487.962,456.837c0,3.314-2.696,6.009-6.009,6.009H30.047
		c-3.314,0-6.009-2.696-6.009-6.009V190.088h426.262c6.638,0,12.019-5.382,12.019-12.019c0-6.637-5.381-12.019-12.019-12.019H24.038
		V89.228c0-3.314,2.696-6.009,6.009-6.009h88.778v22.045c0,6.637,5.381,12.019,12.019,12.019c6.638,0,12.019-5.382,12.019-12.019
		V83.219h59.399v22.045c0,6.637,5.381,12.019,12.019,12.019s12.019-5.382,12.019-12.019V83.219h59.4v22.045
		c0,6.637,5.381,12.019,12.019,12.019s12.019-5.382,12.019-12.019V83.219h59.399v22.045c0,6.637,5.381,12.019,12.019,12.019
		c6.638,0,12.019-5.382,12.019-12.019V83.219h88.779c3.314,0,6.009,2.696,6.009,6.009V456.837z"/>
	<path style="fill:#201F2E;" d="M413.146,237.077h-78.573H256h-78.573H98.854c-5.975,0-10.817,4.842-10.817,10.817v78.574v78.573
		c0,5.975,4.842,10.817,10.817,10.817h78.573H256h78.573h78.573c5.975,0,10.817-4.842,10.817-10.817v-78.573v-78.574
		C423.962,241.919,419.12,237.077,413.146,237.077z M166.61,394.224h-56.939v-56.939h56.939V394.224z M166.61,315.651h-56.939
		v-56.94h56.939V315.651z M245.183,394.224h-56.939v-56.939h56.939V394.224z M245.183,315.651h-56.939v-56.94h56.939V315.651z
		 M323.756,394.224h-56.939v-56.939h56.939V394.224z M323.756,315.651h-56.939v-56.94h56.939V315.651z M402.329,394.224H345.39
		v-56.939h56.939V394.224z M402.329,315.651H345.39v-56.94h56.939V315.651z"/>
</g>
<g>
</g>
<g>
</g>
<g>
</g>
<g>
</g>
<g>
</g>
<g>
</g>
<g>
</g>
<g>
</g>
<g>
</g>
<g>
</g>
<g>
</g>
<g>
</g>
<g>
</g>
<g>
</g>
<g>
</g>
</svg>
