<?xml version="1.0" encoding="iso-8859-1"?>
<!-- Generator: Adobe Illustrator 19.0.0, SVG Export Plug-In . SVG Version: 6.00 Build 0)  -->
<svg version="1.1" id="Layer_1" xmlns="http://www.w3.org/2000/svg" xmlns:xlink="http://www.w3.org/1999/xlink" x="0px" y="0px"
	 viewBox="0 0 511.999 511.999" style="enable-background:new 0 0 511.999 511.999;" xml:space="preserve">
<path style="fill:#E4F5F4;" d="M499.675,228.595V369.16c0,9.252-7.501,16.752-16.752,16.752h-20.376v64.521l-64.522-64.521H242.507
	c-9.252,0-16.752-7.501-16.752-16.752v-65.5v-75.066c0-9.252,7.501-16.752,16.752-16.752h146.291h94.125
	C492.175,211.842,499.675,219.343,499.675,228.595z"/>
<path style="fill:#31CCC9;" d="M388.798,80.855v130.988H242.508c-9.252,0-16.752,7.501-16.752,16.752v75.066h-74.039L62.93,392.459
	V303.66h-34.35c-9.252,0-16.752-7.501-16.752-16.752V80.855c0-9.252,7.501-16.752,16.752-16.752h343.466
	C381.297,64.102,388.798,71.603,388.798,80.855z"/>
<g>
	<path style="fill:#201F2E;" d="M174.075,290.318h-22.114c-3.361,0-6.4,1.376-8.59,3.593l-68.115,68.115v-59.629
		c0-0.827-0.053-1.419-0.158-1.823c-0.881-5.802-5.877-10.256-11.926-10.256H28.831c-2.577,0-4.674-2.097-4.674-4.674V79.589
		c0-2.577,2.097-4.674,4.674-4.674H372.29c2.577,0,4.674,2.097,4.674,4.674v79.055c0,6.67,5.409,12.078,12.078,12.078
		s12.078-5.409,12.078-12.078V79.589c0-15.897-12.933-28.831-28.831-28.831H28.831C12.933,50.757,0,63.691,0,79.589v206.056
		c0,15.897,12.933,28.831,28.831,28.831H51.1v76.711c0,4.886,2.943,9.289,7.456,11.159c1.494,0.618,3.064,0.919,4.62,0.919
		c3.144,0,6.232-1.227,8.543-3.538l85.251-85.251h17.104c6.67,0,12.078-5.409,12.078-12.078S180.745,290.318,174.075,290.318z"/>
	<path style="fill:#201F2E;" d="M483.169,198.491H242.754c-15.897,0-28.831,12.933-28.831,28.831v140.57
		c0,15.897,12.933,28.831,28.831,28.831h150.514l60.98,60.98c2.311,2.311,5.4,3.538,8.543,3.538c1.556,0,3.126-0.301,4.62-0.919
		c4.512-1.87,7.456-6.273,7.456-11.159v-52.44h8.301c15.897,0,28.831-12.933,28.831-28.831v-140.57
		C512,211.424,499.067,198.491,483.169,198.491z M487.844,367.892c0,2.577-2.097,4.674-4.674,4.674h-20.376
		c-6.44,0-11.688,5.045-12.043,11.396c-0.023,0.208-0.037,0.429-0.037,0.682v35.358l-43.857-43.857
		c-2.189-2.209-5.223-3.58-8.579-3.58H242.754c-2.577,0-4.674-2.097-4.674-4.674V227.322c0-2.577,2.097-4.674,4.674-4.674h240.416
		c2.577,0,4.674,2.097,4.674,4.674V367.892z"/>
	<path style="fill:#201F2E;" d="M362.964,285.53c-6.678,0-12.078,5.399-12.078,12.078c0,6.667,5.4,12.078,12.078,12.078
		c6.668,0,12.078-5.411,12.078-12.078C375.042,290.929,369.631,285.53,362.964,285.53z"/>
	<path style="fill:#201F2E;" d="M90.65,130.612c-6.67,0-12.078,5.409-12.078,12.078c0,6.67,5.409,12.078,12.078,12.078h219.822
		c6.67,0,12.078-5.409,12.078-12.078c0-6.67-5.409-12.078-12.078-12.078H90.65z"/>
	<path style="fill:#201F2E;" d="M174.075,210.465H90.65c-6.67,0-12.078,5.409-12.078,12.078s5.409,12.078,12.078,12.078h83.425
		c6.67,0,12.078-5.409,12.078-12.078S180.745,210.465,174.075,210.465z"/>
	<path style="fill:#201F2E;" d="M306.837,285.53c-6.678,0-12.078,5.399-12.078,12.078c0,6.667,5.4,12.078,12.078,12.078
		c6.668,0,12.078-5.411,12.078-12.078C318.915,290.929,313.504,285.53,306.837,285.53z"/>
	<path style="fill:#201F2E;" d="M419.079,285.53c-6.678,0-12.078,5.399-12.078,12.078c0,6.667,5.4,12.078,12.078,12.078
		c6.668,0,12.078-5.411,12.078-12.078C431.157,290.929,425.746,285.53,419.079,285.53z"/>
</g>
<g>
</g>
<g>
</g>
<g>
</g>
<g>
</g>
<g>
</g>
<g>
</g>
<g>
</g>
<g>
</g>
<g>
</g>
<g>
</g>
<g>
</g>
<g>
</g>
<g>
</g>
<g>
</g>
<g>
</g>
</svg>
