<?xml version="1.0" encoding="iso-8859-1"?>
<!-- Generator: Adobe Illustrator 19.0.0, SVG Export Plug-In . SVG Version: 6.00 Build 0)  -->
<svg version="1.1" id="Layer_1" xmlns="http://www.w3.org/2000/svg" xmlns:xlink="http://www.w3.org/1999/xlink" x="0px" y="0px"
	 viewBox="0 0 512 512" style="enable-background:new 0 0 512 512;" xml:space="preserve">
<g transform="translate(1 1)">
	<path style="fill:#15A143;" d="M255,25.947v25.151c37.726,26.049,62.877,69.165,62.877,118.568S292.726,262.186,255,288.235v43.116
		h26.947v53.895l53.895-53.895h134.737c9.881,0,17.965-8.084,17.965-17.965V25.947c0-9.881-8.084-17.965-17.965-17.965H272.965
		C263.084,7.982,255,16.067,255,25.947"/>
	<path style="fill:#1CD759;" d="M255,25.947v25.151c37.726,26.049,62.877,69.165,62.877,118.568S292.726,262.186,255,288.235v43.116
		h26.947v53.895l53.895-53.895h107.789c9.881,0,17.965-8.084,17.965-17.965V25.947c0-9.881-8.084-17.965-17.965-17.965H272.965
		C263.084,7.982,255,16.067,255,25.947"/>
	<path style="fill:#FFFFFF;" d="M174.158,25.947c-79.046,0-143.719,64.674-143.719,143.719c0,44.912,20.66,85.333,53.895,112.281
		v67.368l44.014-44.014c14.372,4.491,29.642,8.084,45.811,8.084c79.046,0,143.719-64.674,143.719-143.719
		S253.204,25.947,174.158,25.947"/>
	<path style="fill:#FFDD09;" d="M187.632,34.93c-71.86,0-130.246,62.877-130.246,140.126c0,44.014,18.863,83.537,48.505,108.688
		v65.572l39.523-42.218c13.474,4.491,26.947,7.186,42.218,7.186c71.86,0,130.246-62.877,130.246-140.126
		C317.877,97.807,259.491,34.93,187.632,34.93"/>
	<path style="fill:#FFFFFF;" d="M281.947,331.351H255v-43.116c-23.354,16.168-51.2,25.151-80.842,25.151
		c-16.168,0-31.439-2.695-45.811-8.084l-44.014,44.014v-67.368c-10.779-8.982-20.66-19.761-28.744-31.439H39.421
		c-9.881,0-17.965,8.084-17.965,17.965v161.684c0,9.881,8.084,17.965,17.965,17.965v53.895l53.895-53.895H290.93
		c9.881,0,17.965-8.084,17.965-17.965v-71.86l-26.947,26.947V331.351z"/>
	<path style="fill:#54C9FD;" d="M66.368,259.491c-9.881,0-17.965-0.898-17.965,8.982v161.684c0,9.881,8.084,17.965,17.965,17.965
		v26.947l26.947-26.947H290.93c9.881,0,17.965-8.084,17.965-17.965v-71.86l-26.947,26.947v-53.895H255v-43.116
		c-23.354,16.168-51.2,25.151-80.842,25.151c-16.168,0-39.523-2.695-53.895-8.084l-35.93,44.014v-67.368L66.368,259.491z"/>
	<path d="M84.333,358.298c-0.898,0-2.695,0-3.593-0.898c-3.593-0.898-5.389-4.491-5.389-8.084V285.54
		c-34.133-28.744-53.895-70.961-53.895-115.874c0-84.435,68.267-152.702,152.702-152.702S326.86,85.232,326.86,169.667
		s-68.267,152.702-152.702,152.702c-14.372,0-29.642-1.796-44.014-6.288l-39.523,39.523C88.825,357.4,87.028,358.298,84.333,358.298
		z M174.158,34.93c-74.554,0-134.737,60.182-134.737,134.737c0,41.319,18.863,79.046,50.302,105.095
		c2.695,1.796,3.593,4.491,3.593,7.186v45.811l28.744-28.744c2.695-2.695,6.288-3.593,8.982-1.796
		c14.372,4.491,28.744,7.186,43.116,7.186c74.554,0,134.737-60.182,134.737-134.737S248.712,34.93,174.158,34.93z"/>
	<path d="M281.947,394.228c-0.898,0-2.695,0-3.593-0.898c-3.593-0.898-5.389-4.491-5.389-8.084v-44.912H255
		c-5.389,0-8.982-3.593-8.982-8.982v-43.116c0-2.695,1.796-5.389,3.593-7.186c36.828-25.151,59.284-66.47,59.284-111.382
		s-22.456-86.232-59.284-111.382c-1.796-1.796-3.593-4.491-3.593-7.186V25.947C246.018,10.677,257.695-1,272.965-1h197.614
		c15.27,0,26.947,11.677,26.947,26.947v287.439c0,15.27-11.677,26.947-26.947,26.947H339.435l-51.2,51.2
		C286.439,393.33,284.642,394.228,281.947,394.228z M263.982,322.368h17.965c5.389,0,8.982,3.593,8.982,8.982v32.337l38.625-38.625
		c1.797-1.796,3.593-2.695,6.288-2.695h134.737c5.389,0,8.982-3.593,8.982-8.982V25.947c0-5.389-3.593-8.982-8.982-8.982H272.965
		c-5.389,0-8.982,3.593-8.982,8.982v20.66c39.523,28.744,62.877,74.554,62.877,123.06s-23.354,94.316-62.877,123.06V322.368z"/>
	<path d="M39.421,511c-0.898,0-2.695,0-3.593-0.898c-3.593-0.898-5.389-4.491-5.389-8.084v-46.709
		c-10.779-3.593-17.965-13.474-17.965-25.151V268.474c0-15.27,11.677-26.947,26.947-26.947h16.168c2.695,0,5.389,1.796,7.186,3.593
		c8.084,11.677,17.067,21.558,26.947,29.642c2.695,1.797,3.593,4.491,3.593,7.186v45.811l28.744-28.744
		c2.695-2.695,6.288-3.593,8.982-1.796c40.421,13.474,84.435,7.186,119.467-16.168c2.695-1.797,6.288-1.797,8.982-0.898
		c2.695,1.797,4.491,4.491,4.491,8.084v34.133h17.965c5.389,0,8.982,3.593,8.982,8.982v32.337l11.677-11.677
		c2.695-2.695,6.288-3.593,9.881-1.797c3.593,1.797,5.389,4.491,5.389,8.084v71.86c0,15.27-11.677,26.947-26.947,26.947H96.909
		l-51.2,51.2C43.912,510.102,42.116,511,39.421,511z M39.421,259.491c-5.389,0-8.982,3.593-8.982,8.982v161.684
		c0,5.389,3.593,8.982,8.982,8.982s8.982,3.593,8.982,8.982v32.337l38.625-38.625c1.796-1.797,3.593-2.695,6.288-2.695H290.93
		c5.389,0,8.982-3.593,8.982-8.982v-50.302l-11.677,11.677c-2.695,2.695-6.288,3.593-9.881,1.796
		c-3.593-0.898-5.389-4.491-5.389-8.084v-44.912H255c-5.389,0-8.982-3.593-8.982-8.982v-26.947
		c-35.032,18.863-76.351,23.354-115.874,11.677l-39.523,39.523c-2.695,2.695-6.288,3.593-9.881,1.797
		c-3.593-0.898-5.389-4.491-5.389-8.084V285.54c-8.982-8.084-17.067-16.168-24.253-26.049H39.421z"/>
	<path d="M434.649,88.825h-62.877c-5.389,0-8.982-3.593-8.982-8.982c0-5.389,3.593-8.982,8.982-8.982h62.877
		c5.389,0,8.982,3.593,8.982,8.982C443.632,85.232,440.039,88.825,434.649,88.825z"/>
	<path d="M335.842,88.825H290.93c-5.389,0-8.982-3.593-8.982-8.982c0-5.389,3.593-8.982,8.982-8.982h44.912
		c5.389,0,8.982,3.593,8.982,8.982C344.825,85.232,341.232,88.825,335.842,88.825z"/>
	<path d="M434.649,133.737h-26.947c-5.389,0-8.982-3.593-8.982-8.982c0-5.389,3.593-8.982,8.982-8.982h26.947
		c5.389,0,8.982,3.593,8.982,8.982C443.632,130.144,440.039,133.737,434.649,133.737z"/>
	<path d="M371.772,133.737h-53.895c-5.389,0-8.982-3.593-8.982-8.982c0-5.389,3.593-8.982,8.982-8.982h53.895
		c5.389,0,8.982,3.593,8.982,8.982C380.754,130.144,377.161,133.737,371.772,133.737z"/>
	<path d="M434.649,178.649h-53.895c-5.389,0-8.982-3.593-8.982-8.982s3.593-8.982,8.982-8.982h53.895
		c5.389,0,8.982,3.593,8.982,8.982S440.039,178.649,434.649,178.649z"/>
	<path d="M344.825,178.649h-26.947c-5.389,0-8.982-3.593-8.982-8.982s3.593-8.982,8.982-8.982h26.947
		c5.389,0,8.982,3.593,8.982,8.982S350.214,178.649,344.825,178.649z"/>
	<path d="M434.649,223.561h-26.947c-5.389,0-8.982-3.593-8.982-8.982s3.593-8.982,8.982-8.982h26.947
		c5.389,0,8.982,3.593,8.982,8.982S440.039,223.561,434.649,223.561z"/>
	<path d="M371.772,223.561h-53.895c-5.389,0-8.982-3.593-8.982-8.982s3.593-8.982,8.982-8.982h53.895
		c5.389,0,8.982,3.593,8.982,8.982S377.161,223.561,371.772,223.561z"/>
	<path d="M434.649,268.474h-44.912c-5.389,0-8.982-3.593-8.982-8.982c0-5.389,3.593-8.982,8.982-8.982h44.912
		c5.389,0,8.982,3.593,8.982,8.982C443.632,264.881,440.039,268.474,434.649,268.474z"/>
	<path d="M353.807,268.474H290.93c-5.389,0-8.982-3.593-8.982-8.982c0-5.389,3.593-8.982,8.982-8.982h62.877
		c5.389,0,8.982,3.593,8.982,8.982C362.789,264.881,359.196,268.474,353.807,268.474z"/>
	<path d="M246.018,133.737h-44.912c-5.389,0-8.982-3.593-8.982-8.982c0-5.389,3.593-8.982,8.982-8.982h44.912
		c5.389,0,8.982,3.593,8.982,8.982C255,130.144,251.407,133.737,246.018,133.737z"/>
	<path d="M165.175,133.737h-62.877c-5.389,0-8.982-3.593-8.982-8.982c0-5.389,3.593-8.982,8.982-8.982h62.877
		c5.389,0,8.982,3.593,8.982,8.982C174.158,130.144,170.565,133.737,165.175,133.737z"/>
	<path d="M246.018,178.649h-8.982c-5.389,0-8.982-3.593-8.982-8.982s3.593-8.982,8.982-8.982h8.982c5.389,0,8.982,3.593,8.982,8.982
		S251.407,178.649,246.018,178.649z"/>
	<path d="M201.105,178.649h-35.93c-5.389,0-8.982-3.593-8.982-8.982s3.593-8.982,8.982-8.982h35.93c5.389,0,8.982,3.593,8.982,8.982
		S206.495,178.649,201.105,178.649z"/>
	<path d="M129.246,178.649h-26.947c-5.389,0-8.982-3.593-8.982-8.982s3.593-8.982,8.982-8.982h26.947
		c5.389,0,8.982,3.593,8.982,8.982S134.635,178.649,129.246,178.649z"/>
	<path d="M246.018,223.561H219.07c-5.389,0-8.982-3.593-8.982-8.982s3.593-8.982,8.982-8.982h26.947
		c5.389,0,8.982,3.593,8.982,8.982S251.407,223.561,246.018,223.561z"/>
	<path d="M183.14,223.561h-80.842c-5.389,0-8.982-3.593-8.982-8.982s3.593-8.982,8.982-8.982h80.842
		c5.389,0,8.982,3.593,8.982,8.982S188.53,223.561,183.14,223.561z"/>
	<path d="M228.053,367.281h-62.877c-5.389,0-8.982-3.593-8.982-8.982s3.593-8.982,8.982-8.982h62.877
		c5.389,0,8.982,3.593,8.982,8.982S233.442,367.281,228.053,367.281z"/>
	<path d="M129.246,367.281h-8.982c-5.389,0-8.982-3.593-8.982-8.982s3.593-8.982,8.982-8.982h8.982c5.389,0,8.982,3.593,8.982,8.982
		S134.635,367.281,129.246,367.281z"/>
	<path d="M228.053,412.193h-26.947c-5.389,0-8.982-3.593-8.982-8.982c0-5.389,3.593-8.982,8.982-8.982h26.947
		c5.389,0,8.982,3.593,8.982,8.982C237.035,408.6,233.442,412.193,228.053,412.193z"/>
	<path d="M165.175,412.193h-44.912c-5.389,0-8.982-3.593-8.982-8.982c0-5.389,3.593-8.982,8.982-8.982h44.912
		c5.389,0,8.982,3.593,8.982,8.982C174.158,408.6,170.565,412.193,165.175,412.193z"/>
</g>
<g>
</g>
<g>
</g>
<g>
</g>
<g>
</g>
<g>
</g>
<g>
</g>
<g>
</g>
<g>
</g>
<g>
</g>
<g>
</g>
<g>
</g>
<g>
</g>
<g>
</g>
<g>
</g>
<g>
</g>
</svg>
