<?xml version="1.0" encoding="iso-8859-1"?>
<!-- Generator: Adobe Illustrator 19.0.0, SVG Export Plug-In . SVG Version: 6.00 Build 0)  -->
<svg version="1.1" id="Layer_1" xmlns="http://www.w3.org/2000/svg" xmlns:xlink="http://www.w3.org/1999/xlink" x="0px" y="0px"
	 viewBox="0 0 512 512" style="enable-background:new 0 0 512 512;" xml:space="preserve">
<path style="fill:#F27258;" d="M438.969,111.915c32.655,41.405,49.912,91.236,49.912,144.085
	c0,128.41-104.471,232.882-232.882,232.882S23.118,384.41,23.118,256S127.59,23.118,256,23.118
	c52.825,0,102.622,17.246,144.015,49.855c4.392,3.456,10.496,3.237,14.599-0.243l24.598,24.586
	C435.733,101.431,435.513,107.535,438.969,111.915z M459.799,256c0-112.378-91.421-203.799-203.799-203.799
	S52.201,143.622,52.201,256S143.622,459.799,256,459.799S459.799,368.378,459.799,256z"/>
<path style="fill:#FFDB6F;" d="M256,75.319c99.628,0,180.681,81.053,180.681,180.681S355.628,436.681,256,436.681
	S75.319,355.628,75.319,256S156.372,75.319,256,75.319z M418.452,256c0-6.381-5.178-11.559-11.559-11.559h-14.31
	c-6.392,0-11.559,5.178-11.559,11.559s5.167,11.559,11.559,11.559h14.31C413.273,267.559,418.452,262.381,418.452,256z
	 M392.455,190.564c5.525-3.19,7.421-10.265,4.231-15.79c-3.19-5.525-10.253-7.421-15.79-4.231l-12.391,7.155
	c-5.537,3.19-7.421,10.265-4.231,15.79c2.138,3.71,6.022,5.78,10.022,5.78c1.953,0,3.942-0.497,5.768-1.549L392.455,190.564z
	 M396.686,337.226c3.19-5.525,1.295-12.599-4.231-15.79l-12.391-7.155c-5.537-3.19-12.599-1.295-15.79,4.231
	s-1.306,12.599,4.231,15.79l12.391,7.155c1.815,1.052,3.803,1.549,5.768,1.549C390.664,343.006,394.548,340.936,396.686,337.226z
	 M341.457,131.104c3.19-5.525,1.295-12.599-4.231-15.79s-12.599-1.295-15.79,4.231l-7.155,12.391
	c-3.19,5.537-1.295,12.599,4.231,15.79c1.815,1.052,3.803,1.549,5.768,1.549c3.999,0,7.883-2.069,10.022-5.78L341.457,131.104z
	 M337.226,396.686c5.525-3.19,7.421-10.264,4.231-15.79l-7.155-12.391c-3.19-5.537-10.253-7.421-15.79-4.231
	c-5.525,3.19-7.421,10.253-4.231,15.79l7.155,12.391c2.138,3.71,6.022,5.78,10.022,5.78
	C333.423,398.235,335.4,397.738,337.226,396.686z M324.199,324.765c4.288-4.288,4.288-11.235,0-15.524l-43.405-43.416
	c1.144-2.971,1.78-6.184,1.78-9.559v-67.702c0-14.657-11.917-26.574-26.574-26.574c-14.657,0-26.574,11.917-26.574,26.574v41.127
	h-37.001c-14.657,0-26.586,11.929-26.586,26.586c0,14.657,11.929,26.586,26.586,26.586H256c0.173,0,0.335-0.012,0.509-0.023
	c3.017-0.058,5.93-0.613,8.623-1.607l43.543,43.532c2.138,2.15,4.947,3.225,7.756,3.225
	C319.252,327.99,322.06,326.915,324.199,324.765z M267.559,406.893v-14.31c0-6.392-5.178-11.559-11.559-11.559
	s-11.559,5.167-11.559,11.559v14.31c0,6.381,5.178,11.559,11.559,11.559S267.559,413.273,267.559,406.893z M267.559,119.417v-14.31
	c0-6.381-5.178-11.559-11.559-11.559s-11.559,5.178-11.559,11.559v14.31c0,6.392,5.178,11.559,11.559,11.559
	S267.559,125.81,267.559,119.417z M193.488,147.726c5.525-3.19,7.421-10.253,4.231-15.79l-7.155-12.391
	c-3.19-5.525-10.253-7.421-15.79-4.231c-5.525,3.19-7.421,10.265-4.231,15.79l7.155,12.391c2.138,3.71,6.022,5.78,10.022,5.78
	C189.685,149.275,191.673,148.778,193.488,147.726z M197.719,380.064c3.19-5.537,1.295-12.599-4.231-15.79
	s-12.599-1.306-15.79,4.231l-7.155,12.391c-3.19,5.525-1.295,12.599,4.231,15.79c1.826,1.052,3.803,1.549,5.768,1.549
	c3.999,0,7.883-2.069,10.022-5.78L197.719,380.064z M147.726,193.488c3.19-5.525,1.306-12.599-4.231-15.79l-12.391-7.155
	c-5.525-3.19-12.599-1.295-15.79,4.231c-3.19,5.525-1.295,12.599,4.231,15.79l12.391,7.155c1.826,1.052,3.815,1.549,5.768,1.549
	C141.703,199.268,145.587,197.199,147.726,193.488z M143.495,334.302c5.537-3.19,7.421-10.264,4.231-15.79
	c-3.19-5.525-10.253-7.421-15.79-4.231l-12.391,7.155c-5.525,3.19-7.421,10.264-4.231,15.79c2.138,3.71,6.022,5.78,10.022,5.78
	c1.965,0,3.953-0.497,5.768-1.549L143.495,334.302z M130.976,256c0-6.381-5.167-11.559-11.559-11.559h-14.31
	c-6.381,0-11.559,5.178-11.559,11.559s5.178,11.559,11.559,11.559h14.31C125.81,267.559,130.976,262.381,130.976,256z"/>
<g>
	<path style="fill:#E4F5F4;" d="M260.612,188.564v67.702c0,2.555-2.069,4.624-4.612,4.624s-4.612-2.069-4.612-4.624v-67.702
		c0-2.543,2.069-4.612,4.612-4.612S260.612,186.021,260.612,188.564z"/>
	<path style="fill:#E4F5F4;" d="M229.83,260.901h-37.405c-2.555,0-4.624-2.081-4.624-4.624c0-2.543,2.069-4.624,4.624-4.624h37.001
		v4.612C229.426,257.849,229.564,259.398,229.83,260.901z"/>
</g>
<g>
	<path style="fill:#201F2E;" d="M457.117,97.605c-3.953-5.017-11.224-5.872-16.229-1.919c-0.624,0.497-1.191,1.04-1.676,1.63
		c-3.479,4.115-3.699,10.218-0.243,14.599c32.655,41.405,49.912,91.236,49.912,144.085c0,128.41-104.471,232.882-232.882,232.882
		S23.118,384.41,23.118,256S127.59,23.118,256,23.118c52.825,0,102.622,17.246,144.015,49.855
		c4.392,3.456,10.496,3.237,14.599-0.243c0.59-0.485,1.133-1.052,1.63-1.676c3.953-5.017,3.098-12.287-1.919-16.229
		C368.817,18.957,314.062,0,256,0C187.616,0,123.336,26.632,74.984,74.984S0,187.616,0,256s26.632,132.664,74.984,181.016
		S187.616,512,256,512s132.664-26.632,181.016-74.984S512,324.384,512,256C512,197.904,493.02,143.125,457.117,97.605z"/>
	<path style="fill:#201F2E;" d="M381.024,256c0,6.381,5.167,11.559,11.559,11.559h14.31c6.381,0,11.559-5.178,11.559-11.559
		s-5.178-11.559-11.559-11.559h-14.31C386.19,244.441,381.024,249.619,381.024,256z"/>
	<path style="fill:#201F2E;" d="M256,52.201C143.622,52.201,52.201,143.622,52.201,256S143.622,459.799,256,459.799
		S459.799,368.378,459.799,256S368.378,52.201,256,52.201z M256,436.681c-99.628,0-180.681-81.053-180.681-180.681
		S156.372,75.319,256,75.319S436.681,156.372,436.681,256S355.628,436.681,256,436.681z"/>
	<path style="fill:#201F2E;" d="M368.505,177.698c-5.537,3.19-7.421,10.265-4.231,15.79c2.138,3.71,6.022,5.78,10.022,5.78
		c1.953,0,3.942-0.497,5.768-1.549l12.391-7.155c5.525-3.19,7.421-10.265,4.231-15.79c-3.19-5.525-10.253-7.421-15.79-4.231
		L368.505,177.698z"/>
	<path style="fill:#201F2E;" d="M392.455,321.436l-12.391-7.155c-5.537-3.19-12.599-1.295-15.79,4.231s-1.306,12.599,4.231,15.79
		l12.391,7.155c1.815,1.052,3.803,1.549,5.768,1.549c3.999,0,7.883-2.069,10.022-5.78
		C399.876,331.701,397.981,324.627,392.455,321.436z"/>
	<path style="fill:#201F2E;" d="M337.226,115.314c-5.525-3.19-12.599-1.295-15.79,4.231l-7.155,12.391
		c-3.19,5.537-1.295,12.599,4.231,15.79c1.815,1.052,3.803,1.549,5.768,1.549c3.999,0,7.883-2.069,10.022-5.78l7.155-12.391
		C344.647,125.578,342.751,118.504,337.226,115.314z"/>
	<path style="fill:#201F2E;" d="M334.302,368.505c-3.19-5.537-10.253-7.421-15.79-4.231c-5.525,3.19-7.421,10.253-4.231,15.79
		l7.155,12.391c2.138,3.71,6.022,5.78,10.022,5.78c1.965,0,3.942-0.497,5.768-1.549c5.525-3.19,7.421-10.264,4.231-15.79
		L334.302,368.505z"/>
	<path style="fill:#201F2E;" d="M324.199,324.765c4.288-4.288,4.288-11.235,0-15.524l-43.405-43.416
		c1.144-2.971,1.78-6.184,1.78-9.559v-67.702c0-14.657-11.917-26.574-26.574-26.574c-14.657,0-26.574,11.917-26.574,26.574v41.127
		h-37.001c-14.657,0-26.586,11.929-26.586,26.586c0,14.657,11.929,26.586,26.586,26.586H256c0.173,0,0.335-0.012,0.509-0.023
		c3.017-0.058,5.93-0.613,8.623-1.607l43.543,43.532c2.138,2.15,4.947,3.225,7.756,3.225
		C319.252,327.99,322.06,326.915,324.199,324.765z M192.425,260.901c-2.555,0-4.624-2.081-4.624-4.624
		c0-2.543,2.069-4.624,4.624-4.624h37.001v4.612c0,1.584,0.139,3.133,0.405,4.635H192.425z M260.612,256.266
		c0,2.555-2.069,4.624-4.612,4.624s-4.612-2.069-4.612-4.624v-67.702c0-2.543,2.069-4.612,4.612-4.612s4.612,2.069,4.612,4.612
		V256.266z"/>
	<path style="fill:#201F2E;" d="M256,381.024c-6.381,0-11.559,5.167-11.559,11.559v14.31c0,6.381,5.178,11.559,11.559,11.559
		s11.559-5.178,11.559-11.559v-14.31C267.559,386.19,262.381,381.024,256,381.024z"/>
	<path style="fill:#201F2E;" d="M256,130.976c6.381,0,11.559-5.167,11.559-11.559v-14.31c0-6.381-5.178-11.559-11.559-11.559
		s-11.559,5.178-11.559,11.559v14.31C244.441,125.81,249.619,130.976,256,130.976z"/>
	<path style="fill:#201F2E;" d="M177.698,143.495c2.138,3.71,6.022,5.78,10.022,5.78c1.965,0,3.953-0.497,5.768-1.549
		c5.525-3.19,7.421-10.253,4.231-15.79l-7.155-12.391c-3.19-5.525-10.253-7.421-15.79-4.231c-5.525,3.19-7.421,10.265-4.231,15.79
		L177.698,143.495z"/>
	<path style="fill:#201F2E;" d="M193.488,364.274c-5.525-3.19-12.599-1.306-15.79,4.231l-7.155,12.391
		c-3.19,5.525-1.295,12.599,4.231,15.79c1.826,1.052,3.803,1.549,5.768,1.549c3.999,0,7.883-2.069,10.022-5.78l7.155-12.391
		C200.909,374.527,199.014,367.465,193.488,364.274z"/>
	<path style="fill:#201F2E;" d="M143.495,177.698l-12.391-7.155c-5.525-3.19-12.599-1.295-15.79,4.231
		c-3.19,5.525-1.295,12.599,4.231,15.79l12.391,7.155c1.826,1.052,3.815,1.549,5.768,1.549c3.999,0,7.883-2.069,10.022-5.78
		C150.916,187.963,149.032,180.889,143.495,177.698z"/>
	<path style="fill:#201F2E;" d="M131.936,314.281l-12.391,7.155c-5.525,3.19-7.421,10.264-4.231,15.79
		c2.138,3.71,6.022,5.78,10.022,5.78c1.965,0,3.953-0.497,5.768-1.549l12.391-7.155c5.537-3.19,7.421-10.264,4.231-15.79
		C144.535,312.986,137.473,311.091,131.936,314.281z"/>
	<path style="fill:#201F2E;" d="M130.976,256c0-6.381-5.167-11.559-11.559-11.559h-14.31c-6.381,0-11.559,5.178-11.559,11.559
		s5.178,11.559,11.559,11.559h14.31C125.81,267.559,130.976,262.381,130.976,256z"/>
</g>
<g>
</g>
<g>
</g>
<g>
</g>
<g>
</g>
<g>
</g>
<g>
</g>
<g>
</g>
<g>
</g>
<g>
</g>
<g>
</g>
<g>
</g>
<g>
</g>
<g>
</g>
<g>
</g>
<g>
</g>
</svg>
