<?xml version="1.0" encoding="iso-8859-1"?>
<!-- Generator: Adobe Illustrator 19.0.0, SVG Export Plug-In . SVG Version: 6.00 Build 0)  -->
<svg version="1.1" id="Layer_1" xmlns="http://www.w3.org/2000/svg" xmlns:xlink="http://www.w3.org/1999/xlink" x="0px" y="0px"
	 viewBox="0 0 512 512" style="enable-background:new 0 0 512 512;" xml:space="preserve">
<path style="fill:#6FB0B6;" d="M140.8,383.838c-70.579,0-128-57.421-128-128c0-67.311,52.224-122.65,118.281-127.633
	C142.925,68.89,194.782,25.438,256,25.438S369.075,68.89,380.919,128.205c66.057,4.983,118.281,60.322,118.281,127.633
	c0,70.579-57.421,128-128,128L140.8,383.838L140.8,383.838z"/>
<g>
	<path style="fill:#A7B0C0;" d="M166.4,486.562v-76.8h179.2v76.8H166.4z"/>
	<rect x="166.4" y="179.371" style="fill:#A7B0C0;" width="179.2" height="51.2"/>
</g>
<rect x="166.4" y="230.571" style="fill:#C5DFE2;" width="179.2" height="179.2"/>
<g>
	<path style="fill:#573A32;" d="M230.4,460.962h51.2c7.074,0,12.8-5.726,12.8-12.8s-5.726-12.8-12.8-12.8h-51.2
		c-7.074,0-12.8,5.726-12.8,12.8S223.326,460.962,230.4,460.962z"/>
	<path style="fill:#573A32;" d="M391.305,116.471C374.98,55.987,320.162,12.638,256,12.638S137.028,55.987,120.695,116.471
		C52.54,126.251,0,185.02,0,255.838c0,77.636,63.164,140.8,140.8,140.8h12.8v77.124c0,14.14,11.46,25.6,25.6,25.6h153.6
		c14.14,0,25.6-11.46,25.6-25.6v-77.124h12.8c77.636,0,140.8-63.164,140.8-140.8C512,185.02,459.46,126.251,391.305,116.471z
		 M332.8,473.762H179.2v-51.2h153.6V473.762z M332.8,396.962H179.2v-153.6h153.6V396.962z M332.8,217.762H179.2v-25.6h153.6V217.762
		z M371.2,371.038c-4.002,0-8.329,0-12.8,0V192.162c0-14.14-11.46-25.6-25.6-25.6H179.2c-14.14,0-25.6,11.46-25.6,25.6v178.876
		c-4.471,0-8.798,0-12.8,0c-63.625,0-115.2-51.575-115.2-115.2s51.575-115.2,115.2-115.2c0.435,0,0.845,0.119,1.28,0.128
		C148.463,83.183,196.719,38.238,256,38.238s107.537,44.945,113.92,102.528c0.435-0.009,0.845-0.128,1.28-0.128
		c63.625,0,115.2,51.575,115.2,115.2S434.825,371.038,371.2,371.038z"/>
</g>
<g>
</g>
<g>
</g>
<g>
</g>
<g>
</g>
<g>
</g>
<g>
</g>
<g>
</g>
<g>
</g>
<g>
</g>
<g>
</g>
<g>
</g>
<g>
</g>
<g>
</g>
<g>
</g>
<g>
</g>
</svg>
