<?xml version="1.0" encoding="iso-8859-1"?>
<!-- Generator: Adobe Illustrator 19.0.0, SVG Export Plug-In . SVG Version: 6.00 Build 0)  -->
<svg version="1.1" id="Layer_1" xmlns="http://www.w3.org/2000/svg" xmlns:xlink="http://www.w3.org/1999/xlink" x="0px" y="0px"
	 viewBox="0 0 512 512" style="enable-background:new 0 0 512 512;" xml:space="preserve">
<g transform="translate(1 1)">
	<path style="fill:#FFDD09;" d="M263.533,434.2c-5.12,0-8.533-3.413-8.533-8.533v-34.133c0-5.12,3.413-8.533,8.533-8.533
		c5.12,0,8.533,3.413,8.533,8.533v34.133C272.067,430.787,268.653,434.2,263.533,434.2z M263.533,365.933
		c-5.12,0-8.533-3.413-8.533-8.533v-25.6c0-5.12,3.413-8.533,8.533-8.533c5.12,0,8.533,3.413,8.533,8.533v25.6
		C272.067,362.52,268.653,365.933,263.533,365.933z M263.533,306.2c-5.12,0-8.533-3.413-8.533-8.533v-25.6
		c0-5.12,3.413-8.533,8.533-8.533c5.12,0,8.533,3.413,8.533,8.533v25.6C272.067,302.787,268.653,306.2,263.533,306.2z"/>
	<g>
		<path style="fill:#54C9FD;" d="M293.4,348.867h98.987c46.08,0,84.48-42.667,84.48-93.867c0-46.08-29.867-85.333-69.12-93.867
			C406.893,86.893,353.133,24.6,286.573,24.6c-42.667,0-82.773,25.6-104.107,62.293C173.08,80.067,161.133,75.8,148.333,75.8
			c-34.133,0-61.44,30.72-61.44,68.267c0,1.707,0,2.56,0,4.267s0,3.413,0,4.267c-30.72,16.213-53.76,55.467-53.76,95.573
			c0,55.467,40.96,100.693,90.453,100.693H216.6"/>
		<path style="fill:#54C9FD;" d="M181.613,86.893C197.827,59.587,224.28,38.253,255,28.867c-32.427,8.533-60.587,28.16-79.36,54.613
			C178.2,84.333,179.907,86.04,181.613,86.893"/>
	</g>
	<path style="fill:#33A9F8;" d="M425.667,161.133C424.813,86.893,364.227,24.6,289.987,24.6c-0.853,0-1.707,0-2.56,0
		c66.56,0.853,119.467,63.147,120.32,136.533c39.253,8.533,69.12,47.787,69.12,93.867c0,52.053-38.4,93.867-84.48,93.867H408.6
		c52.053,0,93.867-42.667,93.867-93.867C502.467,208.92,469.187,169.667,425.667,161.133"/>
	<path style="fill:#FFFFFF;" d="M33.133,248.173c0-40.107,23.04-78.507,53.76-95.573c0-1.707,0-3.413,0-4.267
		c0-1.707,0-2.56,0-4.267c0-34.987,23.893-64,54.613-67.413c-1.707,0-3.413,0-5.973,0c-37.547,0-68.267,30.72-68.267,68.267
		c0,1.707,0,2.56,0,4.267s0,3.413,0,4.267C33.133,169.667,7.533,208.92,7.533,249.027c0,54.613,45.227,99.84,100.693,99.84h15.36
		C74.093,348.867,33.133,303.64,33.133,248.173"/>
	<g>
		<path style="fill:#FFDD09;" d="M229.4,468.333h-34.133c-5.12,0-8.533-3.413-8.533-8.533s3.413-8.533,8.533-8.533H229.4
			c5.12,0,8.533,3.413,8.533,8.533S234.52,468.333,229.4,468.333z M161.133,468.333h-25.6c-5.12,0-8.533-3.413-8.533-8.533
			s3.413-8.533,8.533-8.533h25.6c5.12,0,8.533,3.413,8.533,8.533S166.253,468.333,161.133,468.333z M101.4,468.333H67.267
			c-5.12,0-8.533-3.413-8.533-8.533s3.413-8.533,8.533-8.533H101.4c5.12,0,8.533,3.413,8.533,8.533S106.52,468.333,101.4,468.333z
			 M41.667,468.333h-25.6c-5.12,0-8.533-3.413-8.533-8.533s3.413-8.533,8.533-8.533h25.6c5.12,0,8.533,3.413,8.533,8.533
			S46.787,468.333,41.667,468.333z"/>
		<path style="fill:#FFDD09;" d="M502.467,468.333h-34.133c-5.12,0-8.533-3.413-8.533-8.533s3.413-8.533,8.533-8.533h34.133
			c5.12,0,8.533,3.413,8.533,8.533S507.587,468.333,502.467,468.333z M434.2,468.333h-25.6c-5.12,0-8.533-3.413-8.533-8.533
			s3.413-8.533,8.533-8.533h25.6c5.12,0,8.533,3.413,8.533,8.533S439.32,468.333,434.2,468.333z M374.467,468.333h-34.133
			c-5.12,0-8.533-3.413-8.533-8.533s3.413-8.533,8.533-8.533h34.133c5.12,0,8.533,3.413,8.533,8.533
			S379.587,468.333,374.467,468.333z M314.733,468.333h-17.067c-5.12,0-8.533-3.413-8.533-8.533s3.413-8.533,8.533-8.533h17.067
			c5.12,0,8.533,3.413,8.533,8.533S319.853,468.333,314.733,468.333z"/>
		<path style="fill:#FFDD09;" d="M289.133,451.267c0,18.773-15.36,34.133-34.133,34.133s-34.133-15.36-34.133-34.133
			s15.36-34.133,34.133-34.133S289.133,432.493,289.133,451.267"/>
		<path style="fill:#FFDD09;" d="M289.133,229.4c0,18.773-15.36,34.133-34.133,34.133s-34.133-15.36-34.133-34.133
			s15.36-34.133,34.133-34.133S289.133,210.627,289.133,229.4"/>
	</g>
	<path d="M255,493.933c-23.893,0-42.667-18.773-42.667-42.667c0-23.893,18.773-42.667,42.667-42.667s42.667,18.773,42.667,42.667
		C297.667,475.16,278.893,493.933,255,493.933z M255,425.667c-14.507,0-25.6,11.093-25.6,25.6c0,14.507,11.093,25.6,25.6,25.6
		c14.507,0,25.6-11.093,25.6-25.6C280.6,436.76,269.507,425.667,255,425.667z"/>
	<path d="M255,272.067c-23.893,0-42.667-18.773-42.667-42.667s18.773-42.667,42.667-42.667s42.667,18.773,42.667,42.667
		S278.893,272.067,255,272.067z M255,203.8c-14.507,0-25.6,11.093-25.6,25.6S240.493,255,255,255c14.507,0,25.6-11.093,25.6-25.6
		S269.507,203.8,255,203.8z"/>
	<path d="M220.867,459.8h-34.133c-5.12,0-8.533-3.413-8.533-8.533s3.413-8.533,8.533-8.533h34.133c5.12,0,8.533,3.413,8.533,8.533
		S225.987,459.8,220.867,459.8z M152.6,459.8H127c-5.12,0-8.533-3.413-8.533-8.533s3.413-8.533,8.533-8.533h25.6
		c5.12,0,8.533,3.413,8.533,8.533S157.72,459.8,152.6,459.8z M92.867,459.8H58.733c-5.12,0-8.533-3.413-8.533-8.533
		s3.413-8.533,8.533-8.533h34.133c5.12,0,8.533,3.413,8.533,8.533S97.987,459.8,92.867,459.8z M33.133,459.8h-25.6
		c-5.12,0-8.533-3.413-8.533-8.533s3.413-8.533,8.533-8.533h25.6c5.12,0,8.533,3.413,8.533,8.533S38.253,459.8,33.133,459.8z"/>
	<path d="M502.467,459.8h-34.133c-5.12,0-8.533-3.413-8.533-8.533s3.413-8.533,8.533-8.533h34.133c5.12,0,8.533,3.413,8.533,8.533
		S507.587,459.8,502.467,459.8z M434.2,459.8h-25.6c-5.12,0-8.533-3.413-8.533-8.533s3.413-8.533,8.533-8.533h25.6
		c5.12,0,8.533,3.413,8.533,8.533S439.32,459.8,434.2,459.8z M374.467,459.8h-34.133c-5.12,0-8.533-3.413-8.533-8.533
		s3.413-8.533,8.533-8.533h34.133c5.12,0,8.533,3.413,8.533,8.533S379.587,459.8,374.467,459.8z M314.733,459.8h-25.6
		c-5.12,0-8.533-3.413-8.533-8.533s3.413-8.533,8.533-8.533h25.6c5.12,0,8.533,3.413,8.533,8.533S319.853,459.8,314.733,459.8z"/>
	<path d="M255,425.667c-5.12,0-8.533-3.413-8.533-8.533V383c0-5.12,3.413-8.533,8.533-8.533s8.533,3.413,8.533,8.533v34.133
		C263.533,422.253,260.12,425.667,255,425.667z M255,357.4c-5.12,0-8.533-3.413-8.533-8.533v-25.6c0-5.12,3.413-8.533,8.533-8.533
		s8.533,3.413,8.533,8.533v25.6C263.533,353.987,260.12,357.4,255,357.4z M255,297.667c-5.12,0-8.533-3.413-8.533-8.533v-25.6
		c0-5.12,3.413-8.533,8.533-8.533s8.533,3.413,8.533,8.533v25.6C263.533,294.253,260.12,297.667,255,297.667z"/>
	<path d="M255,434.2c-5.12,0-8.533-3.413-8.533-8.533v-34.133c0-5.12,3.413-8.533,8.533-8.533s8.533,3.413,8.533,8.533v34.133
		C263.533,430.787,260.12,434.2,255,434.2z M255,365.933c-5.12,0-8.533-3.413-8.533-8.533v-25.6c0-5.12,3.413-8.533,8.533-8.533
		s8.533,3.413,8.533,8.533v25.6C263.533,362.52,260.12,365.933,255,365.933z M255,306.2c-5.12,0-8.533-3.413-8.533-8.533v-25.6
		c0-5.12,3.413-8.533,8.533-8.533s8.533,3.413,8.533,8.533v25.6C263.533,302.787,260.12,306.2,255,306.2z"/>
	<path d="M383,169.667c-4.267,0-7.68-3.413-8.533-6.827c-0.853-4.267,2.56-9.387,6.827-9.387c22.187-3.413,44.373,0,45.227,0
		c4.267,0.853,7.68,5.12,6.827,9.387s-5.12,7.68-9.387,6.827c0,0-20.48-2.56-40.107,0H383z"/>
	<path d="M203.8,152.6c-5.12,0-8.533-3.413-8.533-8.533c0-33.28-26.453-59.733-59.733-59.733S75.8,110.787,75.8,144.067
		c0,5.12-3.413,8.533-8.533,8.533s-8.533-3.413-8.533-8.533c0-42.667,34.133-76.8,76.8-76.8s76.8,34.133,76.8,76.8
		C212.333,149.187,208.92,152.6,203.8,152.6z"/>
	<path d="M408.6,357.4H297.667c-5.12,0-8.533-3.413-8.533-8.533c0-5.12,3.413-8.533,8.533-8.533H408.6
		c46.933,0,85.333-38.4,85.333-85.333c0-40.96-29.867-77.653-69.973-85.333l-6.827-1.707v-6.827
		c-0.853-70.827-58.027-128-127.147-128c-42.667,0-85.333,23.04-109.227,58.88l-5.12,6.827l-6.827-5.12
		c-10.24-5.973-21.333-9.387-33.28-9.387c-33.28,0-59.733,26.453-59.733,59.733c0,0.853,0,1.707,0,2.56v1.707v1.707
		c0,0.853,0,2.56,0,3.413v5.12l-5.12,2.56c-31.573,14.507-54.613,51.2-54.613,87.04c0,50.347,41.813,92.16,92.16,92.16h104.107
		c5.12,0,8.533,3.413,8.533,8.533c0,5.12-3.413,8.533-8.533,8.533H108.227C48.493,357.4-1,307.907-1,248.173
		c0-40.96,24.747-81.067,59.733-100.693c0-0.853,0-2.56,0-3.413c0-42.667,34.133-76.8,76.8-76.8c12.8,0,24.747,2.56,34.987,8.533
		c28.16-36.693,72.533-59.733,118.613-59.733c76.8,0,139.947,61.44,145.067,138.24C478.573,166.253,511,208.067,511,255
		C511,311.32,464.92,357.4,408.6,357.4z"/>
</g>
<g>
</g>
<g>
</g>
<g>
</g>
<g>
</g>
<g>
</g>
<g>
</g>
<g>
</g>
<g>
</g>
<g>
</g>
<g>
</g>
<g>
</g>
<g>
</g>
<g>
</g>
<g>
</g>
<g>
</g>
</svg>
