<?xml version="1.0" encoding="UTF-8" ?>
<!DOCTYPE svg PUBLIC "-//W3C//DTD SVG 1.1//EN" "http://www.w3.org/Graphics/SVG/1.1/DTD/svg11.dtd">
<svg width="192pt" height="192pt" viewBox="0 0 192 192" version="1.1" xmlns="http://www.w3.org/2000/svg">
<g id="#5e7b89ff">
<path fill="#5e7b89" opacity="1.00" d=" M 12.39 1.59 C 14.23 1.22 16.11 1.20 17.98 1.17 C 70.67 1.25 123.36 1.14 176.05 1.22 C 182.21 0.98 187.77 5.41 190.00 10.96 C 191.02 13.85 190.79 16.99 190.87 20.00 C 190.83 70.67 190.82 121.33 190.87 172.00 C 190.78 175.44 191.12 179.17 189.28 182.26 C 186.67 187.04 181.60 190.50 176.05 190.40 C 123.03 190.46 70.00 190.38 16.98 190.44 C 8.15 191.10 0.11 182.85 1.15 174.03 C 1.20 121.67 1.15 69.31 1.17 16.95 C 0.62 9.99 5.73 3.33 12.39 1.59 M 131.88 20.90 C 112.50 28.21 93.08 35.50 74.26 44.19 C 58.15 51.58 41.50 58.48 27.42 69.44 C 18.27 77.66 11.75 88.76 8.60 100.64 C 1.62 125.44 12.33 153.96 33.59 168.39 C 49.14 179.71 70.04 182.83 88.40 177.39 C 100.26 173.72 111.29 166.87 119.08 157.10 C 127.66 146.39 134.94 134.73 141.93 122.95 C 153.91 102.44 164.87 81.32 174.64 59.66 C 175.77 57.24 176.61 54.68 176.96 52.03 C 171.57 53.89 167.26 57.83 162.06 60.11 C 159.05 61.51 155.22 63.25 152.17 60.99 C 153.64 56.83 156.01 53.07 158.37 49.37 C 163.29 41.99 168.18 34.57 173.50 27.47 C 176.73 23.04 180.39 18.88 182.87 13.95 C 177.05 15.98 172.15 19.83 166.82 22.81 C 156.24 28.69 146.01 35.50 134.59 39.67 C 133.00 40.31 131.35 39.97 130.02 38.97 C 132.57 33.81 137.38 30.37 141.21 26.23 C 145.20 21.91 150.37 18.81 153.93 14.08 C 146.22 15.02 139.22 18.59 131.88 20.90 Z" />
<path fill="#5e7b89" opacity="1.00" d=" M 113.01 33.97 C 117.53 32.22 122.06 30.24 126.95 29.88 C 124.75 34.63 119.64 38.23 119.93 43.92 C 119.65 46.61 122.57 48.28 124.96 47.88 C 132.65 47.24 139.82 44.00 146.74 40.76 C 150.87 38.88 154.66 36.17 159.13 35.10 C 158.67 37.36 157.65 39.44 156.38 41.35 C 151.82 48.34 147.24 55.42 144.23 63.24 C 143.29 65.81 142.49 68.72 143.61 71.37 C 149.80 73.86 155.92 70.41 161.88 68.98 C 161.02 73.79 158.49 78.04 156.36 82.36 C 147.10 101.42 136.16 119.65 124.04 137.02 C 115.72 148.72 106.62 160.95 93.26 167.19 C 85.35 170.69 76.71 172.84 68.03 172.80 C 55.56 171.98 43.00 167.89 33.50 159.53 C 19.26 147.57 11.67 127.99 14.49 109.57 C 16.60 95.01 24.66 81.24 36.81 72.82 C 51.25 62.64 67.03 54.53 82.96 46.97 C 92.69 42.00 102.91 38.09 113.01 33.97 M 64.40 72.48 C 51.37 73.74 39.02 80.75 31.39 91.41 C 19.08 107.81 20.26 132.73 34.13 147.87 C 42.34 157.27 54.49 163.24 67.03 163.37 C 79.79 163.98 92.64 158.69 101.41 149.42 C 111.53 139.18 116.05 123.85 113.34 109.74 C 111.76 100.09 106.65 91.14 99.43 84.59 C 90.23 75.77 77.05 71.36 64.40 72.48 Z" />
</g>
<g id="#435868ff">
<path fill="#435868" opacity="1.00" d=" M 131.88 20.90 C 139.22 18.59 146.22 15.02 153.93 14.08 C 150.37 18.81 145.20 21.91 141.21 26.23 C 137.38 30.37 132.57 33.81 130.02 38.97 C 131.35 39.97 133.00 40.31 134.59 39.67 C 146.01 35.50 156.24 28.69 166.82 22.81 C 172.15 19.83 177.05 15.98 182.87 13.95 C 180.39 18.88 176.73 23.04 173.50 27.47 C 168.18 34.57 163.29 41.99 158.37 49.37 C 156.01 53.07 153.64 56.83 152.17 60.99 C 155.22 63.25 159.05 61.51 162.06 60.11 C 167.26 57.83 171.57 53.89 176.96 52.03 C 176.61 54.68 175.77 57.24 174.64 59.66 C 164.87 81.32 153.91 102.44 141.93 122.95 C 134.94 134.73 127.66 146.39 119.08 157.10 C 111.29 166.87 100.26 173.72 88.40 177.39 C 70.04 182.83 49.14 179.71 33.59 168.39 C 12.33 153.96 1.62 125.44 8.60 100.64 C 11.75 88.76 18.27 77.66 27.42 69.44 C 41.50 58.48 58.15 51.58 74.26 44.19 C 93.08 35.50 112.50 28.21 131.88 20.90 M 113.01 33.97 C 102.91 38.09 92.69 42.00 82.96 46.97 C 67.03 54.53 51.25 62.64 36.81 72.82 C 24.66 81.24 16.60 95.01 14.49 109.57 C 11.67 127.99 19.26 147.57 33.50 159.53 C 43.00 167.89 55.56 171.98 68.03 172.80 C 76.71 172.84 85.35 170.69 93.26 167.19 C 106.62 160.95 115.72 148.72 124.04 137.02 C 136.16 119.65 147.10 101.42 156.36 82.36 C 158.49 78.04 161.02 73.79 161.88 68.98 C 155.92 70.41 149.80 73.86 143.61 71.37 C 142.49 68.72 143.29 65.81 144.23 63.24 C 147.24 55.42 151.82 48.34 156.38 41.35 C 157.65 39.44 158.67 37.36 159.13 35.10 C 154.66 36.17 150.87 38.88 146.74 40.76 C 139.82 44.00 132.65 47.24 124.96 47.88 C 122.57 48.28 119.65 46.61 119.93 43.92 C 119.64 38.23 124.75 34.63 126.95 29.88 C 122.06 30.24 117.53 32.22 113.01 33.97 Z" />
<path fill="#435868" opacity="1.00" d=" M 63.37 100.39 C 71.98 97.15 81.76 106.37 79.22 115.15 C 78.46 118.88 75.10 120.99 72.78 123.70 C 71.29 128.85 73.22 134.45 71.72 139.65 C 70.28 143.11 64.73 143.23 62.66 140.32 C 61.07 135.13 62.62 129.60 61.65 124.32 C 59.45 121.17 55.41 119.13 54.90 114.96 C 53.41 108.80 57.25 102.10 63.37 100.39 Z" />
</g>
<g id="#bababaff">
<path fill="#bababa" opacity="1.00" d=" M 64.40 72.48 C 77.05 71.36 90.23 75.77 99.43 84.59 C 106.65 91.14 111.76 100.09 113.34 109.74 C 116.05 123.85 111.53 139.18 101.41 149.42 C 92.64 158.69 79.79 163.98 67.03 163.37 C 54.49 163.24 42.34 157.27 34.13 147.87 C 20.26 132.73 19.08 107.81 31.39 91.41 C 39.02 80.75 51.37 73.74 64.40 72.48 M 63.37 100.39 C 57.25 102.10 53.41 108.80 54.90 114.96 C 55.41 119.13 59.45 121.17 61.65 124.32 C 62.62 129.60 61.07 135.13 62.66 140.32 C 64.73 143.23 70.28 143.11 71.72 139.65 C 73.22 134.45 71.29 128.85 72.78 123.70 C 75.10 120.99 78.46 118.88 79.22 115.15 C 81.76 106.37 71.98 97.15 63.37 100.39 Z" />
</g>
</svg>
