<?xml version="1.0" encoding="iso-8859-1"?>
<!-- Generator: Adobe Illustrator 19.0.0, SVG Export Plug-In . SVG Version: 6.00 Build 0)  -->
<svg version="1.1" id="Layer_1" xmlns="http://www.w3.org/2000/svg" xmlns:xlink="http://www.w3.org/1999/xlink" x="0px" y="0px"
	 viewBox="0 0 512 512" style="enable-background:new 0 0 512 512;" xml:space="preserve">
<path style="fill:#2D527C;" d="M256.001,365.21c-2.713,0-5.424-0.75-7.812-2.252l-104.887-65.932
	c-30.992-19.483-49.496-52.97-49.496-89.576V39.563C93.806,17.748,111.554,0,133.367,0h245.267
	c21.814,0,39.561,17.748,39.561,39.563v88.741c0,8.107-6.573,14.678-14.678,14.678s-14.678-6.572-14.678-14.678V39.563
	c0-5.626-4.578-10.206-10.204-10.206H133.367c-5.626,0-10.204,4.578-10.204,10.206V207.45c0,26.45,13.369,50.645,35.762,64.723
	l97.076,61.022l97.076-61.022c22.393-14.077,35.762-38.272,35.762-64.723c0-8.107,6.573-14.678,14.678-14.678
	c8.105,0,14.678,6.572,14.678,14.678c0,36.606-18.502,70.094-49.496,89.576l-104.887,65.932
	C261.424,364.46,258.712,365.21,256.001,365.21z"/>
<path style="fill:#CEE8FA;" d="M221.401,336.03l-43.357,38.281c-11.775,10.395-18.518,25.347-18.518,41.054v81.957h192.95v-81.957
	c0-15.707-6.743-30.659-18.518-41.054l-43.357-38.281H221.401z"/>
<path style="fill:#2D527C;" d="M352.474,512H159.526c-8.105,0-14.678-6.572-14.678-14.678v-81.955
	c0-19.908,8.559-38.883,23.482-52.058l43.354-38.28c2.683-2.368,6.139-3.675,9.716-3.675h69.201c3.579,0,7.032,1.308,9.716,3.675
	l43.356,38.281c14.922,13.174,23.481,32.149,23.481,52.057v81.955C367.153,505.427,360.581,512,352.474,512z M174.204,482.643
	h163.592v-67.277c0-11.493-4.941-22.446-13.554-30.051l-39.194-34.606h-58.094l-39.193,34.606
	c-8.615,7.606-13.555,18.559-13.555,30.051v67.277H174.204z"/>
<path style="fill:#CEE8FA;" d="M221.401,336.03l-43.357,38.281c-11.775,10.395-18.518,25.347-18.518,41.054v81.957h192.95v-81.957
	c0-15.707-6.743-30.659-18.518-41.054l-43.357-38.281H221.401z"/>
<g>
	<path style="fill:#2D527C;" d="M352.474,512H159.526c-8.105,0-14.678-6.572-14.678-14.678v-81.955
		c0-19.908,8.559-38.883,23.482-52.058l43.354-38.28c2.683-2.368,6.139-3.675,9.716-3.675h69.201c3.579,0,7.032,1.308,9.716,3.675
		l43.356,38.281c14.922,13.174,23.481,32.149,23.481,52.057v81.955C367.153,505.427,360.581,512,352.474,512z M174.204,482.643
		h163.592v-67.277c0-11.493-4.941-22.446-13.554-30.051l-39.194-34.606h-58.094l-39.193,34.606
		c-8.615,7.606-13.555,18.559-13.555,30.051v67.277H174.204z"/>
	<path style="fill:#2D527C;" d="M244.34,160.466l-6.504,4.037c-2.017,1.346-4.035,1.794-5.604,1.794
		c-6.503,0-10.987-6.95-10.987-13.902c0-4.709,2.018-9.193,6.503-11.884l29.598-17.938c1.794-1.121,4.037-1.569,6.503-1.569
		c7.176,0,15.471,4.26,15.471,10.987v142.605c0,7.175-8.744,10.762-17.488,10.762c-8.745,0-17.489-3.587-17.489-10.762V160.466
		H244.34z"/>
	<path style="fill:#2D527C;" d="M403.125,512h-294.25c-8.105,0-14.678-6.572-14.678-14.678c0-8.107,6.573-14.678,14.678-14.678
		h294.25c8.105,0,14.678,6.572,14.678,14.678C417.804,505.428,411.232,512,403.125,512z"/>
	<path style="fill:#2D527C;" d="M472.523,182.617c-4.327,0-8.613-1.904-11.511-5.559c-5.038-6.353-3.972-15.584,2.379-20.622
		c6.724-5.333,10.58-13.303,10.58-21.869c0-15.379-12.51-27.889-27.889-27.889s-27.889,12.51-27.889,27.889
		c0,8.107-6.573,14.678-14.678,14.678s-14.678-6.572-14.678-14.678c0-31.566,25.68-57.246,57.246-57.246s57.246,25.68,57.246,57.246
		c0,17.582-7.909,33.936-21.695,44.87C478.938,181.579,475.719,182.617,472.523,182.617z"/>
	<path style="fill:#2D527C;" d="M39.477,182.617c-3.195,0-6.412-1.039-9.111-3.179c-13.787-10.934-21.695-27.289-21.695-44.87
		c0-31.566,25.68-57.246,57.246-57.246s57.246,25.68,57.246,57.246c0,8.107-6.573,14.678-14.678,14.678s-14.678-6.572-14.678-14.678
		c0-15.379-12.51-27.889-27.889-27.889s-27.889,12.51-27.889,27.889c0,8.566,3.856,16.538,10.58,21.869
		c6.351,5.038,7.417,14.269,2.379,20.622C48.09,180.712,43.804,182.617,39.477,182.617z"/>
</g>
<path style="fill:#CEE8FA;" d="M403.517,76.924V39.561c0-13.743-11.141-24.883-24.884-24.883H133.367
	c-13.743,0-24.884,11.141-24.884,24.883v37.361h295.034V76.924z"/>
<path style="fill:#2D527C;" d="M403.517,91.602H108.484c-8.105,0-14.678-6.572-14.678-14.678V39.563
	C93.806,17.748,111.554,0,133.367,0h245.267c21.814,0,39.561,17.748,39.561,39.563v37.361
	C418.196,85.03,411.623,91.602,403.517,91.602z M123.163,62.245h265.676V39.563c0-5.626-4.578-10.206-10.204-10.206H133.367
	c-5.626,0-10.204,4.578-10.204,10.206V62.245z"/>
<g>
</g>
<g>
</g>
<g>
</g>
<g>
</g>
<g>
</g>
<g>
</g>
<g>
</g>
<g>
</g>
<g>
</g>
<g>
</g>
<g>
</g>
<g>
</g>
<g>
</g>
<g>
</g>
<g>
</g>
</svg>
