<?xml version="1.0" encoding="iso-8859-1"?>
<!-- Generator: Adobe Illustrator 19.0.0, SVG Export Plug-In . SVG Version: 6.00 Build 0)  -->
<svg version="1.1" id="Layer_1" xmlns="http://www.w3.org/2000/svg" xmlns:xlink="http://www.w3.org/1999/xlink" x="0px" y="0px"
	 viewBox="0 0 512 512" style="enable-background:new 0 0 512 512;" xml:space="preserve">
<g transform="translate(1 1)">
	<path style="fill:#FD9808;" d="M476.867,498.2H340.333c-13.653,0-25.6-11.093-25.6-25.6V191c0-13.653,11.093-25.6,25.6-25.6
		h136.533c13.653,0,25.6,11.093,25.6,25.6v281.6C502.467,487.107,491.373,498.2,476.867,498.2"/>
	<g>
		<path style="fill:#FFDD09;" d="M451.267,498.2H340.333c-13.653,0-25.6-11.093-25.6-25.6V191c0-13.653,11.093-25.6,25.6-25.6
			h110.933c13.653,0,25.6,11.093,25.6,25.6v281.6C476.867,487.107,465.773,498.2,451.267,498.2"/>
		<path style="fill:#FFDD09;" d="M314.733,216.6H7.533v23.893c0,15.36,11.947,27.307,27.307,27.307h279.893V216.6z"/>
	</g>
	<path style="fill:#FD9808;" d="M314.733,191c0-13.653,11.093-25.6,25.6-25.6l0,0v-128c0-13.653-11.947-25.6-26.453-25.6H51.053
		C36.547,11.8,24.6,23.747,24.6,38.253V216.6h290.133V191z"/>
	<polygon style="fill:#1CD759;" points="365.933,387.267 451.267,387.267 451.267,327.533 365.933,327.533 	"/>
	<polygon style="fill:#FFDD09;" points="58.733,216.6 306.2,216.6 306.2,45.933 58.733,45.933 	"/>
	<polygon style="fill:#1CD759;" points="144.067,182.467 229.4,182.467 229.4,122.733 144.067,122.733 	"/>
	<path d="M476.867,506.733H340.333c-18.773,0-34.133-15.36-34.133-34.133V191c0-18.773,15.36-34.133,34.133-34.133h136.533
		C495.64,156.867,511,172.227,511,191v281.6C511,491.373,495.64,506.733,476.867,506.733z M340.333,173.933
		c-9.387,0-17.067,7.68-17.067,17.067v281.6c0,9.387,7.68,17.067,17.067,17.067h136.533c9.387,0,17.067-7.68,17.067-17.067V191
		c0-9.387-7.68-17.067-17.067-17.067H340.333z"/>
	<path d="M511,438.467H306.2V225.133H511V438.467z M323.267,421.4h170.667V242.2H323.267V421.4z"/>
	<path d="M425.667,208.067h-34.133c-5.12,0-8.533-3.413-8.533-8.533c0-5.12,3.413-8.533,8.533-8.533h34.133
		c5.12,0,8.533,3.413,8.533,8.533C434.2,204.653,430.787,208.067,425.667,208.067z"/>
	<path d="M425.667,472.6h-34.133c-5.12,0-8.533-3.413-8.533-8.533c0-5.12,3.413-8.533,8.533-8.533h34.133
		c5.12,0,8.533,3.413,8.533,8.533C434.2,469.187,430.787,472.6,425.667,472.6z"/>
	<path d="M306.2,310.467c-5.12,0-8.533-3.413-8.533-8.533V293.4c0-5.12,3.413-8.533,8.533-8.533s8.533,3.413,8.533,8.533v8.533
		C314.733,307.053,311.32,310.467,306.2,310.467z"/>
	<path d="M306.2,344.6c-5.12,0-8.533-3.413-8.533-8.533v-8.533c0-5.12,3.413-8.533,8.533-8.533s8.533,3.413,8.533,8.533v8.533
		C314.733,341.187,311.32,344.6,306.2,344.6z"/>
	<path d="M451.267,395.8h-85.333c-5.12,0-8.533-3.413-8.533-8.533v-59.733c0-5.12,3.413-8.533,8.533-8.533h85.333
		c5.12,0,8.533,3.413,8.533,8.533v59.733C459.8,392.387,456.387,395.8,451.267,395.8z M374.467,378.733h68.267v-42.667h-68.267
		V378.733z"/>
	<path d="M434.2,336.067H383c-5.12,0-8.533-3.413-8.533-8.533v-25.6c0-18.773,15.36-34.133,34.133-34.133
		c18.773,0,34.133,15.36,34.133,34.133v25.6C442.733,332.653,439.32,336.067,434.2,336.067z M391.533,319h34.133v-17.067
		c0-9.387-7.68-17.067-17.067-17.067c-9.387,0-17.067,7.68-17.067,17.067V319z"/>
	<path d="M229.4,191h-85.333c-5.12,0-8.533-3.413-8.533-8.533v-59.733c0-5.12,3.413-8.533,8.533-8.533H229.4
		c5.12,0,8.533,3.413,8.533,8.533v59.733C237.933,187.587,234.52,191,229.4,191z M152.6,173.933h68.267v-42.667H152.6V173.933z"/>
	<path d="M212.333,131.267h-51.2c-5.12,0-8.533-3.413-8.533-8.533v-17.067c0-18.773,15.36-34.133,34.133-34.133
		s34.133,15.36,34.133,34.133v17.067C220.867,127.853,217.453,131.267,212.333,131.267z M169.667,114.2H203.8v-8.533
		c0-9.387-7.68-17.067-17.067-17.067c-9.387,0-17.067,7.68-17.067,17.067V114.2z"/>
	<path d="M306.2,225.133H58.733c-5.12,0-8.533-3.413-8.533-8.533V45.933c0-5.12,3.413-8.533,8.533-8.533H306.2
		c5.12,0,8.533,3.413,8.533,8.533V216.6C314.733,221.72,311.32,225.133,306.2,225.133z M67.267,208.067h230.4v-153.6h-230.4V208.067
		z"/>
	<path d="M323.267,225.133h-307.2V38.253c0-19.627,15.36-34.987,34.987-34.987H313.88c19.627,0,34.987,15.36,34.987,34.987v133.12
		l-11.947,2.56c-9.387,0-13.653,8.533-13.653,17.92V225.133z M33.133,208.067H306.2V191c0-16.213,11.093-29.013,25.6-32.427V38.253
		c0-10.24-7.68-17.92-17.92-17.92H51.053c-10.24,0-17.92,7.68-17.92,17.92V208.067z"/>
	<path d="M314.733,276.333H34.84C15.213,276.333-1,260.12-1,240.493V216.6c0-5.12,3.413-8.533,8.533-8.533h307.2
		c5.12,0,8.533,3.413,8.533,8.533v51.2C323.267,272.92,319.853,276.333,314.733,276.333z M16.067,225.133v15.36
		c0,10.24,8.533,18.773,18.773,18.773H306.2v-34.133H16.067z"/>
	<path d="M459.8,139.8c-5.12,0-8.533-3.413-8.533-8.533V45.933c0-5.12,3.413-8.533,8.533-8.533s8.533,3.413,8.533,8.533v85.333
		C468.333,136.387,464.92,139.8,459.8,139.8z"/>
	<path d="M459.8,139.8c-2.56,0-4.267-0.853-5.973-2.56c-3.413-3.413-3.413-8.533,0-11.947l25.6-25.6
		c3.413-3.413,8.533-3.413,11.947,0c3.413,3.413,3.413,8.533,0,11.947l-25.6,25.6C464.067,138.947,462.36,139.8,459.8,139.8z"/>
	<path d="M459.8,139.8c-2.56,0-4.267-0.853-5.973-2.56l-25.6-25.6c-3.413-3.413-3.413-8.533,0-11.947
		c3.413-3.413,8.533-3.413,11.947,0l25.6,25.6c3.413,3.413,3.413,8.533,0,11.947C464.067,138.947,462.36,139.8,459.8,139.8z"/>
	<path d="M459.8,54.467h-85.333c-5.12,0-8.533-3.413-8.533-8.533s3.413-8.533,8.533-8.533H459.8c5.12,0,8.533,3.413,8.533,8.533
		S464.92,54.467,459.8,54.467z"/>
	<path d="M400.067,80.067c-2.56,0-4.267-0.853-5.973-2.56l-25.6-25.6c-3.413-3.413-3.413-8.533,0-11.947s8.533-3.413,11.947,0
		l25.6,25.6c3.413,3.413,3.413,8.533,0,11.947C404.333,79.213,402.627,80.067,400.067,80.067z"/>
	<path d="M374.467,54.467c-2.56,0-4.267-0.853-5.973-2.56c-3.413-3.413-3.413-8.533,0-11.947l25.6-25.6
		c3.413-3.413,8.533-3.413,11.947,0c3.413,3.413,3.413,8.533,0,11.947l-25.6,25.6C378.733,53.613,377.027,54.467,374.467,54.467z"/>
	<path d="M118.467,429.933c-5.12,0-8.533-3.413-8.533-8.533v-85.333c0-5.12,3.413-8.533,8.533-8.533s8.533,3.413,8.533,8.533V421.4
		C127,426.52,123.587,429.933,118.467,429.933z"/>
	<path d="M92.867,370.2c-2.56,0-4.267-0.853-5.973-2.56c-3.413-3.413-3.413-8.533,0-11.947l25.6-25.6
		c3.413-3.413,8.533-3.413,11.947,0c3.413,3.413,3.413,8.533,0,11.947l-25.6,25.6C97.133,369.347,95.427,370.2,92.867,370.2z"/>
	<path d="M144.067,370.2c-2.56,0-4.267-0.853-5.973-2.56l-25.6-25.6c-3.413-3.413-3.413-8.533,0-11.947
		c3.413-3.413,8.533-3.413,11.947,0l25.6,25.6c3.413,3.413,3.413,8.533,0,11.947C148.333,369.347,146.627,370.2,144.067,370.2z"/>
	<path d="M203.8,429.933h-85.333c-5.12,0-8.533-3.413-8.533-8.533s3.413-8.533,8.533-8.533H203.8c5.12,0,8.533,3.413,8.533,8.533
		S208.92,429.933,203.8,429.933z"/>
	<path d="M203.8,429.933c-2.56,0-4.267-0.853-5.973-2.56l-25.6-25.6c-3.413-3.413-3.413-8.533,0-11.947
		c3.413-3.413,8.533-3.413,11.947,0l25.6,25.6c3.413,3.413,3.413,8.533,0,11.947C208.067,429.08,206.36,429.933,203.8,429.933z"/>
	<path d="M178.2,455.533c-2.56,0-4.267-0.853-5.973-2.56c-3.413-3.413-3.413-8.533,0-11.947l25.6-25.6
		c3.413-3.413,8.533-3.413,11.947,0c3.413,3.413,3.413,8.533,0,11.947l-25.6,25.6C182.467,454.68,180.76,455.533,178.2,455.533z"/>
</g>
<g>
</g>
<g>
</g>
<g>
</g>
<g>
</g>
<g>
</g>
<g>
</g>
<g>
</g>
<g>
</g>
<g>
</g>
<g>
</g>
<g>
</g>
<g>
</g>
<g>
</g>
<g>
</g>
<g>
</g>
</svg>
