<?xml version="1.0" encoding="iso-8859-1"?>
<!-- Generator: Adobe Illustrator 19.0.0, SVG Export Plug-In . SVG Version: 6.00 Build 0)  -->
<svg version="1.1" id="Layer_1" xmlns="http://www.w3.org/2000/svg" xmlns:xlink="http://www.w3.org/1999/xlink" x="0px" y="0px"
	 viewBox="0 0 503.98 503.98" style="enable-background:new 0 0 503.98 503.98;" xml:space="preserve">
<g transform="translate(1 1)">
	<g>
		<path style="fill:#FFE100;" d="M95.711,32.574c0-14.269-10.911-25.18-25.18-25.18s-25.18,10.911-25.18,25.18
			s10.911,25.18,25.18,25.18S95.711,46.843,95.711,32.574"/>
		<path style="fill:#FFE100;" d="M179.646,32.574c0-14.269-10.911-25.18-25.18-25.18c-14.269,0-25.18,10.911-25.18,25.18
			s10.911,25.18,25.18,25.18C168.734,57.754,179.646,46.843,179.646,32.574"/>
		<path style="fill:#FFE100;" d="M263.58,32.574c0-14.269-10.911-25.18-25.18-25.18c-14.269,0-25.18,10.911-25.18,25.18
			s10.911,25.18,25.18,25.18C252.668,57.754,263.58,46.843,263.58,32.574"/>
		<path style="fill:#FFE100;" d="M95.711,116.508c0-14.269-10.911-25.18-25.18-25.18s-25.18,10.911-25.18,25.18
			s10.911,25.18,25.18,25.18S95.711,130.777,95.711,116.508"/>
		<path style="fill:#FFE100;" d="M179.646,116.508c0-14.269-10.911-25.18-25.18-25.18c-14.269,0-25.18,10.911-25.18,25.18
			s10.911,25.18,25.18,25.18C168.734,141.689,179.646,130.777,179.646,116.508"/>
		<path style="fill:#FFE100;" d="M263.58,116.508c0-14.269-10.911-25.18-25.18-25.18c-14.269,0-25.18,10.911-25.18,25.18
			s10.911,25.18,25.18,25.18C252.668,141.689,263.58,130.777,263.58,116.508"/>
		<path style="fill:#FFE100;" d="M95.711,200.443c0-14.269-10.911-25.18-25.18-25.18s-25.18,10.911-25.18,25.18
			s10.911,25.18,25.18,25.18S95.711,214.711,95.711,200.443"/>
		<path style="fill:#FFE100;" d="M179.646,200.443c0-14.269-10.911-25.18-25.18-25.18c-14.269,0-25.18,10.911-25.18,25.18
			s10.911,25.18,25.18,25.18C168.734,225.623,179.646,214.711,179.646,200.443"/>
		<path style="fill:#FFE100;" d="M155.305,477.426c1.679,9.233,3.357,17.626,5.875,25.18c45.325,0,90.649-0.839,135.974,0
			c35.252,0,70.505-0.839,105.757,0c11.751,0,24.341,0.839,36.092,0c0-10.072,0-23.502,0-41.967V359.918
			c0-15.948-12.59-33.574-28.538-33.574c-15.948,0-29.377,17.626-29.377,33.574v-33.574c0-15.948-11.751-33.574-28.538-33.574
			c-15.948,0-30.216,17.626-30.216,33.574V292.77c0-15.948-12.59-33.574-28.538-33.574c-15.948,0-30.216,17.626-30.216,33.574
			v-83.934c0-15.948-12.59-33.574-28.538-33.574s-30.216,17.626-30.216,33.574v209.836c0-23.502-18.466-70.505-41.128-92.328
			c-20.984-20.984-72.184-8.393-41.967,33.574C141.875,387.616,150.268,447.21,155.305,477.426"/>
	</g>
	<path style="fill:#FFFFFF;" d="M155.305,479.105c1.679,8.393,3.357,15.948,5.875,22.662c8.393,0,16.787,0,25.18,0
		c-2.518-6.715-4.197-14.269-5.875-22.662c-5.036-30.216-13.43-89.81-33.574-117.508c-15.948-22.662-9.233-36.092,4.197-41.128
		c-23.502-8.393-54.557,6.715-29.377,41.128C141.875,389.295,150.268,448.049,155.305,479.105"/>
	<path style="fill:#FFA800;" d="M414.662,359.918v100.721c0,19.305,0,31.895,0,41.967c8.393,0,16.787,0.839,25.18,0
		c0-10.072,0-23.502,0-41.967V359.918c0-15.948-12.59-33.574-28.538-33.574c-4.197,0-9.233,1.679-12.59,3.357
		C407.947,336.416,414.662,348.167,414.662,359.918"/>
	<path style="fill:#FFE100;" d="M439.842,359.918v100.721c0,18.466,0,31.895,0,41.967c8.393,0,16.787,0,25.18,0
		c0-10.072,0-23.502,0-41.967V359.918c0-15.948-12.59-33.574-28.538-33.574c-4.197,0-9.233,1.679-12.59,3.357
		C433.127,336.416,439.842,348.167,439.842,359.918"/>
	<path d="M313.941,460.639h-25.18c-5.036,0-8.393-3.357-8.393-8.393s3.357-8.393,8.393-8.393h25.18c5.036,0,8.393,3.357,8.393,8.393
		S318.977,460.639,313.941,460.639z"/>
	<path d="M322.334,494.213h-41.967c-5.036,0-8.393-3.357-8.393-8.393s3.357-8.393,8.393-8.393h41.967
		c5.036,0,8.393,3.357,8.393,8.393S327.37,494.213,322.334,494.213z"/>
	<path d="M154.465,485.82c-4.197,0-7.554-2.518-8.393-6.715c-0.839-3.357-1.679-7.554-1.679-11.751
		c-5.036-31.895-12.59-78.898-29.377-102.4c-20.984-28.538-6.715-44.485-1.679-48.682c15.108-12.59,41.128-10.911,56.236,4.197
		c10.072,10.072,19.305,24.341,26.859,40.289V208.836c0-20.144,16.787-41.967,38.61-41.967s36.931,21.823,36.931,41.967v50.361
		c5.875-5.036,13.43-8.393,21.823-8.393c21.823,0,36.931,21.823,36.931,41.967c5.875-5.036,13.43-8.393,21.823-8.393
		c21.823,0,36.931,21.823,36.931,41.967c5.875-5.036,13.43-8.393,21.823-8.393c21.823,0,36.931,21.823,36.931,41.967v117.508
		c0,5.036-3.357,8.393-8.393,8.393c-4.197,0-8.393-3.357-8.393-8.393V359.918c0-11.751-8.393-25.18-20.144-25.18
		c-10.911,0-21.823,12.59-21.823,25.18v33.574c0,5.036-3.357,8.393-8.393,8.393s-8.393-3.357-8.393-8.393v-67.148
		c0-11.751-8.393-25.18-20.144-25.18c-10.911,0-21.823,12.59-21.823,25.18v50.361c0,5.036-3.357,8.393-8.393,8.393
		c-5.036,0-8.393-3.357-8.393-8.393V292.77c0-11.751-8.393-25.18-20.144-25.18c-10.911,0-21.823,12.59-21.823,25.18v75.541
		c0,5.036-3.357,8.393-8.393,8.393s-8.393-3.357-8.393-8.393V208.836c0-11.751-8.393-25.18-20.144-25.18
		c-10.911,0-21.823,12.59-21.823,25.18v209.836c0,5.036-3.357,8.393-8.393,8.393s-8.393-3.357-8.393-8.393
		c0-20.984-18.466-66.308-38.61-86.452c-9.233-9.233-26.02-9.233-33.574-3.357c-7.554,6.715-0.839,19.305,4.197,26.02
		c18.466,26.02,26.859,76.38,31.895,109.115c0.839,4.197,1.679,8.393,1.679,11.751c0.839,4.197-2.518,9.233-6.715,10.072
		C155.305,485.82,155.305,485.82,154.465,485.82z"/>
	<path d="M70.531,66.148c-18.466,0-33.574-15.108-33.574-33.574S52.065-1,70.531-1s33.574,15.108,33.574,33.574
		S88.996,66.148,70.531,66.148z M70.531,15.787c-9.233,0-16.787,7.554-16.787,16.787s7.554,16.787,16.787,16.787
		s16.787-7.554,16.787-16.787S79.764,15.787,70.531,15.787z"/>
	<path d="M154.465,66.148c-18.466,0-33.574-15.108-33.574-33.574S136-1,154.465-1s33.574,15.108,33.574,33.574
		S172.931,66.148,154.465,66.148z M154.465,15.787c-9.233,0-16.787,7.554-16.787,16.787s7.554,16.787,16.787,16.787
		s16.787-7.554,16.787-16.787S163.698,15.787,154.465,15.787z"/>
	<path d="M238.4,66.148c-18.466,0-33.574-15.108-33.574-33.574S219.934-1,238.4-1s33.574,15.108,33.574,33.574
		S256.865,66.148,238.4,66.148z M238.4,15.787c-9.233,0-16.787,7.554-16.787,16.787s7.554,16.787,16.787,16.787
		c9.233,0,16.787-7.554,16.787-16.787S247.632,15.787,238.4,15.787z"/>
	<path d="M70.531,150.082c-18.466,0-33.574-15.108-33.574-33.574s15.108-33.574,33.574-33.574s33.574,15.108,33.574,33.574
		S88.996,150.082,70.531,150.082z M70.531,99.721c-9.233,0-16.787,7.554-16.787,16.787s7.554,16.787,16.787,16.787
		s16.787-7.554,16.787-16.787S79.764,99.721,70.531,99.721z"/>
	<path d="M154.465,150.082c-18.466,0-33.574-15.108-33.574-33.574S136,82.934,154.465,82.934s33.574,15.108,33.574,33.574
		S172.931,150.082,154.465,150.082z M154.465,99.721c-9.233,0-16.787,7.554-16.787,16.787s7.554,16.787,16.787,16.787
		s16.787-7.554,16.787-16.787S163.698,99.721,154.465,99.721z"/>
	<path d="M238.4,150.082c-18.466,0-33.574-15.108-33.574-33.574s15.108-33.574,33.574-33.574s33.574,15.108,33.574,33.574
		S256.865,150.082,238.4,150.082z M238.4,99.721c-9.233,0-16.787,7.554-16.787,16.787s7.554,16.787,16.787,16.787
		c9.233,0,16.787-7.554,16.787-16.787S247.632,99.721,238.4,99.721z"/>
	<path d="M70.531,234.016c-18.466,0-33.574-15.108-33.574-33.574s15.108-33.574,33.574-33.574s33.574,15.108,33.574,33.574
		S88.996,234.016,70.531,234.016z M70.531,183.656c-9.233,0-16.787,7.554-16.787,16.787s7.554,16.787,16.787,16.787
		s16.787-7.554,16.787-16.787S79.764,183.656,70.531,183.656z"/>
	<path d="M154.465,234.016c-18.466,0-33.574-15.108-33.574-33.574s15.108-33.574,33.574-33.574s33.574,15.108,33.574,33.574
		S172.931,234.016,154.465,234.016z M154.465,183.656c-9.233,0-16.787,7.554-16.787,16.787s7.554,16.787,16.787,16.787
		s16.787-7.554,16.787-16.787S163.698,183.656,154.465,183.656z"/>
</g>
<g>
</g>
<g>
</g>
<g>
</g>
<g>
</g>
<g>
</g>
<g>
</g>
<g>
</g>
<g>
</g>
<g>
</g>
<g>
</g>
<g>
</g>
<g>
</g>
<g>
</g>
<g>
</g>
<g>
</g>
</svg>
