<?xml version="1.0" encoding="iso-8859-1"?>
<!-- Generator: Adobe Illustrator 19.0.0, SVG Export Plug-In . SVG Version: 6.00 Build 0)  -->
<svg version="1.1" id="Layer_1" xmlns="http://www.w3.org/2000/svg" xmlns:xlink="http://www.w3.org/1999/xlink" x="0px" y="0px"
	 viewBox="0 0 512 512" style="enable-background:new 0 0 512 512;" xml:space="preserve">
<g transform="translate(1 1)">
	<path style="fill:#1CD759;" d="M455.533,297.667h-68.267v-76.8c0-18.773,15.36-34.133,34.133-34.133l0,0
		c18.773,0,34.133,15.36,34.133,34.133V297.667z"/>
	<path style="fill:#FD9808;" d="M455.533,236.227c0,0.853,0,0.853,0,1.707v59.733h-68.267v-59.733c0-0.853,0-0.853,0-1.707
		c-15.36,8.533-25.6,25.6-25.6,44.373v221.867h119.467V280.6C481.133,261.827,470.893,244.76,455.533,236.227"/>
	<path style="fill:#FFDD09;" d="M438.467,297.667h-51.2v-59.733c0-0.853,0-0.853,0-1.707c-15.36,8.533-25.6,25.6-25.6,44.373
		v221.867h93.867v-204.8H438.467z"/>
	<path style="fill:#FD9808;" d="M276.333,502.467H63c-13.653,0-25.6-11.093-25.6-25.6V33.133c0-13.653,11.093-25.6,25.6-25.6
		h213.333c13.653,0,25.6,11.093,25.6,25.6v443.733C301.933,491.373,290.84,502.467,276.333,502.467"/>
	<path style="fill:#FFDD09;" d="M250.733,502.467H63c-13.653,0-25.6-11.093-25.6-25.6V33.133c0-13.653,11.093-25.6,25.6-25.6
		h187.733c13.653,0,25.6,11.093,25.6,25.6v443.733C276.333,491.373,265.24,502.467,250.733,502.467"/>
	<path style="fill:#FFFFFF;" d="M63,7.533h25.6c-14.507,0-25.6,11.093-25.6,25.6v443.733c0,13.653,11.093,25.6,25.6,25.6H63
		c-13.653,0-25.6-11.093-25.6-25.6V33.133C37.4,18.627,48.493,7.533,63,7.533"/>
	<path d="M276.333,511H63c-18.773,0-34.133-15.36-34.133-34.133V33.133C28.867,14.36,44.227-1,63-1h213.333
		c18.773,0,34.133,15.36,34.133,34.133v443.733C310.467,495.64,295.107,511,276.333,511z M63,16.067
		c-9.387,0-17.067,7.68-17.067,17.067v443.733c0,9.387,7.68,17.067,17.067,17.067h213.333c9.387,0,17.067-7.68,17.067-17.067V33.133
		c0-9.387-7.68-17.067-17.067-17.067H63z"/>
	<path d="M310.467,434.2h-281.6v-384h281.6V434.2z M45.933,417.133H293.4V67.267H45.933V417.133z"/>
	<path d="M208.067,41.667H165.4c-5.12,0-8.533-3.413-8.533-8.533S160.28,24.6,165.4,24.6h42.667c5.12,0,8.533,3.413,8.533,8.533
		S213.187,41.667,208.067,41.667z"/>
	<path d="M139.8,41.667h-8.533c-5.12,0-8.533-3.413-8.533-8.533s3.413-8.533,8.533-8.533h8.533c5.12,0,8.533,3.413,8.533,8.533
		S144.92,41.667,139.8,41.667z"/>
	<path d="M191,464.067c0,11.947-9.387,21.333-21.333,21.333c-11.947,0-21.333-9.387-21.333-21.333
		c0-11.947,9.387-21.333,21.333-21.333C181.613,442.733,191,452.12,191,464.067"/>
	<path d="M28.867,101.4c-5.12,0-8.533-3.413-8.533-8.533v-8.533c0-5.12,3.413-8.533,8.533-8.533s8.533,3.413,8.533,8.533v8.533
		C37.4,97.987,33.987,101.4,28.867,101.4z"/>
	<path d="M28.867,135.533c-5.12,0-8.533-3.413-8.533-8.533v-8.533c0-5.12,3.413-8.533,8.533-8.533s8.533,3.413,8.533,8.533V127
		C37.4,132.12,33.987,135.533,28.867,135.533z"/>
	<path d="M28.867,169.667c-5.12,0-8.533-3.413-8.533-8.533V152.6c0-5.12,3.413-8.533,8.533-8.533S37.4,147.48,37.4,152.6v8.533
		C37.4,166.253,33.987,169.667,28.867,169.667z"/>
	<path d="M182.467,331.8L182.467,331.8c-5.12,0-8.533-4.267-8.533-8.533c3.413-87.893-11.947-110.08-11.947-110.933
		c-2.56-3.413-1.707-9.387,1.707-11.947c3.413-2.56,8.533-2.56,11.947,1.707c1.707,2.56,18.773,26.453,15.36,122.027
		C191,328.387,186.733,331.8,182.467,331.8z"/>
	<path d="M114.2,331.8L114.2,331.8c-5.12,0-8.533-4.267-8.533-8.533c2.56-69.12-2.56-90.453-3.413-93.013
		c-1.707-7.68-3.413-16.213-2.56-23.893l0,0c0.853-19.627,8.533-46.933,29.013-61.44c4.267-2.56,9.387-1.707,11.947,1.707
		c2.56,4.267,1.707,9.387-1.707,11.947c-14.507,10.24-21.333,31.573-22.187,47.787l0,0c0,6.827,0.853,12.8,2.56,18.773
		s5.973,29.867,4.267,98.133C122.733,328.387,118.467,331.8,114.2,331.8z M233.667,314.733L233.667,314.733
		c-5.12,0-8.533-4.267-8.533-8.533l0.853-15.36c1.707-39.253,2.56-63.147-1.707-82.773l0,0c-1.707-7.68-3.413-14.507-6.827-21.333
		C208.92,166.253,191,152.6,170.52,152.6c-3.413,0-7.68,0-11.093,0.853c-4.267,0.853-9.387-1.707-10.24-6.827
		c-0.853-4.267,1.707-9.387,6.827-10.24c5.12-0.853,10.24-1.707,15.36-1.707c27.307,0,51.2,17.067,63.147,44.373
		c3.413,7.68,5.973,16.213,7.68,24.747l0,0c4.267,21.333,3.413,46.08,1.707,87.04L242.2,306.2
		C242.2,311.32,237.933,314.733,233.667,314.733z"/>
	<path d="M208.067,326.68L208.067,326.68c-5.12,0-8.533-4.267-8.533-8.533v-2.56c0-2.56,0-4.267,0-5.973c0-2.56,0-4.267,0-6.827
		v-1.707c0-4.267,4.267-8.533,8.533-8.533l0,0c5.12,0,8.533,4.267,8.533,8.533v1.707c0,2.56,0,4.267,0,6.827
		c0,1.707,0,4.267,0,6.827V319C216.6,322.413,213.187,326.68,208.067,326.68z"/>
	<path d="M208.92,286.573c-4.267,0-8.533-3.413-8.533-8.533c-0.853-36.693-4.267-58.027-7.68-69.12
		c-0.853-4.267,1.707-9.387,5.973-10.24s9.387,1.707,10.24,5.973c4.267,17.92,7.68,41.813,8.533,73.387
		C217.453,282.307,214.04,286.573,208.92,286.573L208.92,286.573z"/>
	<path d="M201.24,214.893c-3.413,0-6.827-2.56-8.533-5.973c-1.707-5.973-2.56-8.533-3.413-10.24
		c-4.267-11.093-17.92-16.213-29.013-11.947c-7.68,3.413-13.653,11.093-13.653,20.48c0,5.12-4.267,8.533-8.533,8.533
		c-5.12,0-8.533-4.267-8.533-8.533c0.853-15.36,10.24-29.013,23.893-34.987c5.12-1.707,10.24-3.413,15.36-3.413
		c16.213,0,29.867,9.387,36.693,23.893c0.853,1.707,2.56,5.973,4.267,12.8c0.853,4.267-1.707,9.387-5.973,10.24
		C202.093,214.893,202.093,214.893,201.24,214.893z"/>
	<path d="M148.333,331.8L148.333,331.8c-5.12,0-8.533-4.267-8.533-8.533c2.56-66.56-4.267-93.013-7.68-100.693v-0.853
		c-1.707-4.267-2.56-9.387-2.56-14.507c0-5.12,4.267-8.533,8.533-8.533c5.12,0,8.533,4.267,8.533,8.533c0,2.56,0,5.973,1.707,8.533
		c4.267,11.947,11.093,40.96,9.387,108.373C156.867,328.387,152.6,331.8,148.333,331.8z"/>
	<path d="M481.133,511H361.667c-5.12,0-8.533-3.413-8.533-8.533V280.6c0-21.333,11.093-40.96,29.867-52.053
		c2.56-1.707,5.973-1.707,8.533,0c2.56,1.707,4.267,4.267,4.267,7.68v0.853v51.2H447v-51.2v-0.853c0-3.413,1.707-5.973,4.267-7.68
		c2.56-1.707,5.973-1.707,8.533,0c18.773,10.24,29.867,30.72,29.867,52.053v221.867C489.667,507.587,486.253,511,481.133,511z
		 M370.2,493.933h102.4V280.6c0-9.387-3.413-17.92-8.533-25.6v42.667c0,5.12-3.413,8.533-8.533,8.533h-68.267
		c-5.12,0-8.533-3.413-8.533-8.533V255c-5.12,7.68-8.533,16.213-8.533,25.6V493.933z"/>
	<path d="M438.467,442.733h-34.133c-5.12,0-8.533-3.413-8.533-8.533c0-5.12,3.413-8.533,8.533-8.533h34.133
		c5.12,0,8.533,3.413,8.533,8.533C447,439.32,443.587,442.733,438.467,442.733z"/>
	<path d="M447,476.867h-51.2c-5.12,0-8.533-3.413-8.533-8.533c0-5.12,3.413-8.533,8.533-8.533H447c5.12,0,8.533,3.413,8.533,8.533
		C455.533,473.453,452.12,476.867,447,476.867z"/>
	<path d="M455.533,306.2h-68.267c-5.12,0-8.533-3.413-8.533-8.533v-76.8c0-23.893,18.773-42.667,42.667-42.667
		c23.893,0,42.667,18.773,42.667,42.667v76.8C464.067,302.787,460.653,306.2,455.533,306.2z M395.8,289.133H447v-68.267
		c0-14.507-11.093-25.6-25.6-25.6s-25.6,11.093-25.6,25.6V289.133z"/>
</g>
<g>
</g>
<g>
</g>
<g>
</g>
<g>
</g>
<g>
</g>
<g>
</g>
<g>
</g>
<g>
</g>
<g>
</g>
<g>
</g>
<g>
</g>
<g>
</g>
<g>
</g>
<g>
</g>
<g>
</g>
</svg>
