<?xml version="1.0" encoding="iso-8859-1"?>
<!-- Generator: Adobe Illustrator 19.0.0, SVG Export Plug-In . SVG Version: 6.00 Build 0)  -->
<svg version="1.1" id="Layer_1" xmlns="http://www.w3.org/2000/svg" xmlns:xlink="http://www.w3.org/1999/xlink" x="0px" y="0px"
	 viewBox="0 0 512 512" style="enable-background:new 0 0 512 512;" xml:space="preserve">
<g>
	<path style="fill:#2D527C;" d="M99.92,470.326c-8.114,0-14.69-6.577-14.69-14.69V42.094C85.23,18.883,104.113,0,127.324,0
		s42.094,18.883,42.094,42.094v308.164c0,8.114-6.577,14.69-14.69,14.69c-8.114,0-14.69-6.577-14.69-14.69V42.094
		c0-7.009-5.703-12.713-12.713-12.713c-7.009,0-12.712,5.703-12.712,12.713v413.542C114.611,463.749,108.034,470.326,99.92,470.326z
		"/>
	<path style="fill:#2D527C;" d="M446.742,273.396H86.662c-8.114,0-14.69-6.577-14.69-14.69V55.023c0-8.114,6.577-14.69,14.69-14.69
		h360.08c5.315,0,10.216,2.872,12.816,7.508c2.599,4.636,2.489,10.316-0.284,14.849l-30.007,49.035
		c-4.234,6.921-13.274,9.099-20.198,4.864c-6.921-4.235-9.096-13.277-4.863-20.198l16.323-26.678H101.353v174.304h319.179
		l-42.683-69.753c-4.235-6.919-2.058-15.963,4.863-20.198c6.922-4.234,15.963-2.058,20.198,4.863l56.364,92.112
		c2.775,4.533,2.884,10.213,0.285,14.851C456.958,270.526,452.057,273.396,446.742,273.396z"/>
</g>
<rect x="86.662" y="55.022" style="fill:#CEE8FA;" width="81.326" height="203.683"/>
<g>
	<path style="fill:#2D527C;" d="M167.985,273.396H86.662c-8.114,0-14.69-6.577-14.69-14.69V55.023c0-8.114,6.577-14.69,14.69-14.69
		h81.323c8.114,0,14.69,6.577,14.69,14.69v203.684C182.676,266.82,176.099,273.396,167.985,273.396z M101.353,244.016h51.942V69.713
		h-51.942V244.016z"/>
	<path style="fill:#2D527C;" d="M323.866,171.555h-155.88c-8.114,0-14.69-6.577-14.69-14.69c0-8.114,6.577-14.69,14.69-14.69h155.88
		c8.112,0,14.69,6.577,14.69,14.69C338.556,164.978,331.978,171.555,323.866,171.555z"/>
</g>
<polygon style="fill:#CEE8FA;" points="189.391,497.31 65.257,497.31 94.641,443.346 160.007,443.346 "/>
<path style="fill:#2D527C;" d="M189.42,512c-0.01,0-0.019,0-0.029,0H65.257c-5.183,0-9.982-2.731-12.629-7.187
	c-2.647-4.456-2.752-9.978-0.272-14.529l29.384-53.964c2.572-4.724,7.522-7.665,12.901-7.665h65.367
	c5.38,0,10.329,2.941,12.901,7.665l28.959,53.184c1.421,2.262,2.243,4.937,2.243,7.805C204.111,505.423,197.532,512,189.42,512z
	 M89.982,482.619h74.682l-13.386-24.583h-47.91L89.982,482.619z"/>
<g>
</g>
<g>
</g>
<g>
</g>
<g>
</g>
<g>
</g>
<g>
</g>
<g>
</g>
<g>
</g>
<g>
</g>
<g>
</g>
<g>
</g>
<g>
</g>
<g>
</g>
<g>
</g>
<g>
</g>
</svg>
