<?xml version="1.0" encoding="iso-8859-1"?>
<!-- Generator: Adobe Illustrator 19.0.0, SVG Export Plug-In . SVG Version: 6.00 Build 0)  -->
<svg version="1.1" id="Layer_1" xmlns="http://www.w3.org/2000/svg" xmlns:xlink="http://www.w3.org/1999/xlink" x="0px" y="0px"
	 viewBox="0 0 512 512" style="enable-background:new 0 0 512 512;" xml:space="preserve">
<path style="fill:#2D527C;" d="M331.578,512H183.924c-7.768,0-14.065-6.298-14.065-14.064V43.977C169.86,19.727,189.588,0,213.838,0
	h87.827c24.249,0,43.977,19.727,43.977,43.977v453.96C345.642,505.703,339.346,512,331.578,512z M197.989,483.871h119.523V43.977
	c0-8.738-7.11-15.848-15.848-15.848h-87.827c-8.738,0-15.848,7.11-15.848,15.848L197.989,483.871L197.989,483.871z"/>
<rect x="228.056" y="182.149" style="fill:#CEE8FA;" width="59.394" height="176.692"/>
<g>
	<path style="fill:#2D527C;" d="M287.452,372.916h-59.4c-7.768,0-14.065-6.298-14.065-14.065V182.156
		c0-7.766,6.297-14.064,14.065-14.064h59.4c7.768,0,14.065,6.298,14.065,14.064v176.697
		C301.516,366.619,295.22,372.916,287.452,372.916z M242.115,344.787h31.271V196.221h-31.271V344.787z"/>
	<path style="fill:#2D527C;" d="M252.236,82.595h-68.31c-7.768,0-14.064-6.298-14.064-14.065s6.297-14.065,14.064-14.065h68.31
		c7.768,0,14.064,6.298,14.064,14.065S260.003,82.595,252.236,82.595z"/>
	<path style="fill:#2D527C;" d="M326.062,444.206h-68.31c-7.768,0-14.064-6.298-14.064-14.065s6.297-14.065,14.064-14.065h68.31
		c7.768,0,14.064,6.298,14.064,14.065S333.829,444.206,326.062,444.206z"/>
	<path style="fill:#2D527C;" d="M180.424,512H60.904c-7.768,0-14.065-6.298-14.065-14.064V139.624
		c0-24.249,19.728-43.977,43.977-43.977h44.223c7.768,0,14.065,6.298,14.065,14.065s-6.297,14.065-14.065,14.065H90.815
		c-8.738,0-15.848,7.11-15.848,15.848v344.247h105.456c7.768,0,14.065,6.298,14.065,14.065C194.487,505.702,188.192,512,180.424,512
		z"/>
</g>
<rect x="60.899" y="429.024" style="fill:#CEE8FA;" width="119.52" height="68.916"/>
<g>
	<path style="fill:#2D527C;" d="M180.422,512H60.902c-7.768,0-14.065-6.298-14.065-14.064v-68.916
		c0-7.766,6.297-14.065,14.065-14.065h119.52c7.768,0,14.064,6.298,14.064,14.065v68.916C194.487,505.703,188.19,512,180.422,512z
		 M74.967,483.871h91.391v-40.787H74.967C74.967,443.084,74.967,483.871,74.967,483.871z"/>
	<path style="fill:#2D527C;" d="M135.078,210.287h-28.832c-7.768,0-14.064-6.298-14.064-14.065c0-7.766,6.297-14.064,14.064-14.064
		h28.832c7.768,0,14.065,6.298,14.065,14.064C149.143,203.989,142.846,210.287,135.078,210.287z"/>
	<path style="fill:#2D527C;" d="M135.078,289.757h-28.832c-7.768,0-14.064-6.298-14.064-14.064s6.297-14.065,14.064-14.065h28.832
		c7.768,0,14.065,6.298,14.065,14.065S142.846,289.757,135.078,289.757z"/>
	<path style="fill:#2D527C;" d="M451.098,512h-119.52c-7.768,0-14.064-6.298-14.064-14.064V139.624
		c0-24.249,19.728-43.977,43.977-43.977h44.223c7.768,0,14.064,6.298,14.064,14.065s-6.297,14.065-14.064,14.065H361.49
		c-8.738,0-15.848,7.11-15.848,15.848v344.247h105.456c7.768,0,14.064,6.298,14.064,14.065C465.162,505.702,458.866,512,451.098,512
		z"/>
</g>
<rect x="331.571" y="429.024" style="fill:#CEE8FA;" width="119.52" height="68.916"/>
<g>
	<path style="fill:#2D527C;" d="M451.098,512h-119.52c-7.768,0-14.064-6.298-14.064-14.064v-68.916
		c0-7.766,6.297-14.065,14.064-14.065h119.52c7.768,0,14.064,6.298,14.064,14.065v68.916C465.162,505.703,458.866,512,451.098,512z
		 M345.642,483.871h91.391v-40.787h-91.391V483.871z"/>
	<path style="fill:#2D527C;" d="M405.754,210.287h-28.832c-7.768,0-14.064-6.298-14.064-14.065c0-7.766,6.297-14.064,14.064-14.064
		h28.832c7.768,0,14.065,6.298,14.065,14.064C419.818,203.989,413.522,210.287,405.754,210.287z"/>
	<path style="fill:#2D527C;" d="M405.754,289.757h-28.832c-7.768,0-14.064-6.298-14.064-14.064s6.297-14.065,14.064-14.065h28.832
		c7.768,0,14.065,6.298,14.065,14.065S413.522,289.757,405.754,289.757z"/>
	<path style="fill:#2D527C;" d="M451.098,443.084c-7.768,0-14.065-6.298-14.065-14.064V196.222c0-7.766,6.297-14.064,14.065-14.064
		c7.768,0,14.064,6.298,14.064,14.064v232.797C465.162,436.787,458.866,443.084,451.098,443.084z"/>
</g>
<g>
</g>
<g>
</g>
<g>
</g>
<g>
</g>
<g>
</g>
<g>
</g>
<g>
</g>
<g>
</g>
<g>
</g>
<g>
</g>
<g>
</g>
<g>
</g>
<g>
</g>
<g>
</g>
<g>
</g>
</svg>
