<?xml version="1.0" encoding="iso-8859-1"?>
<!-- Generator: Adobe Illustrator 19.0.0, SVG Export Plug-In . SVG Version: 6.00 Build 0)  -->
<svg version="1.1" id="Layer_1" xmlns="http://www.w3.org/2000/svg" xmlns:xlink="http://www.w3.org/1999/xlink" x="0px" y="0px"
	 viewBox="0 0 502 502" style="enable-background:new 0 0 502 502;" xml:space="preserve">
<g>
	<g>
		<polygon style="fill:#D1DCEB;" points="282.298,209.766 286.262,213.73 282.3,209.768 		"/>
		<path style="fill:#4EC9DC;" d="M459.094,300.357l-133.69-133.691c-0.004-0.004-0.008-0.008-0.012-0.012
			c-30.269-30.26-74.483-40.018-113.681-27.476c-9.834,3.147-19.358,7.674-28.26,13.66c-13.968,9.393-17.678,28.33-8.285,42.3
			c9.392,13.968,28.331,17.677,42.299,8.285c20.266-13.628,47.532-10.958,64.835,6.343c0.001,0.001,0.001,0.001,0.002,0.002
			l3.963,3.963L415.991,343.46c9.69,9.689,15.027,22.573,15.027,36.277c0,13.703-5.337,26.587-15.027,36.279
			c-9.69,9.69-22.574,15.027-36.278,15.027s-26.588-5.337-36.278-15.027l-53.179-53.179c-11.168,3.588-22.735,5.38-34.274,5.381
			c-28.963,0.002-57.724-11.172-79.435-32.884l-9.916-9.916c0.003,0.003,0.006,0.007,0.01,0.01l133.691,133.69
			C321.534,480.323,349.726,492,379.712,492s58.178-11.677,79.381-32.881c21.203-21.203,32.881-49.395,32.881-79.381
			C491.975,349.75,480.297,321.56,459.094,300.357z"/>
		<path style="fill:#D1DCEB;" d="M327.23,306.218c-9.518-13.883-28.489-17.425-42.372-7.905
			c-20.326,13.937-47.752,11.376-65.209-6.082l-133.69-133.69c-20.004-20.004-20.004-52.553,0-72.557
			c9.69-9.69,22.574-15.027,36.278-15.027s26.588,5.337,36.278,15.027l53.195,53.194c39.198-12.543,83.412-2.784,113.681,27.476
			L201.618,42.881C180.415,21.677,152.223,10,122.237,10S64.059,21.677,42.855,42.881c-43.771,43.771-43.771,114.992,0,158.762
			L166.63,325.418l9.916,9.916c21.711,21.712,50.472,32.886,79.435,32.884c11.538,0,23.105-1.793,34.274-5.381
			c10.127-3.253,19.928-7.98,29.069-14.247C333.208,339.073,336.748,320.102,327.23,306.218z"/>
	</g>
	<g>
		<path d="M208.689,35.811C185.596,12.718,154.894,0,122.237,0s-63.36,12.718-86.453,35.811
			C12.726,58.869,0.027,89.571,0.027,122.263s12.699,63.394,35.757,86.452L293.259,466.19c23.093,23.092,53.796,35.81,86.453,35.81
			s63.36-12.718,86.452-35.811c23.092-23.092,35.81-53.794,35.81-86.452c0-32.657-12.717-63.359-35.81-86.452L208.689,35.811z
			 M49.927,194.572c-19.281-19.28-29.899-44.961-29.899-72.31s10.619-53.029,29.899-72.31C69.242,30.638,94.922,20,122.237,20
			s52.995,10.638,72.311,29.953l76.476,76.476l0.038,0.02c-18.734-3.906-38.074-3.387-56.479,1.492l0.011-0.021l-49.008-49.008
			c-11.579-11.578-26.974-17.955-43.349-17.955s-31.77,6.377-43.349,17.955c-23.902,23.903-23.902,62.797,0,86.7l133.69,133.69
			c20.863,20.863,53.639,23.916,77.935,7.258c4.51-3.093,9.957-4.243,15.333-3.24c5.377,1.003,10.042,4.041,13.135,8.553
			s4.244,9.958,3.241,15.335c-1.003,5.377-4.041,10.042-8.553,13.135c-8.141,5.581-17.048,9.946-26.474,12.974
			c-10.125,3.252-20.626,4.901-31.215,4.901c-27.347,0.002-53.046-10.637-72.364-29.955L49.927,194.572z M166.866,200.717
			c6.033,8.973,15.199,15.059,25.81,17.137c10.608,2.079,21.395-0.1,30.367-6.132c16.304-10.964,38.245-8.814,52.178,5.109
			c0.002,0.002,0.004,0.005,0.006,0.007l0,0l3.964,3.964c0.003,0.003,0.006,0.006,0.01,0.009L408.92,350.532
			c7.801,7.801,12.098,18.173,12.098,29.206c0,11.032-4.297,21.406-12.098,29.208c-7.802,7.801-18.175,12.098-29.207,12.098
			c-11.033,0-21.405-4.297-29.207-12.098l-42.431-42.431c5.876-2.772,11.533-5.994,16.904-9.675
			c8.918-6.113,14.922-15.334,16.905-25.963s-0.292-21.394-6.405-30.312s-15.334-14.922-25.962-16.905
			c-10.632-1.98-21.395,0.292-30.312,6.407c-16.354,11.212-38.427,9.15-52.483-4.906L93.03,151.47
			c-16.104-16.104-16.104-42.311,0-58.415c7.802-7.802,18.174-12.098,29.207-12.098s21.405,4.296,29.207,12.098l42.431,42.43
			c-5.559,2.615-10.914,5.631-16.005,9.055C159.348,156.994,154.411,182.195,166.866,200.717z M452.022,452.047
			C432.708,471.362,407.027,482,379.712,482s-52.996-10.638-72.31-29.953l-76.353-76.353l-0.023-0.013
			c8.121,1.673,16.471,2.537,24.956,2.536c10.615,0,21.15-1.403,31.409-4.14l-0.013,0.024l48.986,48.986
			c11.58,11.578,26.975,17.955,43.349,17.955s31.769-6.377,43.349-17.956c11.579-11.58,17.956-26.976,17.956-43.35
			c0-16.375-6.377-31.771-17.956-43.349L293.334,206.66l-3.965-3.965c-20.675-20.674-53.264-23.856-77.485-7.571
			c-4.54,3.053-9.995,4.154-15.364,3.103c-5.368-1.051-10.005-4.13-13.057-8.669c-6.301-9.371-3.804-22.121,5.566-28.422
			c7.908-5.317,16.564-9.501,25.728-12.434c36.696-11.739,76.378-2.152,103.564,25.023c0.027,0.027,0.055,0.055,0.083,0.082
			l133.619,133.62c19.315,19.314,29.952,44.995,29.952,72.31C481.975,407.053,471.337,432.733,452.022,452.047z"/>
		<path d="M191.072,311.071c3.905-3.905,3.905-10.237,0-14.143l-11.998-11.998c-3.905-3.904-10.237-3.904-14.143,0
			c-3.905,3.905-3.905,10.237,0,14.143l11.998,11.998c1.953,1.952,4.512,2.929,7.071,2.929S189.12,313.023,191.072,311.071z"/>
		<path d="M77.072,182.929c-3.905-3.903-10.237-3.904-14.142,0c-3.905,3.905-3.905,10.237,0,14.143l75.999,75.999
			c1.953,1.952,4.512,2.929,7.071,2.929s5.119-0.977,7.071-2.929c3.905-3.905,3.905-10.237,0-14.143L77.072,182.929z"/>
	</g>
</g>
<g>
</g>
<g>
</g>
<g>
</g>
<g>
</g>
<g>
</g>
<g>
</g>
<g>
</g>
<g>
</g>
<g>
</g>
<g>
</g>
<g>
</g>
<g>
</g>
<g>
</g>
<g>
</g>
<g>
</g>
</svg>
