<?xml version="1.0" encoding="iso-8859-1"?>
<!-- Generator: Adobe Illustrator 19.0.0, SVG Export Plug-In . SVG Version: 6.00 Build 0)  -->
<svg version="1.1" id="Layer_1" xmlns="http://www.w3.org/2000/svg" xmlns:xlink="http://www.w3.org/1999/xlink" x="0px" y="0px"
	 viewBox="0 0 512 512" style="enable-background:new 0 0 512 512;" xml:space="preserve">
<path style="fill:#F0DCBE;" d="M95.937,176.251l0.586,312.203c0.017,8.842-7.139,16.024-15.981,16.041
	c-8.842,0.017-16.024-7.139-16.041-15.981L63.719,72.239c-0.017-8.842,7.139-16.024,15.981-16.041s16.024,7.139,16.041,15.981
	l0.045,24.018"/>
<path style="fill:#D2555A;" d="M207.695,7.926l224.126-0.421c12.087-0.023,19.839,12.843,14.171,23.519l-51.304,96.631
	l51.666,96.438c5.708,10.654-1.996,23.549-14.082,23.572l-160.083,0.3h-61.648L207.695,7.926z"/>
<polyline style="fill:#FF6464;" points="95.74,72.179 271.857,71.848 272.309,312.007 96.192,312.338 "/>
<rect x="95.958" y="72.163" transform="matrix(1 -0.0019 0.0019 1 -0.3651 0.2055)" style="fill:#D2555A;" width="24.026" height="240.16"/>
<polygon style="fill:#BE4B50;" points="207.737,7.926 207.695,7.926 207.815,71.969 271.813,71.848 "/>
<polygon style="fill:#FF6464;" points="271.857,71.848 271.813,71.848 271.857,71.892 "/>
<path d="M95.846,120.709c-0.005,0-0.01,0-0.015,0c-4.145,0.008-7.499,3.374-7.491,7.519l0.03,16.01
	c0.008,4.141,3.366,7.491,7.505,7.491c0.005,0,0.01,0,0.015,0c4.145-0.008,7.499-3.374,7.491-7.519l-0.03-16.01
	C103.343,124.06,99.985,120.709,95.846,120.709z"/>
<path d="M452.97,220.547l-49.776-92.91l49.427-93.096c3.91-7.364,3.674-16.024-0.628-23.164C447.697,4.251,440.171,0,431.854,0
	c-0.016,0-0.032,0-0.047,0L207.68,0.421c-1.99,0.004-3.898,0.799-5.303,2.208c-1.405,1.41-2.191,3.32-2.188,5.311l0.106,56.538
	l-98.288,0.184c-1.147-3.396-3.067-6.508-5.681-9.112c-4.44-4.423-10.331-6.857-16.595-6.857c-0.015,0-0.03,0-0.045,0
	c-12.967,0.024-23.496,10.593-23.472,23.56l0.783,416.275c0.024,12.953,10.568,23.473,23.516,23.472c0.014,0,0.031,0,0.045,0
	c6.28-0.012,12.181-2.47,16.615-6.919c4.434-4.45,6.869-10.36,6.857-16.64l-0.317-168.612l168.612-0.317
	c4.145-0.008,7.499-3.374,7.491-7.519l-0.106-56.538l152.579-0.287c8.337-0.016,15.867-4.298,20.142-11.454
	C456.705,236.557,456.907,227.897,452.97,220.547z M215.234,26.03l38.491,38.346l-38.419,0.072L215.234,26.03z M103.683,304.819
	l-0.242-128.582c-0.008-4.141-3.366-7.491-7.505-7.491c-0.005,0-0.01,0-0.015,0c-4.145,0.008-7.499,3.374-7.491,7.519l0.586,312.204
	c0.004,2.272-0.877,4.409-2.481,6.019s-3.737,2.499-6.009,2.503c-0.005,0-0.011,0-0.017,0c-2.266,0-4.397-0.881-6.003-2.481
	c-1.609-1.604-2.499-3.737-2.503-6.009l-0.78-416.275c-0.004-2.273,0.877-4.41,2.481-6.02c1.604-1.61,3.737-2.499,6.009-2.503
	c0.005,0,0.011,0,0.017,0c2.266,0,4.397,0.881,6.003,2.481c1.609,1.604,2.499,3.737,2.503,6.009l0.045,24.019
	c0.008,4.141,3.366,7.491,7.505,7.491c0.005,0,0.01,0,0.015,0c4.145-0.008,7.499-3.374,7.491-7.519l-0.031-16.514l104.548-0.196
	c0.002,0,0.004,0,0.006,0c0.005,0,0.01,0,0.015,0c0.002,0,0.005,0,0.007,0l56.531-0.106l0.423,225.148L103.683,304.819z
	 M439.544,236.016c-0.742,1.243-2.939,4.135-7.286,4.143l-152.579,0.287l-0.317-168.611c0-0.006-0.001-0.012-0.001-0.018
	c-0.001-0.241-0.014-0.482-0.038-0.722c-0.011-0.112-0.032-0.22-0.048-0.33c-0.019-0.132-0.035-0.264-0.061-0.395
	c-0.026-0.127-0.061-0.251-0.093-0.376c-0.028-0.112-0.053-0.224-0.087-0.334c-0.037-0.122-0.083-0.241-0.127-0.36
	c-0.04-0.111-0.077-0.223-0.122-0.332c-0.046-0.111-0.1-0.217-0.151-0.325c-0.054-0.114-0.104-0.229-0.164-0.34
	c-0.055-0.103-0.119-0.201-0.179-0.301c-0.066-0.109-0.128-0.22-0.199-0.327c-0.074-0.11-0.156-0.214-0.236-0.319
	c-0.068-0.09-0.13-0.182-0.202-0.27c-0.156-0.19-0.321-0.373-0.495-0.546c-0.001-0.001-0.002-0.003-0.004-0.004l-51.326-51.134
	l206.009-0.388c0.006,0,0.013,0,0.019,0c4.334,0,6.535,2.877,7.282,4.115c0.747,1.24,2.266,4.54,0.227,8.38l-51.303,96.63
	c-1.173,2.209-1.168,4.857,0.013,7.064l51.666,96.438C441.792,231.468,440.286,234.773,439.544,236.016z"/>
<path d="M407.387,39.572c-0.008-4.141-3.366-7.491-7.505-7.491c-0.005,0-0.01,0-0.015,0l-104.069,0.195
	c-4.145,0.008-7.499,3.374-7.491,7.519c0.008,4.141,3.366,7.491,7.505,7.491c0.005,0,0.01,0,0.015,0l104.069-0.195
	C404.041,47.083,407.394,43.717,407.387,39.572z"/>
<path d="M239.897,96.424c-0.005,0-0.01,0-0.015,0l-40.027,0.075c-4.145,0.008-7.499,3.374-7.491,7.519
	c0.008,4.141,3.366,7.491,7.505,7.491c0.005,0,0.01,0,0.015,0l40.027-0.075c4.145-0.008,7.499-3.374,7.491-7.519
	C247.393,99.775,244.035,96.424,239.897,96.424z"/>
<g>
</g>
<g>
</g>
<g>
</g>
<g>
</g>
<g>
</g>
<g>
</g>
<g>
</g>
<g>
</g>
<g>
</g>
<g>
</g>
<g>
</g>
<g>
</g>
<g>
</g>
<g>
</g>
<g>
</g>
</svg>
