<?xml version="1.0" encoding="iso-8859-1"?>
<!-- Generator: Adobe Illustrator 19.0.0, SVG Export Plug-In . SVG Version: 6.00 Build 0)  -->
<svg version="1.1" id="Layer_1" xmlns="http://www.w3.org/2000/svg" xmlns:xlink="http://www.w3.org/1999/xlink" x="0px" y="0px"
	 viewBox="0 0 511.986 511.986" style="enable-background:new 0 0 511.986 511.986;" xml:space="preserve">
<g>
	<path style="fill:#FFCE54;" d="M92.662,291.883c0,21.812-17.672,39.483-39.468,39.483c-21.805,0-39.476-17.672-39.476-39.483
		c0-21.796,17.671-39.468,39.476-39.468C74.99,252.415,92.662,270.087,92.662,291.883z"/>
	<path style="fill:#FFCE54;" d="M306.648,268.181c0,21.812-17.656,39.482-39.46,39.482c-21.804,0-39.476-17.671-39.476-39.482
		c0-21.796,17.672-39.468,39.476-39.468C288.992,228.713,306.648,246.384,306.648,268.181z"/>
	<path style="fill:#FFCE54;" d="M415.989,419.177c0,21.812-17.671,39.482-39.468,39.482c-21.812,0-39.467-17.671-39.467-39.482
		c0-21.797,17.655-39.469,39.467-39.469C398.318,379.708,415.989,397.38,415.989,419.177z"/>
</g>
<g>
	<polygon style="fill:#ED5564;" points="99.998,91.997 99.998,156.995 306.648,120.668 312.992,48.998 	"/>
	<polygon style="fill:#ED5564;" points="415.989,210.666 415.989,280.665 487.987,241.993 	"/>
</g>
<path d="M319.992,42.655L85.334,85.279v160.059c-8.914-6.719-19.992-10.688-31.999-10.688C23.875,234.65,0,258.54,0,287.992
	s23.875,53.343,53.335,53.343c29.452,0,53.326-23.891,53.326-53.343V167.37l191.987-34.874v91.498
	c-8.906-6.688-19.983-10.656-31.991-10.656c-29.452,0-53.327,23.875-53.327,53.312c0,29.468,23.875,53.342,53.327,53.342
	c29.46,0,53.335-23.874,53.335-53.342V42.655z M53.335,319.991c-17.648,0-31.999-14.359-31.999-31.999
	c0-17.655,14.351-31.999,31.999-31.999c17.64,0,31.999,14.344,31.999,31.999C85.334,305.632,70.974,319.991,53.335,319.991z
	 M106.661,103.091l191.987-34.874v42.593l-191.987,34.873V103.091z M266.657,298.648c-17.641,0-31.999-14.344-31.999-31.999
	c0-17.625,14.358-32,31.999-32c17.647,0,31.991,14.375,31.991,32C298.648,284.305,284.305,298.648,266.657,298.648z"/>
<path d="M511.986,245.431l-106.652-53.343v181.246c-8.922-6.719-20-10.688-32-10.688c-29.468,0-53.342,23.89-53.342,53.343
	c0,29.452,23.874,53.342,53.342,53.342c29.438,0,53.312-23.89,53.312-53.342V288.086L511.986,245.431z M373.334,447.988
	c-17.655,0-31.999-14.359-31.999-31.999c0-17.656,14.344-32,31.999-32c17.625,0,32,14.344,32,32
	C405.334,433.629,390.959,447.988,373.334,447.988z M426.645,226.619l37.64,18.812l-37.64,18.812L426.645,226.619L426.645,226.619z"
	/>
<g>
</g>
<g>
</g>
<g>
</g>
<g>
</g>
<g>
</g>
<g>
</g>
<g>
</g>
<g>
</g>
<g>
</g>
<g>
</g>
<g>
</g>
<g>
</g>
<g>
</g>
<g>
</g>
<g>
</g>
</svg>
