<?xml version="1.0" encoding="iso-8859-1"?>
<!-- Generator: Adobe Illustrator 19.0.0, SVG Export Plug-In . SVG Version: 6.00 Build 0)  -->
<svg version="1.1" id="Layer_1" xmlns="http://www.w3.org/2000/svg" xmlns:xlink="http://www.w3.org/1999/xlink" x="0px" y="0px"
	 viewBox="0 0 502 502" style="enable-background:new 0 0 502 502;" xml:space="preserve">
<g>
	<path style="fill:#EB5989;" d="M167.599,282.635H96.277c-39.39,0-71.322,31.932-71.322,71.322l0,0
		c0,39.39,31.932,71.322,71.322,71.322l0,0c39.39,0,71.322-31.932,71.322-71.322V282.635z"/>
	<path style="fill:#EB5989;" d="M477.046,349.356h-71.322c-39.39,0-71.322,31.932-71.322,71.322l0,0
		c0,39.39,31.932,71.322,71.322,71.322l0,0c39.39,0,71.322-31.932,71.322-71.322V349.356z"/>
	<polygon style="fill:#FFB86C;" points="477.046,150.344 477.046,76.721 167.599,10 167.599,83.623 	"/>
	<g>
		<path d="M318.01,169.002c-0.696,0-1.402-0.073-2.109-0.225l-26-5.584c-5.4-1.16-8.837-6.477-7.677-11.876
			c1.159-5.4,6.474-8.839,11.876-7.677l26,5.584c5.4,1.16,8.837,6.477,7.677,11.876C326.77,165.792,322.622,169.002,318.01,169.002z
			"/>
	</g>
	<path d="M487.046,150.344V76.721c0-4.71-3.288-8.783-7.892-9.775L169.707,0.225c-2.954-0.638-6.038,0.096-8.39,1.995
		c-2.352,1.898-3.718,4.759-3.718,7.781v73.623v189.012H96.277c-44.841,0-81.322,36.481-81.322,81.322s36.481,81.322,81.322,81.322
		s81.322-36.481,81.322-81.322V139.075l77.301,16.602c0.708,0.152,1.414,0.225,2.109,0.225c4.612,0,8.76-3.21,9.767-7.902
		c1.16-5.399-2.277-10.717-7.677-11.876l-81.5-17.504V96.01l289.446,62.408v180.938h-61.322c-44.841,0-81.322,36.481-81.322,81.322
		S360.882,502,405.723,502s81.322-36.481,81.322-81.322V150.344H487.046z M157.599,353.957c0,33.813-27.509,61.322-61.322,61.322
		s-61.322-27.509-61.322-61.322s27.509-61.322,61.322-61.322h61.322V353.957z M177.599,22.386l289.446,62.409v53.164L177.599,75.55
		V22.386z M467.046,420.678c0,33.813-27.509,61.322-61.322,61.322s-61.322-27.509-61.322-61.322s27.509-61.322,61.322-61.322h61.322
		V420.678z"/>
	<g>
		<path d="M59,365.5c-5.523,0-10-4.477-10-10c0-26.743,21.757-48.5,48.5-48.5c5.523,0,10,4.477,10,10s-4.477,10-10,10
			C81.785,327,69,339.786,69,355.5C69,361.023,64.523,365.5,59,365.5z"/>
	</g>
	<g>
		<path d="M368.5,431.5c-5.523,0-10-4.477-10-10c0-26.743,21.757-48.5,48.5-48.5c5.523,0,10,4.477,10,10s-4.477,10-10,10
			c-15.715,0-28.5,12.785-28.5,28.5C378.5,427.023,374.023,431.5,368.5,431.5z"/>
	</g>
</g>
<g>
</g>
<g>
</g>
<g>
</g>
<g>
</g>
<g>
</g>
<g>
</g>
<g>
</g>
<g>
</g>
<g>
</g>
<g>
</g>
<g>
</g>
<g>
</g>
<g>
</g>
<g>
</g>
<g>
</g>
</svg>
