<?xml version="1.0" encoding="iso-8859-1"?>
<!-- Generator: Adobe Illustrator 19.0.0, SVG Export Plug-In . SVG Version: 6.00 Build 0)  -->
<svg version="1.1" id="Layer_1" xmlns="http://www.w3.org/2000/svg" xmlns:xlink="http://www.w3.org/1999/xlink" x="0px" y="0px"
	 viewBox="0 0 512 512" style="enable-background:new 0 0 512 512;" xml:space="preserve">
<path style="fill:#1E0478;" d="M473.336,43.216c0,0-0.329,277.711-0.775,280.835c-2.819,19.736-13.028,39.26-28.734,54.966
	c-15.718,15.718-35.231,25.915-54.966,28.734c-3.712,0.529-7.354,0.799-10.902,0.799c-16.54,0-31.19-5.686-41.986-16.493
	c-13.134-13.122-18.702-31.906-15.706-52.887c2.819-19.736,13.028-39.26,28.734-54.966c15.718-15.718,35.231-25.927,54.966-28.746
	c17.492-2.49,33.445,0.987,45.874,9.809V110.835l-257.317,94.79c0,0-0.012,212.477-0.023,212.653
	c-0.07,3.019-0.305,6.097-0.752,9.222c-2.819,19.736-13.028,39.26-28.734,54.966c-15.718,15.718-35.231,25.915-54.966,28.734
	c-3.712,0.529-7.342,0.799-10.902,0.799c-16.54,0-31.178-5.698-41.986-16.493c-13.122-13.122-18.702-31.906-15.706-52.899
	c2.819-19.724,13.028-39.248,28.734-54.966c15.718-15.706,35.231-25.915,54.966-28.734c17.492-2.49,33.445,0.987,45.874,9.809
	v-245.24c0-18.021,11.372-34.326,28.288-40.552L415.174,2.664c13.251-4.887,28.076-2.972,39.66,5.098
	C466.417,15.845,473.336,29.096,473.336,43.216z M449.841,313.503v-0.329c-0.023-10.279-3.325-19.125-9.598-25.398
	c-6.297-6.297-15.178-9.598-25.504-9.598c-2.408,0-4.899,0.176-7.448,0.54c-14.731,2.115-29.533,9.95-41.68,22.097
	c-12.135,12.135-19.982,26.937-22.085,41.668c-1.927,13.486,1.292,25.187,9.057,32.963c7.765,7.765,19.466,10.984,32.952,9.057
	c14.731-2.115,29.533-9.95,41.668-22.097c12.147-12.147,19.994-26.937,22.097-41.68C449.653,318.26,449.829,315.852,449.841,313.503
	z M449.841,85.801V43.216c0-6.543-3.078-12.441-8.446-16.176c-5.357-3.747-11.959-4.593-18.091-2.338l-217.869,80.259
	c-7.718,2.855-12.91,10.291-12.91,18.514v57.116L449.841,85.801z M169.029,416.974v-0.376c-0.023-10.267-3.325-19.101-9.598-25.375
	c-6.297-6.297-15.178-9.598-25.492-9.598c-2.42,0-4.899,0.176-7.46,0.54c-14.731,2.103-29.533,9.95-41.668,22.097
	c-12.147,12.135-19.994,26.937-22.097,41.668c-1.927,13.486,1.292,25.187,9.057,32.952c7.765,7.777,19.477,10.984,32.952,9.057
	c14.731-2.103,29.533-9.95,41.68-22.085c12.135-12.147,19.982-26.949,22.085-41.68C168.841,421.709,169.017,419.312,169.029,416.974
	z"/>
<path style="fill:#94E7EF;" d="M449.841,313.174v0.329c-0.012,2.349-0.188,4.758-0.54,7.225c-2.103,14.743-9.95,29.533-22.097,41.68
	c-12.135,12.147-26.937,19.982-41.668,22.097c-13.486,1.927-25.187-1.292-32.952-9.057c-7.765-7.777-10.984-19.477-9.057-32.963
	c2.103-14.731,9.95-29.533,22.085-41.668c12.147-12.147,26.949-19.982,41.68-22.097c2.549-0.364,5.04-0.54,7.448-0.54
	c10.326,0,19.207,3.301,25.504,9.598C446.516,294.049,449.817,302.895,449.841,313.174z"/>
<path style="fill:#9B8CCC;" d="M449.841,43.216v42.585l-257.317,94.79v-57.116c0-8.223,5.192-15.659,12.91-18.514l217.869-80.259
	c6.132-2.256,12.734-1.41,18.091,2.338C446.763,30.776,449.841,36.673,449.841,43.216z"/>
<path style="fill:#94E7EF;" d="M169.029,416.599v0.376c-0.012,2.338-0.188,4.734-0.54,7.201c-2.103,14.731-9.95,29.533-22.085,41.68
	c-12.147,12.135-26.949,19.982-41.68,22.085c-13.474,1.927-25.187-1.28-32.952-9.057c-7.765-7.765-10.984-19.466-9.057-32.952
	c2.103-14.731,9.95-29.533,22.097-41.668c12.135-12.147,26.937-19.994,41.668-22.097c2.561-0.364,5.04-0.54,7.46-0.54
	c10.314,0,19.195,3.301,25.492,9.598C165.705,397.497,169.006,406.331,169.029,416.599z"/>
<g>
</g>
<g>
</g>
<g>
</g>
<g>
</g>
<g>
</g>
<g>
</g>
<g>
</g>
<g>
</g>
<g>
</g>
<g>
</g>
<g>
</g>
<g>
</g>
<g>
</g>
<g>
</g>
<g>
</g>
</svg>
