<?xml version="1.0" encoding="iso-8859-1"?>
<!-- Generator: Adobe Illustrator 19.0.0, SVG Export Plug-In . SVG Version: 6.00 Build 0)  -->
<svg version="1.1" id="Layer_1" xmlns="http://www.w3.org/2000/svg" xmlns:xlink="http://www.w3.org/1999/xlink" x="0px" y="0px"
	 viewBox="0 0 502 502" style="enable-background:new 0 0 502 502;" xml:space="preserve">
<g>
	<circle style="fill:#F77E65;" cx="93.663" cy="399.596" r="83.663"/>
	<circle style="fill:#F77E65;" cx="408.337" cy="357.14" r="83.663"/>
	<polygon style="fill:#F0EFE4;" points="177.326,61.197 492,18.741 492,88.668 177.326,131.124 	"/>
	<g>
		<path d="M492,126.119c-5.522,0-10,4.478-10,10v9.989c0,5.522,4.478,10,10,10s10-4.478,10-10v-9.989
			C502,130.597,497.522,126.119,492,126.119z"/>
		<path d="M492,181.059c-5.522,0-10,4.478-10,10V299.35c-17.163-21.83-43.804-35.875-73.663-35.875
			c-51.646,0-93.663,42.017-93.663,93.663s42.017,93.663,93.663,93.663S502,408.786,502,357.139v-166.08
			C502,185.537,497.522,181.059,492,181.059z M408.337,430.803c-40.618,0-73.663-33.045-73.663-73.663s33.045-73.663,73.663-73.663
			S482,316.521,482,357.139S448.955,430.803,408.337,430.803z"/>
		<path d="M167.327,341.807c-17.163-21.83-43.804-35.875-73.664-35.875C42.017,305.932,0,347.949,0,399.596
			s42.017,93.663,93.663,93.663s93.664-42.017,93.664-93.663v-259.73l306.01-41.287c4.961-0.669,8.663-4.904,8.663-9.91V18.741
			c0-2.886-1.246-5.63-3.419-7.529c-2.171-1.898-5.06-2.766-7.918-2.381L175.99,51.287c-4.961,0.669-8.663,4.904-8.663,9.91
			L167.327,341.807L167.327,341.807z M93.663,473.259C53.045,473.259,20,440.214,20,399.596s33.045-73.663,73.663-73.663
			s73.664,33.045,73.664,73.663S134.281,473.259,93.663,473.259z M482,79.927l-294.673,39.758V69.938L482,30.18V79.927z"/>
		<path d="M91,344.544c-28.924,0-52.456,23.531-52.456,52.456c0,5.522,4.477,10,10,10s10-4.478,10-10
			c0-17.896,14.56-32.456,32.456-32.456c5.523,0,10-4.478,10-10S96.523,344.544,91,344.544z"/>
	</g>
</g>
<g>
</g>
<g>
</g>
<g>
</g>
<g>
</g>
<g>
</g>
<g>
</g>
<g>
</g>
<g>
</g>
<g>
</g>
<g>
</g>
<g>
</g>
<g>
</g>
<g>
</g>
<g>
</g>
<g>
</g>
</svg>
