<?xml version="1.0" encoding="iso-8859-1"?>
<!-- Generator: Adobe Illustrator 19.0.0, SVG Export Plug-In . SVG Version: 6.00 Build 0)  -->
<svg version="1.1" id="Layer_1" xmlns="http://www.w3.org/2000/svg" xmlns:xlink="http://www.w3.org/1999/xlink" x="0px" y="0px"
	 viewBox="0 0 512 512" style="enable-background:new 0 0 512 512;" xml:space="preserve">
<polygon style="fill:#656D78;" points="97.008,417 90.008,467.5 110.727,498 238.008,498 391.008,503 415.008,474.656 418.992,415 
	"/>
<path style="fill:#F5F7FA;" d="M274.008,457.016c0,12.969-8.359,23.484-18.656,23.484c-10.312,0-18.656-10.516-18.656-23.484
	c0-12.984,8.344-23.5,18.656-23.5C265.648,433.516,274.008,444.031,274.008,457.016z"/>
<rect x="101.76" y="12.391" style="fill:#656D78;" width="308.25" height="43.609"/>
<rect x="90.01" y="95.33" style="fill:#4FC2E9;" width="328.98" height="319.67"/>
<polygon style="fill:#ED5564;" points="93.961,49.625 85.961,74.391 70.32,120.531 80.227,147.219 119.508,150.641 143.523,126.25 
	151.133,49.5 "/>
<polygon style="fill:#F5F7FA;" points="155.992,49.5 143.523,126.25 164.617,153.453 190.477,156.5 215.461,134.125 223.008,49.5 
	"/>
<polygon style="fill:#ED5564;" points="288.664,53.297 225.133,53.297 216.93,117.766 232.227,146.312 264.773,150.641 
	288.664,138.203 291.711,114.297 "/>
<polygon style="fill:#F5F7FA;" points="357.805,49.5 288.664,53.297 294.242,123.438 310.008,150.641 343.57,153.453 
	360.852,138.703 363.898,120.391 "/>
<polygon style="fill:#ED5564;" points="418.805,49.5 361.227,53.297 363.898,91.734 369.805,137.109 390.773,154.281 
	418.805,152.375 437.477,141.688 441.664,106.609 "/>
<path d="M288.477,458.656c0-17.656-14.328-32-32-32s-32,14.344-32,32c0,17.688,14.328,32,32,32S288.477,476.344,288.477,458.656z
	 M256.477,469.344c-5.875,0-10.672-4.797-10.672-10.688c0-5.875,4.797-10.656,10.672-10.656s10.672,4.781,10.672,10.656
	C267.148,464.547,262.352,469.344,256.477,469.344z"/>
<path d="M448.008,116.953c0-2.422-0.203-4.828-0.562-7.141l0,0l-0.266-1.438c-0.047-0.219-0.078-0.453-0.109-0.656l-19.922-48.906
	V42.656C427.148,19.094,408.039,0,384.477,0h-256c-23.562,0-42.672,19.094-42.672,42.656v13.812l-20.859,51.234
	c-0.062,0.25-0.094,0.516-0.141,0.766l-0.25,1.344l0,0c-0.359,2.312-0.562,4.719-0.562,7.141c0,16.484,8.734,30.922,21.812,38.969
	v313.422c0,23.562,19.109,42.656,42.672,42.656h256c23.562,0,42.672-19.094,42.672-42.656V155.312
	C439.695,147.156,448.008,133.031,448.008,116.953z M402.289,141.344c-7.75,0-14.859-3.562-19.516-9.781L380.086,128h43.922
	C419.977,135.906,411.758,141.344,402.289,141.344z M87.992,128h43.922l-2.688,3.562c-4.656,6.219-11.766,9.781-19.516,9.781
	C100.242,141.344,92.023,135.906,87.992,128z M105.773,64h39.328l-6.281,42.656H88.398L105.773,64z M406.227,64l17.375,42.656
	h-50.328L366.93,64H406.227z M345.352,64l6.359,42.656h-49.578L300.055,64H345.352z M278.695,64l2.094,42.656h-49.656L233.289,64
	H278.695z M209.758,106.656h-49.375L166.664,64h45.266L209.758,106.656z M205.055,128l-2.688,3.562
	c-4.656,6.219-11.766,9.781-19.516,9.781c-7.734,0-14.844-3.562-19.516-9.781L160.664,128H205.055z M278.195,128l-2.688,3.562
	c-4.656,6.219-11.766,9.781-19.5,9.781c-7.75,0-14.859-3.562-19.531-9.781L233.805,128H278.195z M351.336,128l-2.672,3.562
	c-4.672,6.219-11.781,9.781-19.516,9.781c-7.75,0-14.859-3.562-19.516-9.781L306.945,128H351.336z M128.477,21.344h256
	c11.766,0,21.328,9.562,21.328,21.312H107.148C107.148,30.906,116.711,21.344,128.477,21.344z M384.477,490.656h-128h-128
	c-11.766,0-21.328-9.562-21.328-21.312v-42.688h149.328h149.328v42.688C405.805,481.094,396.242,490.656,384.477,490.656z
	 M405.805,405.344H107.148v-242.75c0.844,0.047,1.703,0.062,2.562,0.062c14.953,0,28.234-7.172,36.578-18.281
	c8.344,11.109,21.609,18.281,36.562,18.281s28.234-7.172,36.578-18.281c8.344,11.109,21.609,18.281,36.578,18.281
	c14.953,0,28.219-7.172,36.562-18.281c8.344,11.109,21.625,18.281,36.578,18.281s28.219-7.172,36.562-18.281
	c8.344,11.109,21.625,18.281,36.578,18.281c1.188,0,2.359-0.047,3.516-0.141v242.829H405.805z"/>
<path d="M384.492,352c-2.953,0-5.609,1.188-7.547,3.125l0,0l-21.328,21.344l0,0c-1.938,1.922-3.125,4.594-3.125,7.531
	c0,5.891,4.766,10.656,10.672,10.656c2.938,0,5.609-1.188,7.531-3.125l0,0l21.344-21.312l0,0c1.922-1.938,3.125-4.609,3.125-7.562
	C395.164,356.781,390.383,352,384.492,352z"/>
<path d="M384.492,309.344c-2.953,0-5.609,1.188-7.547,3.125l-64,64c-1.922,1.922-3.125,4.594-3.125,7.531
	c0,5.891,4.781,10.656,10.672,10.656c2.938,0,5.609-1.188,7.547-3.125l64-63.984c1.922-1.922,3.125-4.609,3.125-7.547
	C395.164,314.109,390.383,309.344,384.492,309.344z"/>
<g>
</g>
<g>
</g>
<g>
</g>
<g>
</g>
<g>
</g>
<g>
</g>
<g>
</g>
<g>
</g>
<g>
</g>
<g>
</g>
<g>
</g>
<g>
</g>
<g>
</g>
<g>
</g>
<g>
</g>
</svg>
