<?xml version="1.0" encoding="iso-8859-1"?>
<!-- Generator: Adobe Illustrator 19.0.0, SVG Export Plug-In . SVG Version: 6.00 Build 0)  -->
<svg version="1.1" id="Layer_1" xmlns="http://www.w3.org/2000/svg" xmlns:xlink="http://www.w3.org/1999/xlink" x="0px" y="0px"
	 viewBox="0 0 512 512" style="enable-background:new 0 0 512 512;" xml:space="preserve">
<g transform="translate(1 1)">
	<path style="fill:#FCC309;" d="M165.4,374.467c-14.507,0-25.6-11.093-25.6-25.6v-204.8c0-14.507,11.093-25.6,25.6-25.6h136.533
		V33.133c0-13.653-11.093-25.6-25.6-25.6H54.467c-14.507,0-25.6,11.093-25.6,25.6v443.733c0,13.653,11.093,25.6,25.6,25.6h221.867
		c13.653,0,25.6-11.093,25.6-25.6v-102.4H165.4L165.4,374.467z"/>
	<path style="fill:#FFDD09;" d="M165.4,374.467c-14.507,0-25.6-11.093-25.6-25.6v-204.8c0-14.507,11.093-25.6,25.6-25.6h136.533
		V58.733H28.867V434.2h273.067v-59.733H165.4z"/>
	<path style="fill:#FFFFFF;" d="M45.933,476.867V33.133c0-13.653,11.093-25.6,25.6-25.6H54.467c-13.653,0-25.6,11.093-25.6,25.6
		v443.733c0,13.653,11.093,25.6,25.6,25.6h17.067C57.88,502.467,45.933,491.373,45.933,476.867"/>
	<path style="fill:#FFDD09;" d="M464.067,374.467H165.4c-14.507,0-25.6-11.093-25.6-25.6v-204.8c0-14.507,11.093-25.6,25.6-25.6
		h298.667c14.507,0,25.6,11.093,25.6,25.6v204.8C489.667,363.373,478.573,374.467,464.067,374.467"/>
	<polygon style="fill:#FCC309;" points="139.8,212.333 489.667,212.333 489.667,161.133 139.8,161.133 	"/>
	<path style="fill:#FD9808;" d="M464.067,118.467H447c14.507,0,25.6,11.093,25.6,25.6v204.8c0,14.507-11.093,25.6-25.6,25.6h17.067
		c14.507,0,25.6-11.093,25.6-25.6v-204.8C489.667,129.56,478.573,118.467,464.067,118.467"/>
	<polygon style="fill:#54C9FD;" points="344.6,340.333 455.533,340.333 455.533,280.6 344.6,280.6 	"/>
	<polygon style="fill:#33A9F8;" points="438.467,340.333 455.533,340.333 455.533,280.6 438.467,280.6 	"/>
	<path d="M199.533,41.667h-42.667c-5.12,0-8.533-3.413-8.533-8.533s3.413-8.533,8.533-8.533h42.667c5.12,0,8.533,3.413,8.533,8.533
		S204.653,41.667,199.533,41.667z"/>
	<path d="M131.267,41.667h-8.533c-5.12,0-8.533-3.413-8.533-8.533s3.413-8.533,8.533-8.533h8.533c5.12,0,8.533,3.413,8.533,8.533
		S136.387,41.667,131.267,41.667z"/>
	<path d="M20.333,101.4c-5.12,0-8.533-3.413-8.533-8.533v-8.533c0-5.12,3.413-8.533,8.533-8.533s8.533,3.413,8.533,8.533v8.533
		C28.867,97.987,25.453,101.4,20.333,101.4z"/>
	<path d="M20.333,135.533c-5.12,0-8.533-3.413-8.533-8.533v-8.533c0-5.12,3.413-8.533,8.533-8.533s8.533,3.413,8.533,8.533V127
		C28.867,132.12,25.453,135.533,20.333,135.533z"/>
	<path d="M20.333,169.667c-5.12,0-8.533-3.413-8.533-8.533V152.6c0-5.12,3.413-8.533,8.533-8.533s8.533,3.413,8.533,8.533v8.533
		C28.867,166.253,25.453,169.667,20.333,169.667z"/>
	<path d="M165.4,502.467c-18.773,0-34.133-15.36-34.133-34.133c0-18.773,15.36-34.133,34.133-34.133s34.133,15.36,34.133,34.133
		C199.533,487.107,184.173,502.467,165.4,502.467z M165.4,451.267c-9.387,0-17.067,7.68-17.067,17.067
		c0,9.387,7.68,17.067,17.067,17.067s17.067-7.68,17.067-17.067C182.467,458.947,174.787,451.267,165.4,451.267z"/>
	<path d="M464.067,383H165.4c-18.773,0-34.133-15.36-34.133-34.133v-204.8c0-18.773,15.36-34.133,34.133-34.133h298.667
		c18.773,0,34.133,15.36,34.133,34.133v204.8C498.2,367.64,482.84,383,464.067,383z M165.4,127c-9.387,0-17.067,7.68-17.067,17.067
		v204.8c0,9.387,7.68,17.067,17.067,17.067h298.667c9.387,0,17.067-7.68,17.067-17.067v-204.8c0-9.387-7.68-17.067-17.067-17.067
		H165.4z"/>
	<path d="M489.667,220.867H139.8c-5.12,0-8.533-3.413-8.533-8.533v-51.2c0-5.12,3.413-8.533,8.533-8.533h349.867
		c5.12,0,8.533,3.413,8.533,8.533v51.2C498.2,217.453,494.787,220.867,489.667,220.867z M148.333,203.8h332.8v-34.133h-332.8V203.8z
		"/>
	<path d="M455.533,348.867H344.6c-5.12,0-8.533-3.413-8.533-8.533V280.6c0-5.12,3.413-8.533,8.533-8.533h110.933
		c5.12,0,8.533,3.413,8.533,8.533v59.733C464.067,345.453,460.653,348.867,455.533,348.867z M353.133,331.8H447v-42.667h-93.867
		V331.8z"/>
	<path d="M216.6,263.533h-42.667c-5.12,0-8.533-3.413-8.533-8.533s3.413-8.533,8.533-8.533H216.6c5.12,0,8.533,3.413,8.533,8.533
		S221.72,263.533,216.6,263.533z"/>
	<path d="M301.08,263.533h-55.467c-5.12,0-8.533-3.413-8.533-8.533s3.413-8.533,8.533-8.533h55.467c5.12,0,8.533,3.413,8.533,8.533
		S306.2,263.533,301.08,263.533z"/>
	<path d="M258.413,297.667h-84.48c-5.12,0-8.533-3.413-8.533-8.533c0-5.12,3.413-8.533,8.533-8.533h84.48
		c5.12,0,8.533,3.413,8.533,8.533C266.947,294.253,262.68,297.667,258.413,297.667z"/>
	<path d="M301.08,297.667h-16.213c-5.12,0-8.533-3.413-8.533-8.533c0-5.12,3.413-8.533,8.533-8.533h16.213
		c5.12,0,8.533,3.413,8.533,8.533C309.613,294.253,306.2,297.667,301.08,297.667z"/>
	<path d="M310.467,442.733H20.333V50.2h290.133V127H165.4c-9.387,0-17.067,7.68-17.067,17.067v204.8
		c0,9.387,7.68,17.067,17.067,17.067h145.067V442.733z M37.4,425.667h256V383h-128c-18.773,0-34.133-15.36-34.133-34.133v-204.8
		c0-18.773,15.36-34.133,34.133-34.133h128V67.267h-256V425.667z"/>
	<path d="M276.333,511H54.467c-18.773,0-34.133-15.36-34.133-34.133V33.133C20.333,14.36,35.693-1,54.467-1h221.867
		c18.773,0,34.133,15.36,34.133,34.133V127H165.4c-9.387,0-17.067,7.68-17.067,17.067v204.8c0,9.387,7.68,17.067,17.067,17.067
		h145.067v110.933C310.467,495.64,295.107,511,276.333,511z M54.467,16.067c-9.387,0-17.067,7.68-17.067,17.067v443.733
		c0,9.387,7.68,17.067,17.067,17.067h221.867c9.387,0,17.067-7.68,17.067-17.067V383h-128c-18.773,0-34.133-15.36-34.133-34.133
		v-204.8c0-18.773,15.36-34.133,34.133-34.133h128v-76.8c0-9.387-7.68-17.067-17.067-17.067H54.467z"/>
</g>
<g>
</g>
<g>
</g>
<g>
</g>
<g>
</g>
<g>
</g>
<g>
</g>
<g>
</g>
<g>
</g>
<g>
</g>
<g>
</g>
<g>
</g>
<g>
</g>
<g>
</g>
<g>
</g>
<g>
</g>
</svg>
