<?xml version="1.0" encoding="iso-8859-1"?>
<!-- Generator: Adobe Illustrator 19.0.0, SVG Export Plug-In . SVG Version: 6.00 Build 0)  -->
<svg version="1.1" id="Layer_1" xmlns="http://www.w3.org/2000/svg" xmlns:xlink="http://www.w3.org/1999/xlink" x="0px" y="0px"
	 viewBox="0 0 512 512" style="enable-background:new 0 0 512 512;" xml:space="preserve">
<path style="fill:#FFDB6F;" d="M268.371,194.538c15.208,0,27.548,12.339,27.548,27.559s-12.339,27.559-27.548,27.559
	c-15.22,0-27.559-12.339-27.559-27.559C240.811,206.877,253.151,194.538,268.371,194.538z"/>
<polygon style="fill:#F27258;" points="269.316,331.495 320.69,382.87 58.532,382.87 58.532,352.99 174.671,236.862 "/>
<path style="fill:#31CCC9;" d="M269.316,331.495l-94.644-94.633L58.532,352.99v-199.05H393.42v210.025l-79.366-77.885
	l-43.899,44.576L269.316,331.495z M295.919,222.097c0-15.22-12.339-27.559-27.548-27.559c-15.22,0-27.559,12.339-27.559,27.559
	s12.339,27.559,27.559,27.559C283.579,249.657,295.919,237.317,295.919,222.097z"/>
<polygon style="fill:#F27258;" points="393.42,363.964 393.42,382.87 320.69,382.87 269.316,331.495 270.155,330.655 
	314.054,286.08 "/>
<g>
	<path style="fill:#E4F5F4;" d="M500.1,58.875v348.743h-59.574V118.496c0-6.438-5.225-11.663-11.663-11.663H71V58.875
		c0-6.403,5.202-11.605,11.605-11.605h405.88C494.899,47.271,500.1,52.472,500.1,58.875z"/>
	<path style="fill:#E4F5F4;" d="M440.526,407.618v47.899c0,6.45-5.225,11.663-11.663,11.663H23.089
		c-6.438,0-11.663-5.213-11.663-11.663V118.496c0-6.438,5.225-11.663,11.663-11.663H71h357.864c6.438,0,11.663,5.225,11.663,11.663
		V407.618z M393.42,382.87v-18.905V153.939H58.532v199.05v29.88H320.69H393.42z"/>
</g>
<g>
	<path style="fill:#201F2E;" d="M488.727,34.376H82.844c-12.833,0-23.273,10.441-23.273,23.273v36.295H23.326
		C10.464,93.944,0,104.408,0,117.27v337.028c0,12.862,10.464,23.326,23.326,23.326h405.778c12.862,0,23.326-10.464,23.326-23.326
		V117.27c0-12.862-10.464-23.326-23.326-23.326H82.883l-0.04-36.242l405.831-0.052v348.737c0,6.441,5.223,11.663,11.663,11.663
		S512,412.828,512,406.387V57.65C512,44.817,501.559,34.376,488.727,34.376z M429.104,117.27v337.028l-405.778,0.014
		c0,0,0-0.005,0-0.015V117.27h47.817c0.03,0,0.059,0.005,0.09,0.005c0.03,0,0.059-0.005,0.09-0.005H429.104z"/>
	<path style="fill:#201F2E;" d="M47.104,152.711v228.934c0,6.441,5.221,11.663,11.663,11.663h334.895
		c6.44,0,11.663-5.221,11.663-11.663V152.711c0-6.441-5.223-11.663-11.663-11.663H58.767
		C52.325,141.048,47.104,146.27,47.104,152.711z M381.999,369.982h-56.241l-40.049-40.049l28.585-28.586l65.944,65.935
		c0.549,0.549,1.141,1.029,1.762,1.445v1.255H381.999z M70.43,164.374h311.569v171.684l-59.46-59.452
		c-4.553-4.553-11.937-4.553-16.494,0l-36.831,36.831l-86.056-86.056c-4.554-4.554-11.938-4.553-16.494,0L70.43,323.61
		C70.43,323.61,70.43,164.374,70.43,164.374z M70.43,356.597L174.91,252.124l117.858,117.858H70.43V356.597z"/>
	<path style="fill:#201F2E;" d="M268.604,260.089c21.624,0,39.218-17.593,39.218-39.218s-17.593-39.216-39.218-39.216
		c-21.624,0-39.216,17.592-39.216,39.216C229.387,242.496,246.98,260.089,268.604,260.089z M268.604,204.98
		c8.763,0,15.892,7.128,15.892,15.891c0,8.763-7.128,15.892-15.892,15.892c-8.762,0-15.891-7.13-15.891-15.892
		C252.712,212.108,259.842,204.98,268.604,204.98z"/>
</g>
<g>
</g>
<g>
</g>
<g>
</g>
<g>
</g>
<g>
</g>
<g>
</g>
<g>
</g>
<g>
</g>
<g>
</g>
<g>
</g>
<g>
</g>
<g>
</g>
<g>
</g>
<g>
</g>
<g>
</g>
</svg>
