<?xml version="1.0" encoding="iso-8859-1"?>
<!-- Generator: Adobe Illustrator 19.0.0, SVG Export Plug-In . SVG Version: 6.00 Build 0)  -->
<svg version="1.1" id="Layer_1" xmlns="http://www.w3.org/2000/svg" xmlns:xlink="http://www.w3.org/1999/xlink" x="0px" y="0px"
	 viewBox="0 0 512 512" style="enable-background:new 0 0 512 512;" xml:space="preserve">
<g>
	<path style="fill:#2D527C;" d="M346.9,449.638h-92.314c-7.811,0-14.143-6.332-14.143-14.143c0-7.811,6.332-14.143,14.143-14.143
		H346.9c7.81,0,14.143,6.332,14.143,14.143C361.043,443.306,354.71,449.638,346.9,449.638z"/>
	<path style="fill:#2D527C;" d="M165.126,449.64c-6.997,0-13.077-5.189-14.006-12.314l-25.239-193.377
		c-12.372-80.837,18.586-162.352,80.816-212.773c23.082-18.702,41.741-29.003,42.523-29.433c4.274-2.344,9.45-2.321,13.705,0.057
		c0.836,0.468,20.745,11.678,44.89,31.777c60.531,50.385,90.522,131.182,78.27,210.858c-1.187,7.721-8.419,13.016-16.127,11.829
		c-7.721-1.187-13.017-8.408-11.829-16.129c10.753-69.925-15.46-140.744-68.408-184.819c-13.93-11.595-26.419-20.02-33.76-24.671
		c-6.94,4.329-18.471,11.988-31.456,22.509c-54.488,44.148-81.555,115.673-70.64,186.66c0.017,0.106,0.031,0.212,0.045,0.32
		l25.258,193.532c1.011,7.745-4.449,14.843-12.194,15.854C166.354,449.6,165.736,449.64,165.126,449.64z"/>
</g>
<path style="fill:#CEE8FA;" d="M165.145,435.495l-16.092-123.309l-34.987,35.811c-15.826,16.198-24.687,37.946-24.687,60.594v76.403
	l76-49.498H165.145z"/>
<path style="fill:#2D527C;" d="M89.377,499.137c-2.314,0-4.632-0.567-6.739-1.708c-4.563-2.474-7.403-7.246-7.403-12.435v-76.403
	c0-26.496,10.197-51.525,28.713-70.477l34.987-35.811c3.786-3.875,9.453-5.247,14.592-3.533c5.14,1.714,8.848,6.215,9.548,11.586
	l15.767,120.818c0.031,0.098,0.061,0.195,0.091,0.294c1.782,6.002-0.594,12.462-5.84,15.877l-75.998,49.498
	C94.757,498.369,92.07,499.137,89.377,499.137z M138.799,342.919l-14.618,14.962c-13.323,13.637-20.659,31.645-20.659,50.709v50.313
	l46.466-30.262L138.799,342.919z"/>
<path style="fill:#CEE8FA;" d="M397.934,347.998l-34.952-35.774l-16.084,123.272h-0.277l76,49.498v-76.403
	C422.621,385.944,413.761,364.196,397.934,347.998z"/>
<path style="fill:#2D527C;" d="M422.623,499.137c-2.694,0-5.381-0.768-7.721-2.293l-75.998-49.498
	c-5.246-3.417-7.622-9.875-5.838-15.877c0.051-0.175,0.106-0.349,0.165-0.522l15.727-120.554c0.7-5.373,4.408-9.872,9.548-11.586
	c5.14-1.716,10.808-0.344,14.591,3.533l34.952,35.774c18.518,18.952,28.715,43.981,28.715,70.477v76.403
	c0,5.189-2.841,9.961-7.403,12.435C427.253,498.569,424.934,499.137,422.623,499.137z M362.055,428.667l46.424,30.235v-50.313
	c0-19.064-7.337-37.074-20.659-50.709l-14.583-14.925L362.055,428.667z"/>
<polygon style="fill:#CEE8FA;" points="255.999,497.858 216.226,435.495 255.999,373.134 295.773,435.495 "/>
<path style="fill:#2D527C;" d="M255.999,512c-4.831,0-9.327-2.465-11.924-6.538L204.302,443.1c-2.959-4.639-2.959-10.572,0-15.211
	l39.773-62.361c2.597-4.072,7.094-6.538,11.924-6.538c4.83,0,9.327,2.465,11.926,6.538l39.773,62.361
	c2.957,4.639,2.957,10.572,0,15.211l-39.773,62.362C265.327,509.535,260.829,512,255.999,512z M233.001,435.495l22.998,36.061
	l23-36.061l-23-36.061L233.001,435.495z"/>
<circle style="fill:#CEE8FA;" cx="256.005" cy="241.268" r="47.139"/>
<g>
	<path style="fill:#2D527C;" d="M255.999,302.552c-33.794,0-61.287-27.493-61.287-61.287s27.493-61.287,61.287-61.287
		s61.287,27.493,61.287,61.287S289.793,302.552,255.999,302.552z M255.999,208.265c-18.197,0-33,14.804-33,33
		c0,18.197,14.804,33,33,33s33-14.804,33-33C288.999,223.069,274.196,208.265,255.999,208.265z"/>
	<path style="fill:#2D527C;" d="M255.999,142.263h-99.004c-7.811,0-14.143-6.332-14.143-14.143s6.332-14.143,14.143-14.143h99.004
		c7.81,0,14.143,6.332,14.143,14.143S263.81,142.263,255.999,142.263z"/>
	<path style="fill:#2D527C;" d="M353.761,142.263H310.45c-7.81,0-14.143-6.332-14.143-14.143s6.333-14.143,14.143-14.143h43.311
		c7.81,0,14.143,6.332,14.143,14.143S361.572,142.263,353.761,142.263z"/>
</g>
<g>
</g>
<g>
</g>
<g>
</g>
<g>
</g>
<g>
</g>
<g>
</g>
<g>
</g>
<g>
</g>
<g>
</g>
<g>
</g>
<g>
</g>
<g>
</g>
<g>
</g>
<g>
</g>
<g>
</g>
</svg>
