<?xml version="1.0" encoding="iso-8859-1"?>
<!-- Generator: Adobe Illustrator 19.0.0, SVG Export Plug-In . SVG Version: 6.00 Build 0)  -->
<svg version="1.1" id="Layer_1" xmlns="http://www.w3.org/2000/svg" xmlns:xlink="http://www.w3.org/1999/xlink" x="0px" y="0px"
	 viewBox="0 0 512 512" style="enable-background:new 0 0 512 512;" xml:space="preserve">
<polygon style="fill:#CEE8FA;" points="334.221,378.497 256,442.533 177.779,378.497 229.242,149.047 282.758,149.047 "/>
<g>
	<path style="fill:#2D527C;" d="M256,457.971c-3.467,0-6.934-1.164-9.778-3.492l-78.221-64.034
		c-4.517-3.699-6.561-9.628-5.284-15.325l51.464-229.452c1.581-7.049,7.839-12.06,15.062-12.06h53.515
		c7.225,0,13.482,5.009,15.062,12.06l51.464,229.452c1.278,5.695-0.767,11.626-5.284,15.325l-78.221,64.034
		C262.934,456.807,259.467,457.971,256,457.971z M194.925,372.586L256,422.583l61.075-49.997L270.4,164.484h-28.798L194.925,372.586
		z"/>
	<path style="fill:#2D527C;" d="M165.277,191.22c-10.817,0-20.803-5.868-26.061-15.311L97.001,100.09
		c-1.28-2.296-1.95-4.881-1.95-7.509v-54.3C95.051,17.173,112.225,0,133.337,0c6.783,0,13.505,1.856,19.437,5.366l100.422,59.417
		c3.768,2.229,6.414,5.956,7.274,10.252c0.861,4.293-0.142,8.751-2.76,12.262l-68.55,91.931
		C183.478,186.848,174.773,191.22,165.277,191.22z M125.926,88.572l39.466,70.882l57.301-76.844l-85.641-50.673
		c-1.192-0.705-2.442-1.062-3.714-1.062c-3.564,0-7.412,2.831-7.412,7.407V88.572z"/>
	<path style="fill:#2D527C;" d="M346.726,191.22c-0.002,0-0.002,0-0.003,0c-9.494-0.002-18.199-4.372-23.882-11.993l-68.55-91.931
		c-2.618-3.51-3.622-7.969-2.76-12.262c0.861-4.295,3.506-8.02,7.274-10.252L359.227,5.363C365.159,1.854,371.879,0,378.663,0
		c21.111,0,38.286,17.173,38.286,38.282v54.3c0,2.627-0.672,5.213-1.95,7.509l-42.215,75.819
		C367.528,185.352,357.541,191.22,346.726,191.22z M289.308,82.61l57.301,76.844l39.466-70.882v-50.29
		c0-4.576-3.847-7.407-7.411-7.407c-1.274,0-2.524,0.357-3.714,1.062L289.308,82.61z"/>
</g>
<polygon style="fill:#CEE8FA;" points="266.667,78.068 245.334,78.068 199.204,139.934 209.824,172.366 302.176,172.366 
	312.796,139.932 "/>
<g>
	<path style="fill:#2D527C;" d="M302.176,187.804h-92.351c-6.675,0-12.594-4.29-14.67-10.635l-10.619-32.434
		c-1.562-4.772-0.707-10.005,2.296-14.031l46.13-61.864c2.913-3.907,7.501-6.209,12.376-6.209h21.333
		c4.874,0,9.462,2.302,12.376,6.209l46.129,61.864c3.001,4.025,3.858,9.259,2.296,14.031l-10.619,32.434
		C314.77,183.514,308.85,187.804,302.176,187.804z M221.013,156.929h69.973l4.647-14.189l-36.712-49.235h-5.842l-36.712,49.235
		L221.013,156.929z"/>
	<path style="fill:#2D527C;" d="M408.359,512h-74.138c-8.526,0-15.437-6.913-15.437-15.437s6.911-15.437,15.437-15.437h74.138
		c26.841,0,48.679-21.838,48.679-48.679V183.031c0-8.247-3.211-15.998-9.043-21.83c-6.028-6.028-6.028-15.803,0-21.833
		c6.028-6.027,15.803-6.027,21.833,0c11.663,11.663,18.085,27.17,18.085,43.662v249.414C487.913,476.312,452.225,512,408.359,512z"
		/>
	<path style="fill:#2D527C;" d="M240.563,512H103.641c-43.867,0-79.554-35.688-79.554-79.554V183.031
		c0-16.493,6.422-31.999,18.085-43.66l55.431-55.433c6.028-6.027,15.803-6.027,21.833,0c6.028,6.028,6.028,15.803,0,21.833
		l-55.433,55.431c-5.831,5.831-9.042,13.583-9.042,21.83v249.414c0,26.843,21.838,48.679,48.679,48.679h136.921
		c8.526,0,15.437,6.913,15.437,15.437S249.089,512,240.563,512z"/>
</g>
<g>
</g>
<g>
</g>
<g>
</g>
<g>
</g>
<g>
</g>
<g>
</g>
<g>
</g>
<g>
</g>
<g>
</g>
<g>
</g>
<g>
</g>
<g>
</g>
<g>
</g>
<g>
</g>
<g>
</g>
</svg>
