<?xml version="1.0" encoding="iso-8859-1"?>
<!-- Generator: Adobe Illustrator 19.0.0, SVG Export Plug-In . SVG Version: 6.00 Build 0)  -->
<svg version="1.1" id="Layer_1" xmlns="http://www.w3.org/2000/svg" xmlns:xlink="http://www.w3.org/1999/xlink" x="0px" y="0px"
	 viewBox="0 0 512 512" style="enable-background:new 0 0 512 512;" xml:space="preserve">
<path style="fill:#F1F4FB;" d="M119.182,461.228H16.568c-4.722,0-8.551-3.829-8.551-8.551V59.324c0-4.722,3.829-8.551,8.551-8.551
	h102.614V461.228z"/>
<path style="fill:#D5DCED;" d="M93.528,50.772v154.503C64.531,208.84,42.221,230.158,42.221,256
	c0,25.842,22.31,47.159,51.307,50.724v154.503h25.653V305.154v-98.308V50.772H93.528z"/>
<g>
	<path style="fill:#5B5D6E;" d="M367.165,8.017h-222.33c-14.168,0-25.653,11.485-25.653,25.653v42.756h273.637V33.67
		C392.818,19.502,381.333,8.017,367.165,8.017z"/>
	<path style="fill:#5B5D6E;" d="M144.835,503.983h222.33c14.168,0,25.653-11.485,25.653-25.653v-42.756H119.182v42.756
		C119.182,492.498,130.667,503.983,144.835,503.983z"/>
</g>
<rect x="119.182" y="76.426" style="fill:#E4EAF8;" width="273.637" height="25.653"/>
<path style="fill:#00C3FF;" d="M478.33,367.165H187.591c-14.168,0-25.653-11.485-25.653-25.653V170.489
	c0-14.168,11.485-25.653,25.653-25.653H478.33c14.168,0,25.653,11.485,25.653,25.653v171.023
	C503.983,355.68,492.498,367.165,478.33,367.165z"/>
<path style="fill:#FFDC64;" d="M256,230.347h-34.205c-4.722,0-8.551-3.829-8.551-8.551v-17.102c0-4.722,3.829-8.551,8.551-8.551H256
	c4.722,0,8.551,3.829,8.551,8.551v17.102C264.551,226.518,260.722,230.347,256,230.347z"/>
<circle style="fill:#FF5050;" cx="401.37" cy="204.693" r="25.653"/>
<circle style="fill:#FFDC64;" cx="444.125" cy="204.693" r="25.653"/>
<g>
	<circle style="fill:#8CE16E;" cx="102.079" cy="153.386" r="17.102"/>
	<circle style="fill:#8CE16E;" cx="102.079" cy="358.614" r="17.102"/>
</g>
<path d="M273.102,461.762h-34.205c-4.427,0-8.017,3.589-8.017,8.017s3.589,8.017,8.017,8.017h34.205
	c4.427,0,8.017-3.589,8.017-8.017S277.53,461.762,273.102,461.762z"/>
<path d="M238.898,50.238h34.205c4.427,0,8.017-3.589,8.017-8.017s-3.589-8.017-8.017-8.017h-34.205
	c-4.427,0-8.017,3.589-8.017,8.017S234.47,50.238,238.898,50.238z"/>
<path d="M213.244,50.238h0.086c4.427,0,7.974-3.589,7.974-8.017s-3.632-8.017-8.059-8.017s-8.017,3.589-8.017,8.017
	S208.817,50.238,213.244,50.238z"/>
<path d="M478.33,136.818h-77.495V33.67c0-18.566-15.105-33.67-33.67-33.67h-222.33c-18.566,0-33.67,15.105-33.67,33.67v9.086H16.568
	C7.432,42.756,0,50.188,0,59.324v393.353c0,9.136,7.432,16.568,16.568,16.568h94.597v9.086c0,18.566,15.105,33.67,33.67,33.67
	h222.33c18.566,0,33.67-15.105,33.67-33.67V375.182h77.495c18.566,0,33.67-15.105,33.67-33.67V170.489
	C512,151.923,496.895,136.818,478.33,136.818z M127.198,33.67c0-9.725,7.912-17.637,17.637-17.637h222.33
	c9.725,0,17.637,7.912,17.637,17.637v34.739H127.198V33.67z M50.238,294.233c12.46,12.885,31.071,21.09,51.841,21.09
	c3.051,0,6.084-0.183,9.086-0.533v20.413c-2.82-1.098-5.882-1.707-9.086-1.707c-13.851-0.001-25.119,11.267-25.119,25.118
	c0,13.851,11.268,25.119,25.119,25.119c3.203,0,6.266-0.609,9.086-1.707v36.98H83.679c-3.255-16.863-16.579-30.187-33.441-33.441
	C50.238,385.565,50.238,294.233,50.238,294.233z M111.165,129.974c-2.82-1.098-5.882-1.707-9.086-1.707
	c-13.851,0-25.119,11.268-25.119,25.119c0,13.851,11.268,25.119,25.119,25.119c3.203,0,6.266-0.609,9.086-1.707v20.413
	c-3.001-0.351-6.035-0.533-9.086-0.533c-20.771,0-39.381,8.205-51.841,21.09v-91.333c16.863-3.255,30.187-16.579,33.441-33.441
	h27.486V129.974z M111.165,153.386c0,5.01-4.076,9.086-9.086,9.086c-5.01,0-9.086-4.076-9.086-9.086c0-5.01,4.076-9.086,9.086-9.086
	C107.089,144.301,111.165,148.376,111.165,153.386z M102.079,212.71c3.065,0,6.098,0.25,9.086,0.693v18.189
	c-10.8,3.032-14.579,15.11-16.738,22.017c-3.513,11.244-5.355,11.471-6.696,11.477c-0.948-0.397-3.289-3.651-3.289-9.086
	c0-5.524,2.383-8.749,3.331-9.102c4.149-1.543,6.263-6.159,4.72-10.308c-1.542-4.149-6.158-6.264-10.308-4.72
	c-6.211,2.31-10.882,8.39-12.807,16.113h-1.503c-4.427,0-8.017,3.589-8.017,8.017s3.589,8.017,8.017,8.017h1.504
	c2.509,10.037,9.639,17.102,18.271,17.102c14.979,0,19.599-14.785,22.082-22.728c0.513-1.641,0.989-3.04,1.433-4.245v44.451
	c-2.988,0.443-6.021,0.693-9.086,0.693C73.494,299.29,50.238,279.871,50.238,256S73.494,212.71,102.079,212.71z M111.165,358.614
	c0,5.01-4.076,9.086-9.086,9.086c-5.01,0-9.086-4.076-9.086-9.086s4.076-9.086,9.086-9.086
	C107.089,349.528,111.165,353.604,111.165,358.614z M16.568,453.211c-0.295,0-0.534-0.239-0.534-0.534V59.324
	c0-0.295,0.239-0.534,0.534-0.534h94.597V76.96H76.426c-4.427,0-8.017,3.589-8.017,8.017c0,14.44-11.748,26.188-26.188,26.188
	c-4.427,0-8.017,3.589-8.017,8.017v273.637c0,4.427,3.589,8.017,8.017,8.017c14.44,0,26.188,11.748,26.188,26.188
	c0,4.427,3.589,8.017,8.017,8.017h34.739v18.171H16.568z M367.165,495.967h-222.33c-9.725,0-17.637-7.912-17.637-17.637v-34.739
	h257.603v34.739C384.802,488.055,376.89,495.967,367.165,495.967z M384.802,427.557H127.198V84.443h257.603v52.376H187.591
	c-18.566,0-33.67,15.105-33.67,33.67v171.023c0,18.566,15.105,33.67,33.67,33.67h197.211V427.557z M495.967,341.511
	c0,9.725-7.912,17.637-17.637,17.637H187.591c-9.725,0-17.637-7.912-17.637-17.637V170.489c0-9.725,7.912-17.637,17.637-17.637
	h205.186c0.014,0,0.028,0.002,0.042,0.002c0.014,0,0.028-0.002,0.042-0.002h85.47c9.725,0,17.637,7.912,17.637,17.637V341.511z"/>
<path d="M323.875,264.551c0-4.427-3.589-8.017-8.017-8.017h-34.205c-4.427,0-8.017,3.589-8.017,8.017
	c0,4.427,3.589,8.017,8.017,8.017h34.205C320.285,272.568,323.875,268.979,323.875,264.551z"/>
<path d="M213.244,272.568h34.205c4.427,0,8.017-3.589,8.017-8.017c0-4.427-3.589-8.017-8.017-8.017h-34.205
	c-4.427,0-8.017,3.589-8.017,8.017C205.228,268.979,208.817,272.568,213.244,272.568z"/>
<path d="M350.063,290.739H332.96c-4.427,0-8.017,3.589-8.017,8.017c0,4.427,3.589,8.017,8.017,8.017h17.102
	c4.427,0,8.017-3.589,8.017-8.017C358.079,294.328,354.49,290.739,350.063,290.739z"/>
<path d="M264.551,324.944h-51.307c-4.427,0-8.017,3.589-8.017,8.017c0,4.427,3.589,8.017,8.017,8.017h51.307
	c4.427,0,8.017-3.589,8.017-8.017C272.568,328.533,268.979,324.944,264.551,324.944z"/>
<path d="M324.409,324.944h-25.653c-4.427,0-8.017,3.589-8.017,8.017c0,4.427,3.589,8.017,8.017,8.017h25.653
	c4.427,0,8.017-3.589,8.017-8.017C332.426,328.533,328.837,324.944,324.409,324.944z"/>
<path d="M401.37,290.739h-17.102c-4.427,0-8.017,3.589-8.017,8.017c0,4.427,3.589,8.017,8.017,8.017h17.102
	c4.427,0,8.017-3.589,8.017-8.017C409.386,294.328,405.797,290.739,401.37,290.739z"/>
<path d="M452.676,256.534h-34.205c-4.427,0-8.017,3.589-8.017,8.017c0,4.427,3.589,8.017,8.017,8.017h34.205
	c4.427,0,8.017-3.589,8.017-8.017C460.693,260.124,457.104,256.534,452.676,256.534z"/>
<path d="M350.063,272.568h34.205c4.427,0,8.017-3.589,8.017-8.017c0-4.427-3.589-8.017-8.017-8.017h-34.205
	c-4.427,0-8.017,3.589-8.017,8.017C342.046,268.979,345.635,272.568,350.063,272.568z"/>
<path d="M256,188.125h-34.205c-9.136,0-16.568,7.432-16.568,16.568v17.102c0,9.136,7.432,16.568,16.568,16.568H256
	c9.136,0,16.568-7.432,16.568-16.568v-17.102C272.568,195.557,265.136,188.125,256,188.125z M256.534,221.795
	c0,0.295-0.239,0.534-0.534,0.534h-34.205c-0.295,0-0.534-0.239-0.534-0.534v-17.102c0-0.295,0.239-0.534,0.534-0.534H256
	c0.295,0,0.534,0.239,0.534,0.534V221.795z"/>
<path d="M444.125,171.023c-8.11,0-15.559,2.883-21.378,7.677c-5.819-4.794-13.268-7.677-21.378-7.677
	c-18.566,0-33.67,15.105-33.67,33.67s15.105,33.67,33.67,33.67c8.11,0,15.559-2.883,21.378-7.677
	c5.819,4.794,13.268,7.677,21.378,7.677c18.566,0,33.67-15.105,33.67-33.67S462.691,171.023,444.125,171.023z M383.733,204.693
	c0-9.725,7.912-17.637,17.637-17.637c4.514,0,8.624,1.719,11.747,4.518c-1.712,4.034-2.662,8.467-2.662,13.119
	s0.948,9.085,2.662,13.119c-3.123,2.799-7.233,4.518-11.747,4.518C391.645,222.33,383.733,214.418,383.733,204.693z M444.125,222.33
	c-4.514,0-8.624-1.719-11.747-4.518c1.712-4.034,2.662-8.467,2.662-13.119s-0.948-9.085-2.662-13.119
	c3.122-2.799,7.233-4.518,11.747-4.518c9.725,0,17.637,7.912,17.637,17.637S453.85,222.33,444.125,222.33z"/>
<path d="M42.221,418.964c-4.427,0-8.059,3.632-8.059,8.059c0,4.427,3.632,8.059,8.059,8.059s8.059-3.632,8.059-8.059
	C50.281,422.596,46.649,418.964,42.221,418.964z"/>
<path d="M42.221,92.994c4.427,0,8.059-3.632,8.059-8.059s-3.632-8.059-8.059-8.059s-8.059,3.632-8.059,8.059
	S37.794,92.994,42.221,92.994z"/>
<g>
</g>
<g>
</g>
<g>
</g>
<g>
</g>
<g>
</g>
<g>
</g>
<g>
</g>
<g>
</g>
<g>
</g>
<g>
</g>
<g>
</g>
<g>
</g>
<g>
</g>
<g>
</g>
<g>
</g>
</svg>
