<?xml version="1.0" encoding="UTF-8" ?>
<!DOCTYPE svg PUBLIC "-//W3C//DTD SVG 1.1//EN" "http://www.w3.org/Graphics/SVG/1.1/DTD/svg11.dtd">
<svg width="512pt" height="512pt" viewBox="0 0 512 512" version="1.1" xmlns="http://www.w3.org/2000/svg">
<g id="#212121ff">
<path fill="#212121" opacity="1.00" d=" M 233.45 21.76 C 256.83 19.57 280.55 20.77 303.56 25.45 C 320.70 28.90 337.29 34.70 353.28 41.73 C 403.71 64.59 445.53 105.83 468.96 156.02 C 478.04 175.93 485.02 196.91 488.24 218.60 C 494.99 262.65 489.89 308.80 471.63 349.61 C 449.65 400.79 408.54 443.32 358.42 467.51 C 338.74 476.81 317.97 483.99 296.44 487.49 C 253.56 494.60 208.48 490.63 168.21 473.88 C 108.58 450.28 59.80 400.85 36.92 340.94 C 24.07 308.76 19.15 273.62 21.54 239.11 C 25.00 186.10 47.52 134.59 83.83 95.84 C 91.81 86.81 101.03 78.97 110.29 71.29 C 128.87 56.86 149.34 44.69 171.44 36.48 C 191.27 28.65 212.21 23.67 233.45 21.76 M 324.02 123.62 C 289.74 129.47 258.11 147.16 233.49 171.48 C 216.88 187.79 202.57 206.77 193.16 228.15 C 190.06 235.02 187.92 242.78 189.87 250.29 C 191.96 256.79 197.23 261.90 203.40 264.64 C 209.37 267.43 217.11 267.90 222.43 263.47 C 253.18 241.39 284.12 219.33 317.61 201.55 C 334.23 192.41 351.99 184.55 370.94 182.03 C 383.46 180.41 397.33 182.11 407.16 190.71 C 401.68 172.80 392.99 155.58 380.37 141.62 C 370.05 130.31 355.65 121.79 340.00 121.75 C 334.65 122.13 329.35 123.05 324.02 123.62 M 293.28 248.31 C 288.61 251.21 284.29 254.63 279.77 257.75 C 251.34 278.24 222.20 297.92 191.05 314.06 C 174.25 322.90 156.10 330.23 136.96 331.40 C 126.30 332.11 115.55 329.24 106.82 323.05 C 112.50 341.66 121.77 359.56 135.44 373.56 C 145.09 383.38 158.07 390.63 172.04 391.21 C 201.58 389.84 230.25 379.17 254.59 362.59 C 280.79 344.35 302.94 319.93 317.42 291.40 C 320.92 284.04 324.86 276.34 324.63 267.97 C 324.44 259.08 317.64 251.57 309.74 248.24 C 304.60 246.11 298.22 245.17 293.28 248.31 Z" />
</g>
<g id="#9300d2ff">
<path fill="#9300d2" opacity="1.00" d=" M 324.02 123.62 C 329.35 123.05 334.65 122.13 340.00 121.75 C 355.65 121.79 370.05 130.31 380.37 141.62 C 392.99 155.58 401.68 172.80 407.16 190.71 C 397.33 182.11 383.46 180.41 370.94 182.03 C 351.99 184.55 334.23 192.41 317.61 201.55 C 284.12 219.33 253.18 241.39 222.43 263.47 C 217.11 267.90 209.37 267.43 203.40 264.64 C 197.23 261.90 191.96 256.79 189.87 250.29 C 187.92 242.78 190.06 235.02 193.16 228.15 C 202.57 206.77 216.88 187.79 233.49 171.48 C 258.11 147.16 289.74 129.47 324.02 123.62 Z" />
<path fill="#9300d2" opacity="1.00" d=" M 293.28 248.31 C 298.22 245.17 304.60 246.11 309.74 248.24 C 317.64 251.57 324.44 259.08 324.63 267.97 C 324.86 276.34 320.92 284.04 317.42 291.40 C 302.94 319.93 280.79 344.35 254.59 362.59 C 230.25 379.17 201.58 389.84 172.04 391.21 C 158.07 390.63 145.09 383.38 135.44 373.56 C 121.77 359.56 112.50 341.66 106.82 323.05 C 115.55 329.24 126.30 332.11 136.96 331.40 C 156.10 330.23 174.25 322.90 191.05 314.06 C 222.20 297.92 251.34 278.24 279.77 257.75 C 284.29 254.63 288.61 251.21 293.28 248.31 Z" />
</g>
</svg>
