<?xml version="1.0" encoding="iso-8859-1"?>
<!-- Generator: Adobe Illustrator 19.0.0, SVG Export Plug-In . SVG Version: 6.00 Build 0)  -->
<svg version="1.1" id="Layer_1" xmlns="http://www.w3.org/2000/svg" xmlns:xlink="http://www.w3.org/1999/xlink" x="0px" y="0px"
	 viewBox="0 0 512 512" style="enable-background:new 0 0 512 512;" xml:space="preserve">
<g transform="translate(1 1)">
	<g>
		<path style="fill:#FFE100;" d="M408.6,367.64c-2.56,0-5.12-0.853-6.827-3.413c-2.56-3.413-2.56-9.387,1.707-11.947
			c46.933-34.987,73.387-89.6,73.387-148.48c0-103.253-84.48-187.733-187.733-187.733c-38.4,0-74.24,11.093-105.813,32.427
			c-4.267,2.56-9.387,1.707-11.947-2.56s-1.707-9.387,2.56-11.947C208.067,10.947,247.32-1,289.133-1
			c112.64,0,204.8,92.16,204.8,204.8c0,64-29.013,123.733-80.213,162.133C412.013,367.64,410.307,367.64,408.6,367.64z"/>
		<path style="fill:#FFE100;" d="M169.667,367.64c-1.707,0-3.413-0.853-5.12-1.707c-51.2-38.4-80.213-98.133-80.213-162.133
			c0-5.12,3.413-8.533,8.533-8.533s8.533,3.413,8.533,8.533c0,58.88,26.453,113.493,73.387,149.333
			c3.413,2.56,4.267,8.533,1.707,11.947C174.787,366.787,172.227,367.64,169.667,367.64z"/>
		<path style="fill:#FFE100;" d="M118.467,75.8c-5.12,0-8.533-3.413-8.533-8.533V50.2c0-18.773-15.36-34.133-34.133-34.133
			S41.667,31.427,41.667,50.2v17.067c0,5.12-3.413,8.533-8.533,8.533S24.6,72.387,24.6,67.267V50.2C24.6,22.04,47.64-1,75.8-1
			S127,22.04,127,50.2v17.067C127,72.387,123.587,75.8,118.467,75.8z"/>
		<polygon style="fill:#FFE100;" points="16.067,169.667 152.6,169.667 152.6,67.267 16.067,67.267 		"/>
	</g>
	<path style="fill:#FFA800;" d="M99.693,135.533h-30.72c-0.853,0-1.707-0.853-1.707-1.707v-31.573c0,0,0.853-0.853,1.707-0.853
		h31.573c0.853,0,1.707,0.853,1.707,1.707v31.573C101.4,134.68,100.547,135.533,99.693,135.533"/>
	<g>
		<path style="fill:#FFE100;" d="M336.067,76.653c-4.267,0.853-8.533,0.853-12.8,1.707c53.76,11.947,93.867,59.733,93.867,116.907
			V383c0,57.173-40.107,104.96-93.867,116.907c4.267,0.853,8.533,1.707,12.8,1.707C395.8,495.64,442.733,444.44,442.733,383V195.267
			C442.733,133.827,395.8,82.627,336.067,76.653"/>
		<path style="fill:#FFE100;" d="M323.267,502.467L323.267,502.467C257.56,502.467,203.8,448.707,203.8,383V195.267
			C203.8,129.56,257.56,75.8,323.267,75.8c5.973,0-40.107,0-34.133,0.853c58.027,8.533,102.4,58.027,102.4,118.613V383
			c0,60.587-44.373,110.08-102.4,118.613C283.16,502.467,329.24,502.467,323.267,502.467"/>
	</g>
	<path style="fill:#FFA800;" d="M310.467,76.653c-4.267,0.853-8.533,0.853-12.8,1.707c53.76,11.947,93.867,59.733,93.867,116.907
		V383c0,57.173-40.107,104.96-93.867,116.907c4.267,0.853,8.533,1.707,12.8,1.707C370.2,495.64,417.133,444.44,417.133,383V195.267
		C417.133,133.827,370.2,82.627,310.467,76.653"/>
	<path style="fill:#FFFFFF;" d="M203.8,383V195.267c0-57.173,40.107-104.96,93.867-116.907c-2.56-0.853-5.973-0.853-8.533-1.707
		c-2.56,0,5.973-0.853,15.36-0.853c-2.56,0-4.267,0-6.827,0C231.96,75.8,178.2,129.56,178.2,195.267V383
		c0,65.707,53.76,119.467,119.467,119.467c2.56,0,4.267,0,6.827,0c-9.387,0-17.92-0.853-15.36-0.853c2.56,0,5.973-0.853,8.533-1.707
		C243.907,487.96,203.8,440.173,203.8,383"/>
	<path d="M297.667,511c-70.827,0-128-57.173-128-128V195.267c0-70.827,57.173-128,128-128s128,57.173,128,128v17.067
		c0,5.12-3.413,8.533-8.533,8.533s-8.533-3.413-8.533-8.533v-17.067c0-61.44-49.493-110.933-110.933-110.933
		s-110.933,49.493-110.933,110.933V383c0,61.44,49.493,110.933,110.933,110.933S408.6,444.44,408.6,383V280.6
		c0-5.12,3.413-8.533,8.533-8.533s8.533,3.413,8.533,8.533V383C425.667,453.827,368.493,511,297.667,511z"/>
	<path d="M425.667,246.467c0-5.12-3.413-8.533-8.533-8.533s-8.533,3.413-8.533,8.533c0,5.12,3.413,8.533,8.533,8.533
		S425.667,251.587,425.667,246.467"/>
	<path style="fill:#FF8800;" d="M212.333,280.6v-85.333c0-46.933,38.4-85.333,85.333-85.333S383,148.333,383,195.267V280.6H212.333z
		"/>
	<path style="fill:#FFA800;" d="M212.333,280.6v-85.333c0-46.933,38.4-85.333,85.333-85.333s59.733,38.4,59.733,85.333V280.6
		H212.333z"/>
	<path d="M161.133,178.2H7.533V58.733h153.6V178.2z M24.6,161.133h119.467V75.8H24.6V161.133z"/>
	<path d="M297.667,511c-70.827,0-128-57.173-128-128V195.267c0-70.827,57.173-128,128-128s128,57.173,128,128V383
		C425.667,453.827,368.493,511,297.667,511z M297.667,84.333c-61.44,0-110.933,49.493-110.933,110.933V383
		c0,61.44,49.493,110.933,110.933,110.933S408.6,444.44,408.6,383V195.267C408.6,133.827,359.107,84.333,297.667,84.333z"/>
	<path d="M391.533,289.133H203.8v-93.867c0-52.053,41.813-93.867,93.867-93.867s93.867,41.813,93.867,93.867V289.133z
		 M220.867,272.067h153.6v-76.8c0-42.667-34.133-76.8-76.8-76.8s-76.8,34.133-76.8,76.8V272.067z"/>
	<path d="M383,365.933H212.333c-5.12,0-8.533-3.413-8.533-8.533s3.413-8.533,8.533-8.533H383c5.12,0,8.533,3.413,8.533,8.533
		S388.12,365.933,383,365.933z"/>
	<path d="M383,400.067H212.333c-5.12,0-8.533-3.413-8.533-8.533s3.413-8.533,8.533-8.533H383c5.12,0,8.533,3.413,8.533,8.533
		S388.12,400.067,383,400.067z"/>
	<path d="M417.133,367.64c-2.56,0-5.12-0.853-6.827-3.413c-2.56-3.413-2.56-9.387,1.707-11.947
		c46.933-34.987,73.387-89.6,73.387-148.48c0-103.253-84.48-187.733-187.733-187.733c-38.4,0-74.24,11.093-105.813,32.427
		c-4.267,2.56-9.387,1.707-11.947-2.56c-2.56-4.267-1.707-9.387,2.56-11.947C216.6,10.947,255.853-1,297.667-1
		c112.64,0,204.8,92.16,204.8,204.8c0,64-29.013,123.733-80.213,162.133C420.547,367.64,418.84,367.64,417.133,367.64z"/>
	<path d="M178.2,367.64c-1.707,0-3.413-0.853-5.12-1.707c-51.2-38.4-80.213-98.133-80.213-162.133c0-5.12,3.413-8.533,8.533-8.533
		c5.12,0,8.533,3.413,8.533,8.533c0,58.88,26.453,113.493,73.387,149.333c3.413,2.56,4.267,8.533,1.707,11.947
		C183.32,366.787,180.76,367.64,178.2,367.64z"/>
	<path d="M99.693,144.067h-30.72c-5.973,0-10.24-4.267-10.24-10.24v-31.573c0-5.12,4.267-9.387,10.24-9.387h31.573
		c5.12,0,10.24,4.267,10.24,10.24v31.573C109.933,139.8,105.667,144.067,99.693,144.067z M75.8,127h17.067v-17.067H75.8V127z"/>
	<path d="M127,75.8c-5.12,0-8.533-3.413-8.533-8.533V50.2c0-18.773-15.36-34.133-34.133-34.133S50.2,31.427,50.2,50.2v17.067
		c0,5.12-3.413,8.533-8.533,8.533s-8.533-3.413-8.533-8.533V50.2c0-28.16,23.04-51.2,51.2-51.2s51.2,23.04,51.2,51.2v17.067
		C135.533,72.387,132.12,75.8,127,75.8z"/>
</g>
<g>
</g>
<g>
</g>
<g>
</g>
<g>
</g>
<g>
</g>
<g>
</g>
<g>
</g>
<g>
</g>
<g>
</g>
<g>
</g>
<g>
</g>
<g>
</g>
<g>
</g>
<g>
</g>
<g>
</g>
</svg>
