<?xml version="1.0" encoding="iso-8859-1"?>
<!-- Generator: Adobe Illustrator 19.0.0, SVG Export Plug-In . SVG Version: 6.00 Build 0)  -->
<svg version="1.1" id="Layer_1" xmlns="http://www.w3.org/2000/svg" xmlns:xlink="http://www.w3.org/1999/xlink" x="0px" y="0px"
	 viewBox="0 0 490.2 490.2" style="enable-background:new 0 0 490.2 490.2;" xml:space="preserve">
<g>
	<g>
		<path d="M444.688,187l-89.8-77.7l89.8-77.7c5.7-4.9,7.7-12.9,5.1-19.9c-2.6-7-9.3-11.7-16.9-11.7h-286.3c-9.9,0-18,8.1-18,18
			v341.3h-18.5c-39,0-70.8,31.8-70.8,70.8v42.1c0,9.9,8.1,18,18,18h180.8c9.9,0,18-8.1,18-18c0-9.9-8.1-18-18-18h-162.8v-24.1
			c0-19.2,15.6-34.8,34.8-34.8h73c12.6,0,24.3,6.9,30.5,17.9c4.8,8.7,15.8,11.8,24.5,7s11.8-15.8,7-24.5
			c-12.5-22.5-36.2-36.5-61.9-36.5h-18.5V36h219.9l-69,59.7c-4,3.4-6.2,8.4-6.2,13.6s2.3,10.2,6.2,13.6l69,59.7h-161
			c-9.9,0-18,8.1-18,18c0,9.9,8.1,18,18,18h209.3c7.5,0,14.2-4.7,16.9-11.7C452.388,199.9,450.388,191.9,444.688,187z" fill="#ffffff"/>
	</g>
</g>
<g>
</g>
<g>
</g>
<g>
</g>
<g>
</g>
<g>
</g>
<g>
</g>
<g>
</g>
<g>
</g>
<g>
</g>
<g>
</g>
<g>
</g>
<g>
</g>
<g>
</g>
<g>
</g>
<g>
</g>
</svg>
