<?xml version="1.0" encoding="iso-8859-1"?>
<!-- Generator: Adobe Illustrator 16.0.0, SVG Export Plug-In . SVG Version: 6.00 Build 0)  -->
<!DOCTYPE svg PUBLIC "-//W3C//DTD SVG 1.1//EN" "http://www.w3.org/Graphics/SVG/1.1/DTD/svg11.dtd">
<svg version="1.1" id="Capa_1" xmlns="http://www.w3.org/2000/svg" xmlns:xlink="http://www.w3.org/1999/xlink" x="0px" y="0px"
	 width="512.5px" height="512.5px" viewBox="0 0 512.5 512.5" style="enable-background:new 0 0 512.5 512.5;" xml:space="preserve"
	>
<g>
	<path d="M112.5,208.25c61.856,0,112,50.145,112,112s-50.144,112-112,112s-112-50.145-112-112l-0.5-16
		c0-123.712,100.288-224,224-224v64c-42.737,0-82.917,16.643-113.137,46.863c-5.817,5.818-11.126,12.008-15.915,18.51
		C100.667,208.723,106.528,208.25,112.5,208.25z M400.5,208.25c61.855,0,112,50.145,112,112s-50.145,112-112,112
		s-112-50.145-112-112l-0.5-16c0-123.712,100.287-224,224-224v64c-42.736,0-82.918,16.643-113.137,46.863
		c-5.818,5.818-11.127,12.008-15.916,18.51C388.666,208.723,394.527,208.25,400.5,208.25z" fill="#E6EFF9"/>
</g>
<g>
</g>
<g>
</g>
<g>
</g>
<g>
</g>
<g>
</g>
<g>
</g>
<g>
</g>
<g>
</g>
<g>
</g>
<g>
</g>
<g>
</g>
<g>
</g>
<g>
</g>
<g>
</g>
<g>
</g>
</svg>
