<?xml version="1.0" encoding="iso-8859-1"?>
<!-- Generator: Adobe Illustrator 19.0.0, SVG Export Plug-In . SVG Version: 6.00 Build 0)  -->
<svg version="1.1" id="Layer_1" xmlns="http://www.w3.org/2000/svg" xmlns:xlink="http://www.w3.org/1999/xlink" x="0px" y="0px"
	 viewBox="0 0 512 512" style="enable-background:new 0 0 512 512;" xml:space="preserve">
<g>
	<g>
		<path d="M256,142.191c-62.754,0-113.809,51.054-113.809,113.809S193.246,369.809,256,369.809
			c62.755,0,113.81-51.054,113.81-113.809S318.755,142.191,256,142.191z M256,336.705c-44.501,0-80.705-36.204-80.705-80.705
			s36.204-80.705,80.705-80.705c44.502,0,80.706,36.204,80.706,80.705S300.502,336.705,256,336.705z" fill="#ffffff"/>
	</g>
</g>
<g>
	<g>
		<path d="M470.882,186.59h-23.317c-2.084-5.758-4.43-11.422-7.028-16.967l16.486-16.487c16.071-16.07,16.074-42.078,0.001-58.151
			l-40.011-40.011c-16.069-16.07-42.079-16.071-58.149,0l-16.488,16.488c-5.543-2.597-11.208-4.945-16.966-7.028V41.118
			C325.41,18.446,306.964,0,284.291,0h-56.584c-22.673,0-41.118,18.445-41.118,41.118v23.317c-5.757,2.083-11.423,4.43-16.966,7.028
			l-16.488-16.488c-16.07-16.07-42.078-16.071-58.149,0L54.976,94.986c-16.07,16.07-16.071,42.078,0,58.15l16.488,16.487
			c-2.598,5.544-4.945,11.21-7.028,16.967H41.118C18.445,186.59,0,205.036,0,227.709v56.584c0,22.673,18.445,41.118,41.118,41.118
			h23.317c2.083,5.757,4.43,11.423,7.028,16.967l-16.488,16.488c-16.07,16.07-16.071,42.078,0,58.15l40.011,40.011
			c16.071,16.071,42.078,16.071,58.15,0l16.488-16.488c5.544,2.598,11.209,4.945,16.966,7.028v23.317
			c0,22.673,18.445,41.118,41.118,41.118h56.584c22.673,0,41.119-18.445,41.119-41.118v-23.317
			c5.758-2.083,11.423-4.43,16.966-7.028l16.488,16.488c16.071,16.071,42.079,16.071,58.149,0l40.011-40.011
			c16.072-16.072,16.072-42.079,0-58.15l-16.487-16.488c2.598-5.545,4.943-11.209,7.028-16.967h23.317
			c22.673,0,41.119-18.445,41.119-41.118v-56.584C512,205.036,493.555,186.59,470.882,186.59z M478.898,284.292h-0.001
			c0,4.419-3.596,8.014-8.015,8.014h-35.309c-7.349,0-13.818,4.846-15.885,11.9c-3.396,11.596-8.059,22.851-13.857,33.451
			c-3.527,6.449-2.379,14.45,2.818,19.647l24.969,24.969c3.126,3.126,3.132,8.201-0.001,11.334l-40.011,40.011
			c-3.129,3.127-8.202,3.132-11.335,0l-24.968-24.968c-5.196-5.197-13.198-6.345-19.647-2.817
			c-10.598,5.796-21.853,10.458-33.45,13.855c-7.053,2.066-11.9,8.535-11.9,15.885v35.31c0,4.419-3.596,8.014-8.015,8.014h-56.583
			c-4.419,0-8.014-3.595-8.014-8.014v-35.31c0-7.35-4.846-13.818-11.9-15.885c-11.595-3.395-22.85-8.057-33.451-13.856
			c-6.462-3.534-14.46-2.368-19.646,2.818l-24.968,24.968c-3.128,3.127-8.202,3.132-11.335,0l-40.011-40.011
			c-3.126-3.126-3.132-8.202,0-11.333l24.968-24.968c5.197-5.197,6.345-13.198,2.818-19.647
			c-5.799-10.601-10.461-21.856-13.856-33.451c-2.066-7.053-8.535-11.9-15.885-11.9h-35.31c-4.419,0-8.014-3.595-8.014-8.014V227.71
			c0-4.419,3.595-8.014,8.014-8.014h35.31c7.35,0,13.818-4.846,15.885-11.9c3.395-11.595,8.057-22.85,13.856-33.451
			c3.527-6.449,2.379-14.45-2.818-19.647l-24.968-24.967c-3.126-3.127-3.132-8.202,0-11.335l40.011-40.011
			c3.127-3.126,8.202-3.132,11.335,0l24.968,24.968c5.195,5.196,13.196,6.345,19.646,2.818c10.601-5.798,21.856-10.46,33.451-13.856
			c7.053-2.066,11.9-8.535,11.9-15.885V41.12c0-4.419,3.595-8.014,8.014-8.014h56.584c4.419,0,8.015,3.595,8.015,8.014v35.31
			c0,7.35,4.847,13.818,11.9,15.885c11.598,3.396,22.852,8.058,33.45,13.855c6.447,3.528,14.451,2.379,19.647-2.817l24.968-24.968
			c3.128-3.126,8.202-3.132,11.335,0l40.011,40.012c3.127,3.126,3.133,8.201,0,11.333l-24.968,24.968
			c-5.197,5.196-6.345,13.198-2.818,19.647c5.799,10.6,10.46,21.855,13.857,33.451c2.066,7.053,8.535,11.9,15.885,11.9h35.309
			c4.419,0,8.015,3.595,8.015,8.014V284.292z" fill="#ffffff"/>
	</g>
</g>
<g>
	<g>
		<circle cx="256" cy="113.81" r="15.691" fill="#ffffff"/>
	</g>
</g>
<g>
	<g>
		<circle cx="256" cy="398.19" r="15.691" fill="#ffffff"/>
	</g>
</g>
<g>
	<g>
		<circle cx="398.19" cy="256" r="15.691" fill="#ffffff"/>
	</g>
</g>
<g>
	<g>
		<circle cx="113.81" cy="256" r="15.691" fill="#ffffff"/>
	</g>
</g>
<g>
	<g>
		<circle cx="356.546" cy="155.454" r="15.691" fill="#ffffff"/>
	</g>
</g>
<g>
	<g>
		<circle cx="155.454" cy="356.546" r="15.691" fill="#ffffff"/>
	</g>
</g>
<g>
	<g>
		<circle cx="356.546" cy="356.546" r="15.691" fill="#ffffff"/>
	</g>
</g>
<g>
	<g>
		<circle cx="155.454" cy="155.454" r="15.691" fill="#ffffff"/>
	</g>
</g>
<g>
</g>
<g>
</g>
<g>
</g>
<g>
</g>
<g>
</g>
<g>
</g>
<g>
</g>
<g>
</g>
<g>
</g>
<g>
</g>
<g>
</g>
<g>
</g>
<g>
</g>
<g>
</g>
<g>
</g>
</svg>
