<?xml version="1.0" standalone="no"?>
<!DOCTYPE svg PUBLIC "-//W3C//DTD SVG 1.1//EN" "http://www.w3.org/Graphics/SVG/1.1/DTD/svg11.dtd" >
<svg>
<metadata>
Created by FontForge 20090914 at Fri Feb 24 07:54:37 2012
 By root
Copyright (c) Typographer Mediengestaltung, 2000. All rights reserved. Full character set added by Dieter Steffmann, Kreuztal
</metadata>
<defs>
<font id="AlbertText-Bold" horiz-adv-x="420" >
  <font-face 
    font-family="Albert Text"
    font-weight="700"
    font-stretch="normal"
    units-per-em="1000"
    panose-1="2 0 8 3 2 0 0 2 0 4"
    ascent="800"
    descent="-200"
    x-height="632"
    cap-height="803"
    bbox="-313 -253 1426 1066"
    underline-thickness="20"
    underline-position="-123"
    unicode-range="U+001A-U+E003"
  />
<missing-glyph horiz-adv-x="500" 
d="M63 0h375v797h-375v-797zM125 63v672h250v-672h-250z" />
    <glyph glyph-name=".notdef" horiz-adv-x="500" 
d="M63 0h375v797h-375v-797zM125 63v672h250v-672h-250z" />
    <glyph glyph-name="fi" horiz-adv-x="485" 
d="M466 607l-23 46q-9 19 -9 52q0 27 -17 27q-20 0 -131 -24q32 -66 44 -78q27 -30 81 -30q3 0 16.5 1.5t38.5 5.5zM455 572l-14 20l-134 -47q1 3 1 11q0 2 -3 52q-33 -1 -48 -1.5t-12 -0.5q-58 0 -86 37q-1 14 -3 19q0 25 25 25q11 0 55 -32q24 0 40 34l31 65
q-50 53 -132 53q-48 0 -82 -22q-40 -25 -40 -71q0 -30 19 -105h-39q-8 -5 -12 -33q-1 -5 -2 -15.5t-3 -25.5q14 -8 27 -8h23t-1 1q12 -2 19 -11l-14 -501l7 -12q84 -3 87 -3q27 0 60 9l10 505q10 12 26 12q30 0 32 1l21 -27q3 -30 3 -73v-28q0 -16 -1 -39q-1 -22 -1 -39v-27
v-203q0 -62 3 -86q15 -1 31 -1.5t33 -0.5q30 0 62 12z" />
    <glyph glyph-name="fl" horiz-adv-x="573" 
d="M522 796q-19 13 -31 13q-37 0 -203 -94l19 39q-50 53 -132 53q-48 0 -82 -22q-40 -25 -40 -71q0 -30 19 -105h-39q-8 -5 -12 -34q-1 -5 -2 -15.5t-3 -24.5q14 -8 27 -8h23t-1 1q12 -2 19 -11l-14 -501l7 -12q84 -3 87 -3q27 0 60 9l10 505q10 12 26 12q30 0 33 1
q15 4 15 28q0 2 -3 52q-34 -1 -49 -1.5t-11 -0.5q-58 0 -86 37l-3 19q0 25 25 25q11 0 55 -32q24 0 48 50l39 6q27 0 40 -19q0 -58 3 -170q2 -57 3 -98.5t1 -70.5q0 -86 -1.5 -170.5t-5.5 -169.5l8 -12h141z" />
    <glyph glyph-name="Lslash" horiz-adv-x="532" 
d="M530 673q-38 75 -83 104q-45 30 -128 30q-215 0 -221 -313l-3 -148l-95 -32q31 -69 33 -71q7 -6 18 -6q16 0 43 9q-2 -77 -5.5 -134.5t-10.5 -96.5q6 -15 159 -15h240l12 12q7 60 10.5 101.5t3.5 64.5q0 7 -0.5 21t-1.5 36q-7 1 -10 1.5t-4 0.5q-8 0 -27 -25
q-20 -25 -26 -27q-14 -5 -40.5 -8.5t-65.5 -4.5q-63 -1 -110 -27l-1 4q43 87 49 174l103 49q-5 10 -10.5 19l-10.5 18q-13 18 -31 30q-16 -5 -27.5 -10t-19.5 -9q2 104 -6 269q24 31 47 31q36 0 66 -123l15 -2z" />
    <glyph glyph-name="lslash" horiz-adv-x="368" 
d="M368 372q-5 10 -10.5 19l-10.5 18q-13 18 -31 30q-38 -12 -55 -22q2 158 3.5 252.5t1.5 126.5q-19 13 -31 13q-40 0 -224 -106l42 6l14 2q27 0 40 -19q0 -57 3 -169q2 -57 3 -99t1 -71q-32 -11 -46 -15l-68 -24q30 -69 32 -71q6 -7 18 -7q18 0 63 17q-2 -114 -6 -240
l8 -12h141q0 59 1 138t3 181z" />
    <glyph glyph-name="Zcaron" horiz-adv-x="542" 
d="M442 985l-54 68q-6 -5 -16.5 -16.5l-26.5 -28.5q-26 -30 -45 -41l-25.5 35.5l-19.5 26.5l-24 22l-17 15q-37 -43 -58 -82l126 -132q21 0 38 16l52.5 49zM526 251q-100 35 -151 35q-41 -115 -80 -166l-100 4q28 60 66.5 129.5t88.5 151.5l97 164.5t61 112.5q0 34 -12 66
q-3 8 -10.5 23l-18.5 37h-360q-26 -69 -43 -124.5t-27 -100.5l125 -32l8 3q19 55 30 84q21 59 52 59q10 0 30 -4t30 -4q1 0 4.5 0.5l10.5 1.5q-26 -53 -65.5 -123l-92.5 -160l-99 -169.5t-62 -111.5l37 -120q111 -2 209 -4t185 -3l30 83.5l24 68.5q25 70 33 99z" />
    <glyph glyph-name="zcaron" horiz-adv-x="472" 
d="M396 814l-54 68q-6 -5 -16.5 -16.5l-26.5 -28.5q-26 -30 -45 -41l-25.5 35.5l-19.5 26.5l-24 22l-17 15q-37 -43 -58 -82l126 -132q21 0 38 16l52.5 49zM460 181l-0.5 6t-2.5 19q-47 25 -129 45l-26 -51.5l-19 -37.5q-21 -38 -51 -38q-3 0 -28 3q78 156 222 411
q-26 109 -48 108l-68 -7q-59 -6 -66 -6q-38 0 -71.5 3t-62.5 10q-60 -77 -81 -114l101 -64h18q55 90 82 90q3 0 27 -8l-232 -418l-1.5 -6t-0.5 -4l-1.5 -10.5l-0.5 -3.5q0 -31 27 -103q84 22 170 22t155 -27l23.5 42l26.5 51q37 70 37 88z" />
    <glyph glyph-name="space" unicode=" " 
 />
    <glyph glyph-name="exclam" unicode="!" horiz-adv-x="245" 
d="M215 798l-8 10q-53 0 -188 -61l39 -36l18 -387l7 -73.5t6 -51.5q4 -1 7.5 -2t7.5 -2h22q3 0 12 1t25 3q26 146 39 295t13 304zM205 82q-62 81 -87 81q-21 0 -82 -76q36 -64 86 -87q20 16 40.5 36t42.5 46z" />
    <glyph glyph-name="quotedbl" unicode="&#x22;" horiz-adv-x="475" 
d="M465 619q0 64 -22 115q-28 70 -81 70q-108 -119 -108 -130l15 -21.5l14 -21.5q17 -26 21 -46q1 -3 1 -45q0 -49 -42 -122q28 -28 44 -28q17 0 68 48q49 47 61 68q29 58 29 113zM235 619q0 64 -22 115q-28 70 -81 70q-108 -119 -108 -130l15 -21.5l14 -21.5q17 -26 21 -46
q1 -3 1 -45q0 -49 -42 -122q28 -28 44 -28q17 0 68 48q49 47 61 68q29 58 29 113z" />
    <glyph glyph-name="numbersign" unicode="#" horiz-adv-x="474" 
d="M454 527v103h-49l21 210h-134l-21 -210h-40l21 210h-134l-21 -210h-58v-103h47l-7 -77h-59v-103h48l-35 -347h134l35 347h40l-35 -347h134l35 347h59v103h-48l7 77h60zM260 527l-7 -77h-40l7 77h40z" />
    <glyph glyph-name="dollar" unicode="$" horiz-adv-x="490" 
d="M484 283q0 83 -53 136q-35 34 -129 76l1 124l71 -31h23l58 132l-149 58l1 126h-105l-2 -108q-169 -133 -169 -255q0 -78 48 -124q14 -14 42 -32.5t73 -41.5l-2 -138q-73 25 -117 32q-23 -57 -36 -93t-16 -52q72 -30 165 -60l-1 -125h105l2 94q42 -9 106 87q84 127 84 195
zM198 656l-1 -108q-54 30 -54 73l14 47zM359 193q0 -24 -16 -40l-47 15l2 118q54 -42 58 -58q3 -11 3 -35z" />
    <glyph glyph-name="percent" unicode="%" horiz-adv-x="588" 
d="M318 617q0 67 -45 120q-41 49 -107 72q-140 -95 -140 -222q0 -144 164 -197l-4 -3q31 16 55.5 40.5t41.5 54.5t26 64.5t9 70.5zM537 760l-62 34l-400 -771l3 -2l-3 -5l61 -28zM591 213q0 67 -45 120q-40 48 -107 72q-140 -95 -140 -222q0 -145 164 -195l-4 -3
q63 29 98 94q34 61 34 134zM231 556q0 -44 -17 -70q-101 39 -101 141q0 29 18 73q46 -18 73 -56.5t27 -87.5zM504 152q0 -45 -17 -71q-101 41 -101 142q0 29 18 73q46 -18 73 -56.5t27 -87.5z" />
    <glyph glyph-name="ampersand" unicode="&#x26;" horiz-adv-x="590" 
d="M576 400q-166 -35 -249 -35q0 -54 14 -54q6 0 17.5 3.5t17.5 3.5q5 0 6 -1v-5q0 -27 -6 -43q-9 -23 -32 -23l-10 2q-42 77 -46 111q176 80 176 176q0 76 -63 174q-63 99 -97 99q-40 0 -140 -36q-107 -38 -116 -64l51 -127l38 -90q-3 -14 -34 -36q-19 -14 -32 -25.5
t-21 -21.5q-28 -34 -28 -83q0 -93 80 -208q56 -80 96 -80q28 0 76 19q71 28 78 29q38 -77 47 -85q28 7 47 25q0 21 -34 71q3 7 30 19q29 14 34 23l15 199zM358 639q-10 -46 -61 -79q-14 -10 -38 -20.5t-57 -22.5l-26 44t-22 41q46 23 93 41.5t96 32.5zM271 226l-122 -38
q-6 21 -6 38l1.5 9l4.5 26q14 16 31.5 30.5t39.5 28.5q23 -32 51 -94z" />
    <glyph glyph-name="quotesingle" unicode="'" horiz-adv-x="246" 
d="M235 619q0 64 -22 115q-28 70 -81 70q-108 -119 -108 -130l15 -21.5l14 -21.5q17 -26 21 -46q1 -3 1 -45q0 -49 -42 -122q28 -28 44 -28q17 0 68 48q49 47 61 68q29 58 29 113z" />
    <glyph glyph-name="parenleft" unicode="(" horiz-adv-x="305" 
d="M297 -7q-84 75 -135 219q-46 129 -46 257q0 13 3 126q1 30 3.5 55t7.5 45q15 69 31 93q11 19 27.5 43l36.5 53l-16 4l4 -15q-6 -5 -13.5 -13t-15.5 -19h-11l4 -9q-150 -191 -150 -460q0 -152 40 -281q46 -158 141 -240z" />
    <glyph glyph-name="parenright" unicode=")" horiz-adv-x="306" 
d="M279 392q0 151 -39 282q-46 158 -142 242l-90 -142q88 -81 138 -228q45 -131 45 -266q0 -134 -18 -209q-22 -92 -91 -187l15 -4l-4 14q186 193 186 498z" />
    <glyph glyph-name="asterisk" unicode="*" horiz-adv-x="323" 
d="M347 680l-53 36q-11 -14 -38 -32q-28 -19 -44 -23l4.5 32.5l1.5 10.5q5 14 10.5 26.5t10.5 25.5l-45 34l-4 -4l-3 4l-47 -34q29 -82 29 -92q-46 16 -88 52l-47 -39l21 -56q9 0 28 3t28 3q33 0 45 -4q-30 -36 -75 -61l20 -61l60 5q7 50 29 89q23 -55 26 -89l63 -5l19 55
q-11 12 -16 14q-20 17 -34.5 30.5t-24.5 21.5l24.5 3.5t17.5 0.5l56 -5z" />
    <glyph glyph-name="plus" unicode="+" horiz-adv-x="382" 
d="M365 331v129h-115v45q0 3 1 4v-3q0 17 -3 43h-117q-7 -10 -9 -50l-2 -39l-94 4v-128q50 -8 83 -6h14l-4 -91h133l-2 94q61 -3 100 -3q13 0 15 1z" />
    <glyph glyph-name="comma" unicode="," horiz-adv-x="246" 
d="M232 115q0 64 -22 115q-28 70 -81 70q-108 -119 -108 -130l15 -21.5l14 -21.5q17 -26 21 -46q1 -3 1 -45q0 -46 -42 -119q28 -28 44 -28q18 0 68 49q52 48 61 64q29 56 29 113z" />
    <glyph glyph-name="hyphen" unicode="-" horiz-adv-x="518" 
d="M504 292q0 27 -10 46q-11 3 -35 3q-1 0 -62 -0.5l-185 -1.5h2q-1 1 -5 1l-11 1q-39 5 -56 6l-94 9q-5 -28 -9.5 -49.5t-7.5 -37.5q-7 -32 -7 -36q0 -36 117 -36q103 0 354 12q9 79 9 83z" />
    <glyph glyph-name="period" unicode="." horiz-adv-x="338" 
d="M306 173l-114 124q-42 0 -86 -38l-83 -74l-6 -52q87 -102 143 -133q75 51 96 70q50 48 50 103z" />
    <glyph glyph-name="slash" unicode="/" horiz-adv-x="491" 
d="M527 812l-57 33l-450 -863l4 -4l-3 -3l58 -32z" />
    <glyph glyph-name="zero" unicode="0" horiz-adv-x="438" 
d="M412 369q0 188 -105 343q-65 96 -133 96q-27 0 -74 -119q51 -58 85 -101t51 -71q59 -101 59 -209q0 -110 -60 -110q-37 0 -62.5 63t-25.5 197q0 5 2 22t6 47l9 60q-29 44 -46 44q-2 0 -4 -0.5l-6 -1.5q-71 -115 -82 -205l-8 -74q-1 -10 -1.5 -16t-0.5 -9v-23
q0 -104 41 -192q51 -110 144 -110q69 0 134 96q77 116 77 273z" />
    <glyph glyph-name="one" unicode="1" horiz-adv-x="200" 
d="M182 808l-155 -72l-18 -708l7 -24q96 -3 99 -3q25 0 55 6z" />
    <glyph glyph-name="two" unicode="2" horiz-adv-x="469" 
d="M466 171q0 16 -6 27t-21 11q-44 -42 -117 -42h1q-5 1 -10 1h-7l-28 2q-29 2 -48.5 3t-28.5 1l81.5 126.5t48.5 80.5q83 148 83 220q0 108 -48 157.5t-155 49.5q-56 0 -107 -57q-46 -50 -59 -110q14 -29 30 -29t43 13q30 14 41 14q42 0 68 -44q22 -37 22 -83
q0 -80 -85 -228l-81 -142q-58 -101 -58 -118q0 -24 16 -24h213q157 0 167 13l39 141l3 12q1 2 1.5 3.5l0.5 1.5h1z" />
    <glyph glyph-name="three" unicode="3" horiz-adv-x="467" 
d="M446 260q0 57 -10 87q-13 42 -45 74l-52 51q-11 11 -11 21q0 5 32 52t32 80q0 58 -38 110q-37 50 -93 73l-187 -180l41 -2l24 8t29 8q52 0 88 -50q1 -23 1.5 -33.5t0.5 -8.5q0 -34 -49 -74q-48 -40 -53 -64q150 -78 150 -197q0 -16 -12 -41q-13 -28 -27 -28q-41 0 -63 34
l-42 64q-24 36 -44 36q-29 -32 -54.5 -67t-47.5 -73q90 -139 191 -139q34 0 99 53q51 41 85 84q55 67 55 122z" />
    <glyph glyph-name="four" unicode="4" horiz-adv-x="518" 
d="M504 292q0 27 -10 46q-9 3 -25 3q-48 2 -59 7q3 169 3 177q0 38 -2 73.5t-6 68.5q-12 4 -18 4q-35 0 -57 -21q-15 -15 -34 -52q-23 -44 -42 -75l-6 -175q-15 -9 -36 -9q4 0 -14 2l-56 6l86 194q58 132 69 212l-182 55q0 -132 -31 -280l-54 -261q-6 -29 -6 -34
q0 -36 105 -36q3 0 30 0.5l79 1.5l2 -190l12 -9l146 7l5 182q15 12 44 17q10 1 48 3q9 79 9 83z" />
    <glyph glyph-name="five" unicode="5" horiz-adv-x="466" 
d="M446 800l-284 8l-12 -8q-4 -38 -11.5 -84.5t-20.5 -100.5q-31 -131 -31 -186q242 -47 242 -179q0 -17 -6.5 -33t-17.5 -29t-26 -20.5t-32 -7.5q-86 0 -125 110l-22 -2l-26 -44l-26 -44q-14 -26 -22.5 -50t-12.5 -46q85 -84 174 -84q70 0 138 59q114 102 114 262
q0 182 -151 236l-104 37q9 46 15 60q73 2 127.5 4t91.5 4q28 108 28 138z" />
    <glyph glyph-name="six" unicode="6" horiz-adv-x="437" 
d="M411 282q0 76 -43 181q-51 126 -109 126q-12 0 -40 -20q-30 -23 -42 -24q47 118 162 257q-25 4 -37 5.5l-12 1.5q-88 0 -173 -121q-104 -149 -104 -340q0 -115 48 -218q61 -130 160 -130q49 0 104 70q86 109 86 212zM287 212q0 -8 -1 -9q-12 -24 -26 -29
q-102 85 -102 215q0 12 3 44l12 3q51 0 86 -89q28 -69 28 -135z" />
    <glyph glyph-name="seven" unicode="7" horiz-adv-x="456" 
d="M440 757q0 30 -12 51l-393 -8q-16 -61 -16 -115q0 -2 0.5 -22.5l1.5 -59.5l11 -2q10 2 40 26t44 26q26 1 45 1h32h5q4 0 9 1h15q35 0 71 -6q-82 -131 -147 -281q-84 -191 -84 -296q0 -50 9 -72h72q26 0 53.5 2t56.5 6q0 385 177 687q10 56 10 62z" />
    <glyph glyph-name="eight" unicode="8" horiz-adv-x="471" 
d="M458 222q0 72 -40 133q-17 25 -90 108l56 62q43 47 43 81q0 78 -52 139q-56 63 -132 63q-31 0 -92 -57q-94 -88 -94 -148q0 -54 29 -97l60 -84l-75 -85q-54 -62 -54 -113q0 -103 91 -167q80 -56 143 -56q49 0 117 74q54 58 87 120zM296 623q0 -18 -33 -66q-23 0 -42 36
q-17 32 -17 57q0 38 31 38q24 0 42.5 -20.5t18.5 -44.5zM307 198q-13 -67 -40 -67q-25 0 -50 24q-38 36 -38 93q0 37 41 84q73 -73 87 -134z" />
    <glyph glyph-name="nine" unicode="9" horiz-adv-x="448" 
d="M439 450q0 121 -56 228q-68 129 -178 129q-44 0 -100 -89q-41 -69 -62 -134q-14 -47 -14 -75q0 -95 55 -195q43 -81 89 -81q15 0 48 21q39 26 47 30q-9 -36 -23.5 -72.5t-34.5 -73.5q-8 -14 -28.5 -47l-53.5 -87q23 -2 33.5 -3t7.5 -1q60 0 129 77q141 157 141 373z
M286 392q-10 -7 -20 -7q-39 0 -67 46q-36 58 -36 139q0 24 7.5 43t20.5 19q37 0 69 -102q26 -86 26 -138z" />
    <glyph glyph-name="colon" unicode=":" horiz-adv-x="338" 
d="M306 533l-114 124q-42 0 -86 -38l-83 -74l-6 -52q87 -102 143 -133q75 51 96 70q50 48 50 103zM306 173l-114 124q-42 0 -86 -38l-83 -74l-6 -52q87 -102 143 -133q75 51 96 70q50 48 50 103z" />
    <glyph glyph-name="semicolon" unicode=";" horiz-adv-x="338" 
d="M306 533l-114 124q-42 0 -86 -38l-83 -74l-6 -52q87 -102 143 -133q75 51 96 70q50 48 50 103zM232 115q0 64 -22 115q-28 70 -81 70q-108 -119 -108 -130l15 -21.5l14 -21.5q17 -26 21 -46q1 -3 1 -45q0 -46 -42 -119q28 -28 44 -28q18 0 68 49q52 48 61 64
q29 56 29 113z" />
    <glyph glyph-name="less" unicode="&#x3c;" horiz-adv-x="479" 
d="M466 77v106l-319 153l319 153v106l-433 -213v-91z" />
    <glyph glyph-name="equal" unicode="=" horiz-adv-x="339" 
d="M313 423q0 11 -0.5 26.5t-1.5 36.5q-1 22 -1.5 37.5t-0.5 26.5h-282v-127h286zM313 355h-286v-118h282q0 10 0.5 24.5t1.5 34.5t1.5 34.5t0.5 24.5z" />
    <glyph glyph-name="greater" unicode="&#x3e;" horiz-adv-x="461" 
d="M467 291v90l-433 214l1 -105l318 -154l-319 -153v-106z" />
    <glyph glyph-name="question" unicode="?" horiz-adv-x="374" 
d="M361 612q0 99 -41 146q-44 50 -142 50q-42 0 -101 -50q-58 -49 -58 -94q0 -25 4 -37q5 -1 8 -1h8q15 0 41 10q28 11 41 11q83 0 83 -125q0 -43 -42 -128l-59 -119q23 -2 39 -3t24 -1q10 0 25 5q27 10 86 118q84 154 84 218zM258 78q-61 79 -79 79q-19 0 -53 -31
q-34 -30 -34 -48q0 -17 29 -48q28 -30 47 -30q27 0 47 24z" />
    <glyph glyph-name="at" unicode="@" horiz-adv-x="681" 
d="M669 431q0 125 -86 208t-211 83q-175 0 -277 -118q-81 -95 -81 -218q0 -148 93 -248q96 -104 242 -104q101 0 187 53q90 56 124 147l-63 -3q-89 -138 -245 -138q-130 0 -206 90q-71 86 -71 218q0 111 86 189q82 75 195 75q112 0 183 -63t71 -175q0 -79 -81 -154
q-39 -36 -52 -36q-9 0 -9 24l1 200l2 10.5l2 10.5q1 4 1 8q6 23 30 53l-32 16q-17 -20 -32 -20q-23 0 -59 16l-33.5 13t-20.5 6q-23 -23 -72 -32l-9 -2q-30 0 -46 3l75 -132q-74 -83 -74 -145q0 -68 73 -120l99 80q12 -53 52 -78q19 4 49 21l40 22t16 9q139 88 139 231z
M379 467h-1v-90l-77 34l-58 104l131 -42v1zM379 356h-1v-92l-50 -40q-50 41 -50 86q0 47 19 84l77 -32v1z" />
    <glyph glyph-name="A" unicode="A" horiz-adv-x="559" 
d="M526 418q-2 162 -3.5 258.5t-1.5 128.5l-432 -4q-2 -29 -3.5 -43.5t-1.5 -16.5q0 -16 11 -33q19 1 36 1.5t34 0.5q18 0 41 -6q-57 -78 -79 -139q-26 -72 -26 -158v-30t1 -43q1 -24 1.5 -42t0.5 -30q0 -128 -35 -180q-26 -38 -65 -77l231 4q34 58 34 116q0 39 -6 84
t-17 97q30 11 55 11q26 0 60 -7l3 -305l147 -1l13 8v170q0 76 1 133l1 98v5v0zM359 449l-120 -2l8 86.5t5 44.5q16 81 62 111q22 15 30 15l15 -3v-252z" />
    <glyph glyph-name="B" unicode="B" horiz-adv-x="573" 
d="M541 234q0 143 -125 202q62 62 71 74q31 41 31 95q0 84 -39 140q-44 63 -125 63q-30 0 -67 -33l-65 -58l-3.5 -411.5t-1.5 -288.5q15 -6 30 -6q12 0 30 6l4 337q35 20 46 20q61 0 61 -110q0 -48 -37 -97l-54 -73l96 -94q4 -2 13 -2q31 0 75 72q60 102 60 164zM203 404
l-2 400h-23l-71 -38.5l-84 -47.5q28 -31 31 -50q2 -14 3 -32t1 -39v-242l-3 -108l-6 -217l10 -15h141q3 355 3 389zM372 592q0 -26 -0.5 -43t-1.5 -24q-5 -40 -27 -59q-43 -40 -62 -40q-3 100 -3 115q0 85 12 126q7 7 14 7q22 0 45 -30q23 -29 23 -52z" />
    <glyph glyph-name="C" unicode="C" horiz-adv-x="520" 
d="M513 804h-43t-60 1t-59.5 1.5t-42.5 0.5q-133 0 -216 -134q-38 -60 -54 -118q-25 -82 -25 -239q0 -152 76 -232q78 -84 228 -84q140 0 172 9q-4 35 -5.5 62t-1.5 45q0 5 2 57l6 153q-14 11 -28 11q-1 0 -6 -0.5t-16 -1.5q-57 -178 -140 -178q-135 0 -135 182
q0 5 0.5 27.5t1.5 62.5q7 238 141 238q36 0 36 -75l-32.5 -71.5l-22.5 -51.5q-26 -62 -33 -82q37 -46 56 -50l119 272.5z" />
    <glyph glyph-name="D" unicode="D" horiz-adv-x="557" 
d="M545 442q0 171 -70 259q-75 95 -240 109q-33 2 -69.5 3.5t-78.5 1.5t-52 -6q-9 -6 -15 -22q0 -38 11.5 -67.5t52.5 -44.5q33 -13 57 -14q-71 -44 -81 -54l2 -147q1 -38 1 -58v-20l-2 -84q-2 -58 -3 -92.5t-2 -47.5q-6 -68 -29 -138q8 -20 22 -20q36 0 83 9h-3q25 0 75 -3
q51 -3 76 -3q182 0 244 194q21 66 21 245zM363 446q0 -5 -0.5 -24t-1.5 -54q-7 -223 -118 -223h-24t-72 1l70 47v461q13 10 30 10q58 0 91 -84q25 -63 25 -134z" />
    <glyph glyph-name="E" unicode="E" horiz-adv-x="499" 
d="M488 801q-7 7 -34 7q-206 0 -307 -82q-111 -90 -123 -298q-2 -35 -3 -58t-1 -36q0 -157 79 -242q82 -88 239 -88q2 0 36.5 0.5l101.5 1.5q1 5 1 9t1 7v115q0 23 1.5 52.5t5.5 65.5l-15 3l-16 -3q-26 -46 -51 -65q-32 -24 -77 -24q-54 0 -100 42q-54 48 -54 144
q0 -1 1.5 6.5t3.5 23.5h54q26 0 80 -14q61 -15 81 -18l2 184q-5 1 -11 1q-18 0 -60 -14q-20 -7 -35 -10.5t-26 -2.5l-84 2q19 71 41 106q35 53 93 53q15 0 78 -29q62 -29 62 -38q0 -3 -10 -3h20z" />
    <glyph glyph-name="F" unicode="F" horiz-adv-x="464" 
d="M449 680q-17 55 -57 128l-365 -6l1 -128l92 -3q-40 -40 -60 -40l-47 10q68 -81 97 -147q32 -75 32 -172q0 -126 -59 -264q65 -56 89 -58q102 163 102 357v34t-1 27h63q23 0 44 -50h16l18.5 98.5l12.5 69.5l-167 4q-34 77 -68 129z" />
    <glyph glyph-name="G" unicode="G" horiz-adv-x="548" 
d="M530 811q-41 -6 -87 -6h-13q-7 0 -17 1h-31q-107 0 -173 -28q-80 -33 -130 -114q-56 -90 -60 -255q-1 -9 -1 -15v-9v-8q-1 -2 -1 -3v0q-1 0 0 1v-29q0 -143 55 -234q66 -112 199 -112q25 0 69 16q45 16 70 16q11 0 37 -15q25 -15 38 -15l28 7l11 454q-51 -2 -113.5 -3
t-137.5 -2q-41 -80 -41 -92q0 -2 0.5 -9l1.5 -20q20 -4 63 -4h16q21 0 37 -1.5t27 -3.5q-2 -91 -7 -109q-17 -62 -77 -62q-62 0 -96 76q-28 59 -28 129v19q0 11 1 23q5 88 37 154q43 87 118 87q37 0 114 -45q65 137 91 211z" />
    <glyph glyph-name="H" unicode="H" horiz-adv-x="574" 
d="M548 349q0 271 -185 271q-26 0 -54 -21q-27 -19 -42 -43l-10 9q1 97 8 123l213 4l-46 98l-227 3q-15 -516 -15 -754q5 0 18 -1.5t20 -1.5q3 0 9 1.5t16 3.5q4 184 12 243q8 0 21 0.5t30 1.5q34 3 51 3q24 0 49 -7q-11 -121 -70 -228q-46 -81 -53 -98q34 -40 53 -49
q200 194 200 409q0 5 1 16.5t1 16.5zM176 790q-36 0 -171 -59l32 -44q2 -112 3 -175.5t1 -79.5l-8 -384q25 -13 55 -13q10 0 30 1t50 3q0 63 3 188q2 67 3 113.5t1 74.5zM415 357h-151q-4 7 -4 21q0 18 12 44q3 6 10.5 11t17.5 9t19.5 6t17.5 2q36 0 59 -29q19 -25 19 -64z
" />
    <glyph glyph-name="I" unicode="I" horiz-adv-x="434" 
d="M412 803l-378 -2l-3 -131l55 -4l14 -1l6 -1q3 0 9 0.5t14 1.5q7 1 12 1h10q11 0 29 -5l-63 -36q-19 -10 -35.5 -15.5t-32.5 -7.5l44 -52q18 -23 18 -62v-12l-18 -258l1 19q0 -19 -1.5 -47.5l-3.5 -66.5t-3 -66.5t-1 -47.5l8 -10h134q1 142 1.5 223t0.5 103q0 28 1 68.5
t3 95.5l3.5 96t1.5 68l12 12v-69q0 -40 1 -94t1 -95v-67q0 -81 -1.5 -163t-5.5 -166l6 -12q45 0 59 6q0 190 1 315t3 188l3 94q1 14 1 25v19q3 18 9 23q18 2 39 3t44 1z" />
    <glyph glyph-name="J" unicode="J" horiz-adv-x="368" 
d="M345 805l-311 -4l-1 -101h123l2 -4l-99 -53q46 -46 46 -127q0 -19 -9 -134q-12 -155 -12 -220q106 0 106 -34q0 -35 -34 -35q-29 0 -79 41q-22 -23 -41 -47.5t-35 -50.5q76 -36 151 -36q166 0 166 117q0 34 -12 57q-10 17 -39 43l9 9l1 466q10 8 32 11q8 2 35 3zM224 699
q0 -45 -5.5 -160t-16.5 -303q0 74 6 226q6 151 6 226l5 12z" />
    <glyph glyph-name="K" unicode="K" horiz-adv-x="558" 
d="M554 19q-14 45 -29.5 101.5t-32.5 126.5q-21 85 -36.5 142t-25.5 86l56 74q40 52 40 91q0 16 -3 51q-1 17 -1.5 30.5t-0.5 21.5q0 7 20 67l-213 -37q27 -116 27 -160q0 -4 -1.5 -11.5t-3.5 -20.5q-17 -82 -80 -130l1 332q-17 17 -40 17l-24 -5l-3 -105q-1 -29 -1.5 -53
t-0.5 -44l-1 -29v-2v1q0 -10 0.5 -17.5t1.5 -12.5l-5 -16l2 -133l-7 -17l9 -19l-6 -14l7 -26q-7 -19 -9 -49v-49q-1 -13 -1 -19q0 -5 0 -3l6 -57q0 -7 -6 -17q0 -10 0.5 -23.5t1.5 -32.5q3 -36 3 -54h59q3 118 3 132q0 2 -3 179q9 15 21 21t25 11l32 -149l40 -189
q25 -9 56 -9q25 0 53 1t60 3zM188 783l-9 11q-19 1 -40 1h-44q-16 0 -36 -1.5t-45 -5.5l22 -52l-7 -720l12 -12h135z" />
    <glyph glyph-name="L" unicode="L" horiz-adv-x="477" 
d="M475 673q-38 75 -83 104q-45 30 -128 30q-214 0 -221 -313l-2 -92q-1 -49 -1 -97t-1 -97q-2 -58 -5.5 -106.5t-10.5 -86.5q7 -15 171 -15h228l12 12q7 60 10.5 101.5t3.5 64.5q0 7 -0.5 21t-1.5 36q-7 1 -10 1.5t-4 0.5q-7 0 -26 -25q-20 -24 -27 -27q-14 -5 -40 -8.5
t-66 -4.5q-64 -2 -110 -27l-1 4q34 69 45 137q4 26 6 61.5t2 81.5v95l-6 165q22 31 47 31q36 0 66 -123l15 -2z" />
    <glyph glyph-name="M" unicode="M" horiz-adv-x="811" 
d="M800 734q0 26 -18 25l-26 -12.5t-18 -9.5l52 55q-26 16 -35 16q-15 0 -45 -9q-30 -8 -44 -8t-34 2t-46 6t-46 6t-34 2q-158 0 -227 -161q16 -21 25 -21q2 0 31 20t38 20q23 0 78 -11t78 -11q136 0 205 90l6 -4q-108 -98 -140 -253q-8 -38 -13.5 -112t-9.5 -183l-5 -166
l10 -12h172l15 15q-22 99 -32.5 189.5t-10.5 175.5q0 150 37 271q4 9 21 41q16 28 16 39zM513 8q0 25 -1 63t-3 89q-3 102 -3 153v307l-153 3l-3 -608l6 -12zM275 792l-20 7l-241 -121l77 -3q16 -16 18 -28q3 -38 3 -56q1 -26 1.5 -55.5t0.5 -64.5l1 -468h148z" />
    <glyph glyph-name="N" unicode="N" horiz-adv-x="520" 
d="M495 698q1 28 -23 28q-6 0 -29 -14q40 37 50 87q-13 7 -27 7q-18 0 -57 -14q-36 -13 -58 -13q-17 0 -41 3.5t-56 10.5q-65 15 -97 15q-99 0 -109 -30q-14 -48 -21 -75q-10 -33 -10 -36q0 -17 5 -25q16 4 52 4q31 0 63 -17l-98 -63l-9 -562h158l10 623q130 0 225 69
q-81 -80 -122 -226q-34 -120 -34 -259q0 -43 2.5 -89t7.5 -96l16 -26q110 0 166 6q-29 172 -29 288q0 54 2 92t6 61l16 88.5t22 109.5q4 16 5.5 24l1.5 8q7 13 12 21z" />
    <glyph glyph-name="O" unicode="O" horiz-adv-x="527" 
d="M496 410q0 192 -131 323q-75 75 -142 75q-54 -60 -99 -126q231 -125 231 -319q0 -57 -6 -84q-4 -18 -10.5 -34.5t-14.5 -32.5q-23 -42 -49 -42q-52 0 -92 112q-33 90 -33 177q0 36 15 86l27 84q-17 12 -25 12q-38 0 -87 -103q-54 -113 -54 -210q0 -131 75 -246
q52 -82 110 -82q97 0 177 89q108 120 108 321z" />
    <glyph glyph-name="P" unicode="P" horiz-adv-x="565" 
d="M553 622q0 190 -154 190q-14 0 -58.5 -3l-122.5 -8l-11 -487l3 3q-3 -167 -3 -175q0 -38 2 -73t6 -68q8 -1 14 -1h12q13 0 31 5q1 42 1 68v37q0 9 -1 50t-3 114q284 219 284 348zM197 801l-23 3l-162 -90q38 -29 38 -36l-7 -668q7 -10 26 -10h-1q43 0 72.5 1.5t45.5 5.5
q2 19 3.5 30t1.5 14zM409 565q0 -39 -55 -94l-73 -73q-1 31 -1 55v41q0 7 0.5 42.5l1.5 101.5q4 0 12 0.5t19 1.5q10 1 18 1h13q65 0 65 -76z" />
    <glyph glyph-name="Q" unicode="Q" horiz-adv-x="560" 
d="M551 88q0 98 -30 118l-69 43q24 82 24 156q0 146 -94 267q-84 109 -181 136q-23 -17 -51 -54q-29 -38 -42 -66q0 -9 14 -25l11 -10.5l11 -10.5q-53 0 -94 -137q-31 -102 -31 -188q0 -111 50 -205q61 -112 164 -112q87 0 183 151q12 -14 12 -36q0 -19 -47 -78
q10 -6 27 -13q9 0 29 9q21 9 25 9q29 -2 42.5 -3.5t11.5 -1.5q18 0 30 14q2 17 3.5 26.5t1.5 10.5zM340 299q0 -44 -10 -78q-14 -53 -42 -53q-52 0 -106 96q-48 87 -48 146v66q0 55 33 135l-5 26q178 -121 178 -338z" />
    <glyph glyph-name="R" unicode="R" horiz-adv-x="574" 
d="M557 632q0 175 -178 175q-2 0 -42 -1l-119 -3l-21 -791q9 -11 45 -11l26 7q0 70 2 150.5t6 174.5q29 17 37 18l7 -3l48 -332l12 -16h65q44 0 94 6l-83 447q101 87 101 179zM201 803l-30 3l-154 -76l32 -44l-7 -679q31 -4 54.5 -5.5t39.5 -1.5q14 0 50 11zM412 568
q0 -48 -54 -91l-73 -58l3 229h28q96 0 96 -80z" />
    <glyph glyph-name="S" unicode="S" horiz-adv-x="488" 
d="M469 280q0 49 -18 90q-20 48 -60 68l-164 81q-93 47 -99 107l14 42q186 -80 217 -80h23l58 132q-78 32 -137.5 53.5t-102.5 34.5q-184 -142 -184 -266q0 -80 71 -142q30 -27 140 -89q94 -52 114 -83q3 -38 3 -40q0 -20 -16 -35l-268 84q-26 -69 -33 -90l-13 -36t-6 -19
l137 -59q76 -33 140 -33q42 0 100 85q84 123 84 195z" />
    <glyph glyph-name="T" unicode="T" horiz-adv-x="565" 
d="M548 215q-26 26 -65 26l-34.5 -38.5t-12.5 -13.5q-32 -29 -61 -29q-62 0 -98 56q-31 47 -31 114q0 68 24 187q25 124 39 124q108 0 192 -24l-1 174q-49 8 -92 12.5t-81 4.5q-112 0 -188 -63q-57 -47 -124 -158q28 -28 44 -30l33 22l33 22q49 31 67 31q4 0 13 -4l-69 -165
q-47 -114 -47 -220q0 -108 52 -172q56 -71 161 -71q93 0 161 62q63 60 85 153z" />
    <glyph glyph-name="U" unicode="U" horiz-adv-x="549" 
d="M542 111q-42 51 -43 65q-3 61 -3 93l-3 537q-7 1 -10 1.5t-4 0.5q-10 0 -144 -113v-482q-23 -35 -59 -35q-54 0 -82 85q-21 61 -21 131q0 229 199 413l-346 -7l-3 -30q1 3 1 -21v-81q90 0 110 -4l-2 -15q-67 -70 -93 -157q-20 -72 -20 -183q0 -204 165 -309l149 111
q18 -78 93 -108q34 27 62.5 54t53.5 54z" />
    <glyph glyph-name="V" unicode="V" horiz-adv-x="572" 
d="M547 518q0 94 -24 172q-36 118 -92 118l-91 -116l28.5 -89t12.5 -42q14 -61 14 -138q0 -4 -1.5 -13t-3.5 -25q-18 -110 -84 -180q-66 93 -66 206q0 116 25 190q8 23 28.5 66t54.5 106q0 17 -9 32l-289 -2q-11 -13 -16 -49q-1 -5 -2 -18.5t-2 -35.5q15 -12 30 -12h19
q9 0 14 1h-2q15 -1 27 -13q-45 -105 -45 -211q0 -235 184 -464h76q51 0 108 112q35 68 64 162q42 136 42 243z" />
    <glyph glyph-name="W" unicode="W" horiz-adv-x="639" 
d="M616 800l-22 8l-68.5 -52.5l-65.5 -52.5l-7 -505q-81 85 -81 230q0 46 19 97q1 2 6.5 15l15.5 36q18 39 18 44q0 39 -35 56q-154 -145 -154 -341q0 -70 26 -157q-97 46 -97 171q0 141 69 243q60 87 190 169l-10 47l-115 -3.5l-81 -2.5q-66 -2 -114.5 -3t-82.5 -1v-125
l15 -4q47 -1 76 -2.5t40 -5.5q-123 -188 -123 -373q0 -109 44 -192q51 -96 118 -96l27.5 22.5l27.5 22.5q36 28 57 39q98 -83 114 -83q1 0 2 1h3l177 141z" />
    <glyph glyph-name="X" unicode="X" horiz-adv-x="662" 
d="M639 119l-8 25q-137 74 -200 222q20 7 50 7q59 0 67 2l-14 100q-20 11 -55 12q-37 2 -43 5q22 71 72 124q37 38 115 87l-68 68q-35 35 -76 35q-26 0 -73 -71q-25 -37 -46 -80t-39 -93q-16 39 -33 75l-34 69q-59 107 -90 107q-7 0 -12 -5l-127 -116q75 -37 118 -78
q47 -45 78 -118q-23 -9 -114 -9l14 -118l102 -3q-40 -106 -88 -149q-27 -24 -81 -60q-39 -25 -44 -57l35.5 -43t18.5 -21q37 -36 71 -36q42 0 96 75q60 82 103 212q43 -123 66 -170q58 -115 118 -115z" />
    <glyph glyph-name="Y" unicode="Y" horiz-adv-x="491" 
d="M467 796q-5 0 -12.5 -1.5t-16 -3.5t-16.5 -3.5t-13 -1.5q-16 0 -54 11q-36 11 -53 11q-73 0 -118 -81q-8 29 -13 45.5t-7 20.5l-163 -3q52 -64 101 -277l71 -304l-27.5 -37.5t-13.5 -19.5q-23 -37 -23 -65q0 -27 18 -55q19 -32 45 -30l219 6q14 67 21 111.5t7 66.5l-17 2
l-30 -40.5t-21 -29.5q-23 -29 -59 -29q-31 0 -31 37q0 17 46 94q97 166 126 276q14 58 14 180v12q-59 -41 -112 -41q1 -14 1 -27v-24q0 -149 -61 -243l-5 5l-42 141q-21 82 -21 145q13 36 39 36q56 0 81 -13q9 -4 15.5 -10t5.5 -6l2 6l2 9q51 0 80 42q16 24 35 88z" />
    <glyph glyph-name="Z" unicode="Z" horiz-adv-x="542" 
d="M526 251q-100 35 -151 35q-41 -115 -80 -166l-100 4q28 60 66.5 129.5t88.5 151.5l97 164.5t61 112.5q0 34 -12 66q-3 8 -10.5 23l-18.5 37h-360q-26 -69 -43 -124.5t-27 -100.5l125 -32l8 3q19 55 30 84q21 59 52 59q10 0 30 -4t30 -4q1 0 4.5 0.5l10.5 1.5
q-26 -53 -65.5 -123l-92.5 -160l-99 -169.5t-62 -111.5l37 -120q111 -2 209 -4t185 -3l30 83.5l24 68.5q25 70 33 99z" />
    <glyph glyph-name="bracketleft" unicode="[" horiz-adv-x="227" 
d="M218 -25v80h-97v669h97v80h-5v6h-186v-835h191z" />
    <glyph glyph-name="backslash" unicode="\" horiz-adv-x="327" 
d="M307 754q-50 53 -132 53q-48 0 -82 -22q-40 -25 -40 -71q0 -22 18 -104q7 -2 8 -42q2 -23 3 -35.5t2 -15.5l-14 -501l7 -12q84 -3 87 -3q27 0 60 9l10 505q2 11 3 20t2 15q1 23 3 38q1 9 5 9q-76 28 -88 46q-1 14 -3 19q0 25 25 25q11 0 55 -32q24 0 40 34z" />
    <glyph glyph-name="bracketright" unicode="]" horiz-adv-x="246" 
d="M207 -25v835h-191v-84h97v-671h-97v-74h5v-6h186z" />
    <glyph glyph-name="asciicircum" unicode="^" horiz-adv-x="336" 
d="M315 605q0 15 -35 61q-1 1 -13 15.5l-36 42.5l-19 23t-13 17q-20 23 -42 23q-16 0 -43 -37l-18 -27l-18 -26l-36 -45q-25 -31 -25 -49q0 -13 25 -32q26 -20 37 -20q18 0 80 108q81 -108 87 -108q30 0 69 54z" />
    <glyph glyph-name="underscore" unicode="_" horiz-adv-x="482" 
d="M516 -139v89h-516v-6l-1 -5v-78h517z" />
    <glyph glyph-name="grave" unicode="`" 
d="M253 713q-36 22 -49 58q-8 23 -12 77q-51 25 -86 35q-22 -13 -22 -47q0 -90 104 -146q16 -9 32 -9t24 8q3 4 9 24z" />
    <glyph glyph-name="a" unicode="a" horiz-adv-x="442" 
d="M427 75l-31 45q3 336 3 338q0 94 -34 138q-38 50 -128 50q-7 0 -169 -6q-4 -21 -5.5 -45t-1.5 -50v-70l20 -3h11q37 43 52 55q31 27 69 27q39 0 39 -44q0 -23 -60 -69q-42 -32 -70 -56t-42 -41q-60 -68 -60 -143q0 -56 27 -120q33 -77 80 -77q14 0 59 36q46 37 54 37
q1 0 36 -35t49 -35q28 0 102 68zM249 384l-8 -230q-23 -20 -34 -20q-23 0 -35 39q-9 27 -9 57q0 98 86 154z" />
    <glyph glyph-name="b" unicode="b" horiz-adv-x="405" 
d="M385 382q0 79 -24 151q-32 95 -88 114l-59 -42t-42 -25l3 210l-11 18l-164 -58l28 -37l-3 -625l200 -88q160 166 160 382zM246 303q0 -38 -2.5 -73.5t-7.5 -69.5q-32 3 -61 23q-2 18 -3 47t-1 71q0 33 3 98q2 33 3 57.5t1 41.5q30 -3 44 -23q24 -36 24 -172z" />
    <glyph glyph-name="c" unicode="c" horiz-adv-x="309" 
d="M283 578v22q-78 37 -140 46q-136 -223 -136 -392q0 -92 34 -164q42 -90 97 -90q12 0 143 99q-152 50 -152 268q0 35 3 71.5t10 74.5q14 -2 27.5 -5.5t27.5 -8.5q36 -13 57 -13q29 78 29 92z" />
    <glyph glyph-name="d" unicode="d" horiz-adv-x="439" 
d="M414 112q-7 10 -11.5 17.5l-7.5 12.5l4 651l-7 15q-20 0 -59 -9t-59 -9q-30 0 -113 50l77 -86q10 -11 11 -43q2 -32 4 -55.5t4 -37.5l-12 -16q-56 41 -70 46q-163 -124 -163 -352q0 -118 55 -219q42 -77 91 -77l87 87l21 -32.5t15 -23.5q19 -30 45 -30q13 0 87 81l-3 30
h4zM244 489q0 -40 -3 -121l-8 -206l-9 -3q-36 0 -56 86q-7 29 -10 59t-3 60q0 25 4 42q26 128 49 128l34 -19q1 -10 1.5 -16.5t0.5 -9.5zM413 82q-7 7 -10 29l4 1z" />
    <glyph glyph-name="e" unicode="e" 
d="M421 152l-69 -9l-25 -3t-9 -1q-97 0 -142 125l195 141q-14 72 -51 150q-49 100 -102 100q-45 0 -97 -70q-96 -128 -96 -262q0 -29 7 -63q15 -79 56 -158q49 -96 88 -96l15 4zM233 398q-12 -19 -37 -36l-21 -15.5l-21 -15.5q-5 26 -8 49t-3 43q0 64 25 104h10z" />
    <glyph glyph-name="f" unicode="f" horiz-adv-x="327" 
d="M308 556q0 2 -3 52q-33 -1 -48 -1.5t-12 -0.5q-58 0 -86 37q-1 14 -3 19q0 25 25 25q11 0 55 -32q24 0 40 34l31 65q-50 53 -132 53q-48 0 -82 -22q-40 -25 -40 -71q0 -30 19 -105h-39q-8 -5 -12 -33q-1 -5 -2 -15.5t-3 -25.5q14 -8 27 -8h23t-1 1q12 -2 19 -11l-14 -501
l7 -12q84 -3 87 -3q27 0 60 9l10 505q10 12 26 12q30 0 33 1q15 4 15 28z" />
    <glyph glyph-name="g" unicode="g" horiz-adv-x="435" 
d="M412 559l-120 52t-101 40q-186 -177 -186 -394q0 -86 30 -161q38 -95 85 -95q23 0 58 26q45 34 56 39q30 -50 30 -66q0 -54 -58 -54q-36 0 -135 45q-48 -67 -60 -134q22 -12 158 -12q233 0 233 139v51q-23 51 -23 173q0 6 0.5 38t1.5 91q1 99 3 113q2 26 9.5 53t18.5 56z
M236 473l-10 -331q-11 -6 -16 -6q-8 0 -16 5q-43 31 -43 117q0 5 3 104l2 76t15 72q55 -18 65 -37z" />
    <glyph glyph-name="h" unicode="h" horiz-adv-x="441" 
d="M418 266q0 123 -41 263q-34 118 -69 118q-7 0 -120 -65l-5 206l-30 6l-153 -64q34 -39 39 -52l-13 -663l8 -12q13 -1 28 -1h33q17 0 36 2t42 6l7 485l14 12q71 2 71 -226v-45q0 -114 -87 -333q37 -33 55 -33q1 0 4 0.5l9 1.5q47 67 76 112.5t42 70.5q54 105 54 211z" />
    <glyph glyph-name="i" unicode="i" horiz-adv-x="205" 
d="M186 607l-23 46q-9 19 -9 52q0 27 -17 27q-20 0 -131 -24q32 -66 44 -78q27 -30 81 -30q3 0 16.5 1.5t38.5 5.5zM175 572l-14 20l-156 -55l28 -36q3 -30 3 -73v-28q0 -16 -1 -39q-1 -22 -1 -39v-27v-200q0 -65 3 -89q16 -1 31.5 -1.5t32.5 -0.5q30 0 62 12z" />
    <glyph glyph-name="j" unicode="j" horiz-adv-x="213" 
d="M186 591q-16 32 -23 69q-2 8 -4.5 26l-6.5 47q-46 0 -125 -21q22 -126 121 -126q1 0 10 1.5t28 3.5zM206 -125q0 22 -21 70t-21 64l11 534q0 4 -1.5 10.5t-3.5 12.5t-5.5 10t-6.5 4q-37 0 -138 -65l22 -31q2 -19 3.5 -37.5t1.5 -37.5v-177l-0.5 -21.5l-1.5 -64.5l-5 -170
q34 -26 42 -33q21 -20 27 -45q-12 -15 -20 -15q-6 0 -28 11q-20 11 -25 11l-44 -131q60 -6 97 -6q117 0 117 107z" />
    <glyph glyph-name="k" unicode="k" horiz-adv-x="425" 
d="M407 199q0 136 -107 195l62 60q43 42 43 94q0 104 -55 104q-33 0 -119 -58q17 -63 17 -89q0 -61 -64 -91l3 394q-49 0 -185 -57q32 -32 39 -44l-10 -695l8 -12l136 5q0 24 1.5 59l3.5 83q6 94 6 143q0 23 31 33q33 -34 42 -91q3 -23 3 -103v-27q0 -15 1 -35v-62h139
q1 55 2 93t2 58l1 35v7v2v-1z" />
    <glyph glyph-name="l" unicode="l" horiz-adv-x="266" 
d="M212 796q-17 13 -31 13q-40 0 -222 -106l41.5 6t12.5 2q27 0 40 -19q0 -57 3 -169q2 -57 3 -99t1 -71q0 -85 -1.5 -170t-5.5 -170l8 -12h141z" />
    <glyph glyph-name="m" unicode="m" horiz-adv-x="692" 
d="M665 294q0 47 -6 96.5t-19 103.5q-35 152 -84 152q-24 0 -77 -35t-54 -35l-20 21l-20 20q-28 28 -46 28q-30 0 -59 -26l-58 -54q-14 6 -14 32q0 5 1 16t1 16v18q-44 0 -99 -30l-98 -53l36 -37l-5 -514l7 -12h140l16 482q23 26 37 26q15 0 29 -18l-4 -490h144
q15 177 15 264q0 25 -3 75q-1 26 -1.5 44.5t-0.5 31.5q0 55 16 83l14 3l23 -11q32 -78 32 -161q0 -56 -10 -136.5t-30 -186.5q29 -7 53 -7l72 1q36 38 56 139q16 77 16 154z" />
    <glyph glyph-name="n" unicode="n" horiz-adv-x="433" 
d="M416 354q0 35 -1.5 61t-5.5 43q-23 112 -89 174q-17 15 -30 15l-96 -60l-7 56q-50 0 -173 -75l27 -29l-5 -527q10 -12 96 -12q23 0 54 11l14 494q32 0 47 -67q10 -43 10 -97v-68q0 -11 -3.5 -40t-10.5 -77q-4 -26 -10.5 -64l-14.5 -89h131q22 45 36.5 87t21.5 84
q9 58 9 180z" />
    <glyph glyph-name="o" unicode="o" horiz-adv-x="417" 
d="M398 315q0 57 -10 100q-18 81 -59 147q-52 85 -121 85q-50 0 -117 -108q-76 -119 -76 -234q0 -127 73 -230q52 -75 106 -75q68 0 139 125q65 115 65 190zM255 256q0 -39 -26 -99q-75 102 -75 235q0 17 2 39t6 49l12 19q81 -102 81 -243z" />
    <glyph glyph-name="p" unicode="p" horiz-adv-x="456" 
d="M445 352q0 94 -48 199q-39 85 -79 85q-17 0 -46 -29q-1 -1 -10.5 -12l-26.5 -32l-14 79q-42 -5 -96 -27l-45 -21.5l-45 -21.5q39 -53 39 -119q0 -116 7 -144q-4 -16 -6.5 -34.5t-4.5 -41.5l-2 -39l-2 -38l-6 -84q-31 -4 -38 -13q-6 -8 -6 -40v-23q12 -9 21 -12q3 -1 9 -2
t15 -2q0 -106 9 -142l142 7q0 22 0.5 49t1.5 59l1.5 28.5t0.5 10.5q12 12 26 19q16 9 28 17t20 15q81 70 116 135q39 72 39 174zM306 308q0 -116 -77 -172q-4 70 -5.5 114t-1.5 63q0 37 2 75t6 80q5 1 7 1.5t1 0.5q37 0 55 -66q13 -43 13 -96z" />
    <glyph glyph-name="q" unicode="q" horiz-adv-x="483" 
d="M460 22q0 20 -15 29q-8 6 -32 13q0 103 -1.5 231t-3.5 283q-91 35 -136 35q0 -50 -9 -77q-65 80 -79 80q-45 0 -97 -88q-60 -101 -60 -208q0 -89 35 -145q30 -49 109 -102q72 -48 86 -69q-3 -146 3 -186l123 -7q9 0 17 23.5t8 60.5v61q25 13 30 18q11 11 14 30q8 8 8 18z
M264 461q0 -37 -3 -116l-8 -202q-56 38 -66 119l-3 23.5t-1 8.5q0 100 26 140q18 27 55 27z" />
    <glyph glyph-name="r" unicode="r" horiz-adv-x="391" 
d="M382 471q0 54 -15 99q-20 58 -57 77q-62 -69 -81 -81l1 63q-6 14 -18 14l-208 -92q41 -5 47 -6q27 -8 34 -28l-10 -505l11 -12h124l13 12l4 459l5 12q35 -19 49 -60q4 -10 12 -67q4 -34 21 -40q68 74 68 155z" />
    <glyph glyph-name="s" unicode="s" horiz-adv-x="398" 
d="M376 223q0 56 -40 103q-13 14 -35 33.5t-54 42.5q-65 46 -87 72q-2 14 -3.5 22t-1.5 11q0 4 6 9l66 -36q43 -22 68 -22q19 32 32.5 59t22.5 49q-128 80 -156 80q-35 0 -93 -87q-63 -95 -63 -121q0 -60 58 -117q12 -12 107 -84q58 -43 58 -72q0 -17 -12 -32
q-121 82 -148 82h-12q-46 -74 -80 -105l102 -67q64 -42 105 -42q44 0 103 89q57 85 57 133z" />
    <glyph glyph-name="t" unicode="t" horiz-adv-x="331" 
d="M309 108q-71 9 -89 62q-5 17 -5 56q0 26 0.5 65.5t1.5 92.5q3 105 3 157q13 16 32 16q5 0 15 -1t15 -1q23 0 23 29q0 54 -29 54q-4 0 -13 -1.5t-13 -1.5h-27l-6 171l-15 1.5t-6 0.5l-22 -3q-58 -148 -154 -175l-6 -73q52 -8 59 -16l-10 -402q-1 -42 28 -89q32 -50 74 -50
q16 0 144 108z" />
    <glyph glyph-name="u" unicode="u" horiz-adv-x="461" 
d="M450 14q-27 46 -27 61l4 564h-144l-14 -471q-27 -21 -50 -21q-3 0 -8.5 4.5t-10 10.5t-8 12t-3.5 9v464q-35 -4 -82 -18q-8 -2 -27.5 -9l-51.5 -18q0 -3 -1.5 -11t-1.5 -12v-12l12 -15l-4 -420q0 -32 27 -81q29 -53 58 -53q11 0 17 2l129 82q7 -13 7 -75q38 -2 63.5 -3
t37.5 -1q20 0 78 11z" />
    <glyph glyph-name="v" unicode="v" horiz-adv-x="386" 
d="M371 438q0 162 -88 208q-35 -27 -59.5 -48.5t-38.5 -38.5q71 -95 71 -230q0 -104 -48 -141q-51 114 -51 276q0 29 3 71t8 97q-76 0 -143 -23q-13 -74 -13 -162q0 -234 117 -441q24 -6 44 -6q22 0 45 6q37 60 63.5 111.5t43.5 94.5q46 116 46 226z" />
    <glyph glyph-name="w" unicode="w" horiz-adv-x="624" 
d="M613 424q0 68 -23 134q-30 88 -85 88q-56 -53 -93 -96q72 -53 79 -129q1 -5 1 -16v-26q0 -158 -31 -202q-40 93 -52 222q-6 70 -6 230q-70 -7 -88 -12q-61 -16 -61 -49q0 5 0.5 -3.5t1.5 -28.5q7 -140 9 -156q9 -68 9 -119q0 -47 -41 -91q-43 22 -47 206l-3 128
q-1 43 -1.5 74.5t-0.5 52.5q-53 0 -149 -41v-16t-1 -24t-1 -25v-17q0 -301 128 -504q26 -2 37 -3t8 -1q33 0 62 48l53 89l27 -57.5l19 -41.5q20 -38 62 -38q3 0 12 1t24 3q35 60 61 110t43 91q47 117 47 219z" />
    <glyph glyph-name="x" unicode="x" horiz-adv-x="493" 
d="M472 9l-155 349q48 45 91 115q51 82 51 134q0 7 -5 19.5t-10 12.5h-145l-3 -78q-1 -48 -25 -78q-4 3 -47 92q-35 72 -55 72q-7 0 -145 -61q38 -47 72 -118l63 -133q-78 -72 -109 -145q-26 -63 -34 -178q12 -12 31 -12l-4 1q94 0 132 7q1 66 9 118t22 94l43 -98
q52 -119 112 -121l89 -1z" />
    <glyph glyph-name="y" unicode="y" horiz-adv-x="458" 
d="M442 505q0 85 -24 124l-65.5 -16.5l-48.5 -12.5q-46 -12 -59 -17q65 -119 65 -232q0 -83 -41 -182q-83 238 -83 458l-8 5q-29 0 -89 -12q-58 -12 -88 -12l34 -60l16 -98.5l16 -104.5q30 -182 113 -356l-110 -151q33 -10 65 -10q-1 0 7.5 1.5t25.5 3.5q21 3 85 3
q10 49 27 101.5t37 107.5l42 111l43 112q40 123 40 237z" />
    <glyph glyph-name="z" unicode="z" horiz-adv-x="472" 
d="M460 181l-0.5 6t-2.5 19q-47 25 -129 45l-26 -51.5l-19 -37.5q-21 -38 -51 -38q-3 0 -28 3q78 156 222 411q-26 109 -48 108l-68 -7q-59 -6 -66 -6q-38 0 -71.5 3t-62.5 10q-60 -77 -81 -114l101 -64h18q55 90 82 90q3 0 27 -8l-232 -418l-1.5 -6t-0.5 -4l-1.5 -10.5
l-0.5 -3.5q0 -31 27 -103q84 22 170 22t155 -27l23.5 42l26.5 51q37 70 37 88z" />
    <glyph glyph-name="braceleft" unicode="{" horiz-adv-x="283" 
d="M271 -46v89q-27 0 -45.5 4t-29.5 14t-15.5 27t-4.5 44v132q0 89 -56 118q56 35 56 116v134q0 50 22 68.5t73 18.5v97h-35q-17 0 -34 1q-41 -2 -66 -12q-66 -29 -66 -125v-165q0 -74 -56 -88v-83q56 -23 56 -95v-151q0 -94 53 -123q37 -21 140 -21q3 0 4 1z" />
    <glyph glyph-name="bar" unicode="|" horiz-adv-x="236" 
d="M198 -25v829h-108v-829h108z" />
    <glyph glyph-name="braceright" unicode="}" horiz-adv-x="291" 
d="M273 340v83q-56 17 -56 94v152q0 96 -46 126q-34 22 -136 22q-16 0 -19 -1v-90q54 0 75 -18.5t21 -72.5v-133q0 -89 56 -118q-56 -30 -56 -116v-133q0 -51 -22 -69.5t-74 -18.5v-91q3 -1 8 -1h54q6 1 11 1q6 0 11 1q63 5 90 34.5t27 93.5v166q0 72 56 89z" />
    <glyph glyph-name="asciitilde" unicode="~" horiz-adv-x="533" 
d="M512 724l-56 45q-35 -69 -85 -69q-34 0 -98 33q-64 34 -97 34q-92 0 -146 -122l54 -44q39 69 88 69q30 0 139 -55q19 -10 54 -10q91 0 147 119z" />
    <glyph glyph-name="quotesinglbase" unicode="&#x201a;" horiz-adv-x="246" 
d="M235 115q0 64 -22 115q-28 70 -81 70q-108 -119 -108 -130l15 -21.5l14 -21.5q17 -26 21 -46q1 -3 1 -45q0 -46 -42 -119q28 -28 44 -28q18 0 68 49q52 48 61 64q29 56 29 113z" />
    <glyph glyph-name="florin" unicode="&#x192;" horiz-adv-x="626" 
d="M643 597q0 41 -34 65q-29 20 -72 20q-66 0 -135 -54q-60 -46 -98 -115q-14 -26 -29 -60.5t-29 -79.5h-110l-3 -13h107q-32 -123 -84 -360q-12 -54 -21 -90.5t-16 -55.5q-32 -93 -81 -93q-26 0 -24 21q14 11 26.5 22.5t12.5 33.5q0 24 -16 40t-39 16q-27 0 -45.5 -18.5
t-18.5 -45.5q0 -18 7.5 -33t19.5 -26t28 -17.5t33 -6.5q69 0 142 68q87 82 145 254q25 76 75 291h104l5 13h-107l31.5 124t20.5 68q37 102 96 102q28 0 27 -18q-43 -37 -43 -64q0 -25 17.5 -41.5t43.5 -16.5q29 0 46.5 20.5t17.5 49.5z" />
    <glyph glyph-name="quotedblbase" unicode="&#x201e;" horiz-adv-x="475" 
d="M465 115q0 64 -22 115q-28 70 -81 70q-108 -119 -108 -130l15 -21.5l14 -21.5q17 -26 21 -46q1 -3 1 -45q0 -46 -42 -119q28 -28 44 -28q18 0 68 49q52 48 61 64q29 56 29 113zM235 115q0 64 -22 115q-28 70 -81 70q-108 -119 -108 -130l15 -21.5l14 -21.5q17 -26 21 -46
q1 -3 1 -45q0 -46 -42 -119q28 -28 44 -28q18 0 68 49q52 48 61 64q29 56 29 113z" />
    <glyph glyph-name="ellipsis" unicode="&#x2026;" horiz-adv-x="1014" 
d="M982 173l-114 124q-42 0 -86 -38l-83 -74l-6 -52q87 -102 143 -133q75 51 96 70q50 48 50 103zM644 173l-114 124q-42 0 -86 -38l-83 -74l-6 -52q87 -102 143 -133q75 51 96 70q50 48 50 103zM306 173l-114 124q-42 0 -86 -38l-83 -74l-6 -52q87 -102 143 -133
q75 51 96 70q50 48 50 103z" />
    <glyph glyph-name="dagger" unicode="&#x2020;" horiz-adv-x="443" 
d="M391 459q0 45 -45 45q-19 0 -55 -16q-19 -8 -33 -12t-24 -5v5q-1 1 -1 4q0 27 19 72t19 67q0 24 -13 41t-37 17q-52 0 -52 -58q0 -19 18 -70q10 -29 15 -48t7 -30q-26 0 -65 16q-42 17 -48 17q-45 0 -45 -45q0 -44 46 -44q17 0 53 16q20 8 34.5 12t24.5 5
q-4 -71 -48 -112q48 -210 48 -492h25q0 316 45 492q-40 38 -47 112q32 -3 73 -21q25 -12 40 -12q46 0 46 44z" />
    <glyph glyph-name="daggerdbl" unicode="&#x2021;" horiz-adv-x="952" 
d="M931 266q0 122 -41 263q-34 118 -69 118q-4 0 -120 -65l-5 206l-30 6l-154 -64q34 -40 40 -52l-13 -663l8 -12q13 -1 28 -1h33q32 0 78 8l7 485l14 12q71 2 71 -226v-45q0 -116 -87 -333q37 -33 55 -33q1 0 4 0.5l9 1.5l74.5 109.5t43.5 73.5q54 106 54 211zM534 577v22
q-76 37 -140 46q-136 -220 -136 -392q0 -92 34 -164q42 -89 97 -89q12 0 143 98q-152 50 -152 268q0 35 3 71.5t10 74.5q14 -2 27.5 -5.5t27.5 -8.5q36 -13 57 -13q29 78 29 92zM307 754q-50 53 -132 53q-48 0 -82 -22q-40 -25 -40 -71q0 -22 18 -104q7 -2 8 -42
q2 -23 3 -35.5t2 -15.5l-14 -501l7 -12q84 -3 87 -3q27 0 60 9l10 505q2 11 3 20t2 15q1 23 3 38q1 9 5 9q-76 28 -88 46q-1 14 -3 19q0 25 25 25q11 0 55 -32q24 0 40 34z" />
    <glyph glyph-name="circumflex" unicode="&#x2c6;" horiz-adv-x="425" 
d="M384 934l-126 132q-21 0 -38 -16l-52.5 -49l-69.5 -68l54 -68q6 5 16.5 16.5l26.5 28.5q26 30 45 41l33 -46l7 -9t5 -7l24 -22l17 -15q37 43 58 82z" />
    <glyph glyph-name="perthousand" unicode="&#x2030;" horiz-adv-x="913" 
d="M911 211q0 67 -45 120q-40 48 -107 73q-140 -95 -140 -223q0 -142 164 -195l-4 -3q62 29 98 95q34 61 34 133zM318 617q0 67 -45 120q-41 49 -107 72q-140 -95 -140 -222q0 -144 164 -197l-4 -3q31 16 55.5 40.5t41.5 54.5t26 64.5t9 70.5zM537 760l-62 34l-400 -771
l3 -2l-3 -5l61 -28zM591 213q0 67 -45 120q-40 48 -107 72q-140 -95 -140 -222q0 -145 164 -195l-4 -3q63 29 98 94q34 61 34 134zM824 150q0 -44 -17 -70q-101 41 -101 141q0 29 18 74q100 -40 100 -145zM231 556q0 -44 -17 -70q-101 39 -101 141q0 29 18 73
q46 -18 73 -56.5t27 -87.5zM504 152q0 -45 -17 -71q-101 41 -101 142q0 29 18 73q46 -18 73 -56.5t27 -87.5z" />
    <glyph glyph-name="Scaron" unicode="&#x160;" horiz-adv-x="488" 
d="M371 985l-54 68q-6 -5 -16.5 -16.5l-26.5 -28.5q-26 -30 -45 -41l-25.5 35.5l-19.5 26.5l-24 22l-17 15q-37 -43 -58 -82l126 -132q21 0 38 16l52.5 49zM469 280q0 49 -18 90q-20 48 -60 68l-164 81q-93 47 -99 107l14 42q186 -80 217 -80h23l58 132q-78 32 -137.5 53.5
t-102.5 34.5q-184 -142 -184 -266q0 -80 71 -142q30 -27 140 -89q94 -52 114 -83q3 -38 3 -40q0 -20 -16 -35l-268 84q-26 -69 -33 -90l-13 -36t-6 -19l137 -59q76 -33 140 -33q42 0 100 85q84 123 84 195z" />
    <glyph glyph-name="guilsinglleft" unicode="&#x2039;" horiz-adv-x="278" 
d="M224 69q0 11 -7 26l-62 155q-5 15 -5 22q0 9 5 22l62 155q7 17 7 27q0 17 -19 17q-21 0 -43 -36l-103 -169q-5 -8 -5 -16t5 -16l103 -169q22 -36 43 -36q19 0 19 18z" />
    <glyph glyph-name="OE" unicode="&#x152;" horiz-adv-x="828" 
d="M816 800q-7 7 -34 7q-120 0 -200 -26q-102 -33 -162 -116q-98 143 -197 143q-54 -60 -99 -126q189 -104 222 -246q5 -23 5 -24q0 -6 -0.5 -17l-1 -22.5l-1 -22.5t-0.5 -17q0 -8 1 -23t1 -23q0 -13 -17 -55q-26 -62 -58 -62q-52 0 -92 112q-33 91 -33 177q0 37 16 86
l17.5 56t8.5 28q-18 12 -25 12q-38 0 -87 -103q-54 -113 -54 -210q0 -130 75 -245q54 -83 110 -83q112 0 198 114q78 -111 256 -111q2 0 37 0.5l102 1.5q1 5 1 9t1 7v115q0 23 1.5 52.5t5.5 65.5l-15 3l-16 -3q-26 -46 -51 -65q-32 -24 -77 -24q-54 0 -100 42
q-54 48 -54 144q0 -1 1.5 6.5t3.5 23.5q75 0 215 -32l2 184q-5 1 -11 1q-18 0 -60 -14q-20 -7 -35 -10.5t-26 -2.5l-84 2q19 71 41 106q35 53 93 53q15 0 78 -29q62 -29 62 -38q0 -3 -10 -3h20z" />
    <glyph glyph-name="quoteleft" unicode="&#x2018;" horiz-adv-x="246" 
d="M228 486l-20 31l-20 31q-11 24 -11 72t42 122q-28 28 -44 28q-17 0 -68 -48q-50 -45 -61 -68q-29 -58 -29 -113q0 -64 22 -115q28 -70 81 -70q107 119 108 130z" />
    <glyph glyph-name="quoteright" unicode="&#x2019;" horiz-adv-x="246" 
d="M235 619q0 64 -22 115q-28 70 -81 70q-108 -119 -108 -130l15 -21.5l14 -21.5q17 -26 21 -46q1 -3 1 -45q0 -49 -42 -122q28 -28 44 -28q17 0 68 48q49 47 61 68q29 58 29 113z" />
    <glyph glyph-name="quotedblleft" unicode="&#x201c;" horiz-adv-x="452" 
d="M458 486l-20 31l-20 31q-11 24 -11 72t42 122q-28 28 -44 28q-17 0 -68 -48q-50 -45 -61 -68q-29 -58 -29 -113q0 -64 22 -115q28 -70 81 -70q107 119 108 130zM228 486l-20 31l-20 31q-11 24 -11 72t42 122q-28 28 -44 28q-17 0 -68 -48q-50 -45 -61 -68
q-29 -58 -29 -113q0 -64 22 -115q28 -70 81 -70q107 119 108 130z" />
    <glyph glyph-name="quotedblright" unicode="&#x201d;" horiz-adv-x="475" 
d="M465 619q0 64 -22 115q-28 70 -81 70q-108 -119 -108 -130l15 -21.5l14 -21.5q17 -26 21 -46q1 -3 1 -45q0 -49 -42 -122q28 -28 44 -28q17 0 68 48q49 47 61 68q29 58 29 113zM235 619q0 64 -22 115q-28 70 -81 70q-108 -119 -108 -130l15 -21.5l14 -21.5q17 -26 21 -46
q1 -3 1 -45q0 -49 -42 -122q28 -28 44 -28q17 0 68 48q49 47 61 68q29 58 29 113z" />
    <glyph glyph-name="bullet" unicode="&#x2022;" horiz-adv-x="298" 
d="M-139 488q0 57 -16 96q-23 57 -69 57q-41 0 -67 -47q-22 -38 -22 -84q0 -53 17 -95q23 -56 68 -56q42 0 67 46q22 37 22 83z" />
    <glyph glyph-name="endash" unicode="&#x2013;" horiz-adv-x="430" 
d="M401 288v127h-378v-127h378z" />
    <glyph glyph-name="emdash" unicode="&#x2014;" horiz-adv-x="598" 
d="M556 288v127h-518v-127h518z" />
    <glyph glyph-name="tilde" unicode="&#x2dc;" horiz-adv-x="430" 
d="M411 794q-49 -40 -70 -40q-23 0 -80 28q-60 29 -82 29q-33 0 -70 -55l-41 -59q61 43 72 43t73 -30q61 -30 87 -30q40 0 69 47z" />
    <glyph glyph-name="trademark" unicode="&#x2122;" horiz-adv-x="1000" 
d="M990 688v28h-134l-141 -270l-131 270h-157v-28q18 0 44 -17t26 -34v-247q0 -47 -49 -50v-28h135v28q-52 0 -52 50v198h2l131 -275h16l144 275h2v-198q0 -50 -53 -50v-28h216v28q-53 0 -53 50v258q0 40 54 40zM390 628v88h-380v-88h28q9 60 61 60h46v-298q0 -50 -54 -50
v-28h218v28q-54 0 -54 50v298h46q52 0 61 -60h28z" />
    <glyph glyph-name="scaron" unicode="&#x161;" horiz-adv-x="398" 
d="M356 814l-54 68q-6 -5 -16.5 -16.5l-26.5 -28.5q-26 -30 -45 -41l-25.5 35.5l-19.5 26.5l-24 22l-17 15q-37 -43 -58 -82l126 -132q21 0 38 16l52.5 49zM376 223q0 56 -40 103q-13 14 -35 33.5t-54 42.5q-65 46 -87 72q-2 14 -3.5 22t-1.5 11q0 4 6 9l66 -36
q43 -22 68 -22q19 32 32.5 59t22.5 49q-128 80 -156 80q-35 0 -93 -87q-63 -95 -63 -121q0 -60 58 -117q12 -12 107 -84q58 -43 58 -72q0 -17 -12 -32q-121 82 -148 82h-12q-46 -74 -80 -105l102 -67q64 -42 105 -42q44 0 103 89q57 85 57 133z" />
    <glyph glyph-name="guilsinglright" unicode="&#x203a;" horiz-adv-x="278" 
d="M224 272q0 8 -5 16l-103 169q-23 36 -43 36q-19 0 -19 -17q0 -10 7 -27l62 -155q5 -13 5 -22q0 -7 -5 -22l-62 -155q-7 -15 -7 -26q0 -18 19 -18q20 0 43 36l103 169q5 8 5 16z" />
    <glyph glyph-name="oe" unicode="&#x153;" horiz-adv-x="666" 
d="M668 152l-74 -9l-21 -3t-8 -1q-97 0 -142 125l195 141q-14 72 -51 150q-49 100 -102 100q-58 0 -125 -114q-55 106 -132 106q-50 0 -117 -108q-76 -119 -76 -234q0 -127 73 -230q52 -75 106 -75q68 0 134 117q52 -111 95 -111l15 4zM480 398q-12 -19 -37 -36l-21 -15.5
l-21 -15.5q-5 26 -8 49t-3 43q0 64 25 104h10zM255 256q0 -39 -26 -99q-75 102 -75 235q0 17 2 39t6 49l12 19q81 -102 81 -243z" />
    <glyph glyph-name="Ydieresis" unicode="&#x178;" horiz-adv-x="491" 
d="M421 955l-69 75q-25 0 -51 -23l-50 -44l-4 -32q56 -63 86 -79q45 30 57 42q31 28 31 61zM221 955l-69 75q-25 0 -51 -23l-50 -44l-4 -32q56 -63 86 -79q45 30 57 42q31 28 31 61zM490 617q-50 44 -138 49q51 0 80 42q16 24 35 88q-9 -1 -28.5 -5.5t-29.5 -4.5
q-16 0 -54 11q-36 11 -53 11q-73 0 -118 -81q-8 29 -13 45.5t-7 20.5l-163 -3q52 -64 101 -277l71 -304l-27.5 -37.5t-13.5 -19.5q-23 -37 -23 -65q0 -27 18 -55q19 -32 45 -30l219 6q14 67 21 111.5t7 66.5l-17 2l-22.5 -32l-22.5 -32q-30 -35 -65 -35q-31 0 -31 37
q0 17 46 94q97 166 126 276q14 58 14 180v12q-59 -41 -112 -41q1 -14 1 -27v-24q0 -149 -61 -243l-5 5l-42 141q-21 82 -21 145q13 36 39 36q161 -95 231 -101q3 11 6 20.5t7 17.5z" />
    <glyph glyph-name="exclamdown" unicode="&#xa1;" horiz-adv-x="245" 
d="M198 721q-36 64 -86 87q-20 -16 -40.5 -36t-42.5 -46q61 -81 87 -81q21 0 82 76zM215 61l-39 36l-12 258q-5 88 -6 130q-4 42 -7.5 73t-5.5 51l-15 4h-22q-3 0 -12 -1t-25 -3q-26 -146 -39 -295t-13 -304l8 -10q53 0 188 61z" />
    <glyph glyph-name="cent" unicode="&#xa2;" horiz-adv-x="401" 
d="M394 285q0 5 -3 14h-22q-45 -20 -70 -20q-76 0 -123 65q-42 58 -42 137q0 72 42 72q17 0 33 -7t28 -18.5t19.5 -27t7.5 -32.5q0 -6 -1 -18.5t-1 -18.5q0 -18 11 -18q9 0 32 36l28.5 44t22.5 32q5 8 9.5 13t7.5 9q8 14 8 22q0 41 -70 60q-19 5 -37 9l-35 8v83h-28v-52
t-1 -32q0 -7 -1 -8l-47 -27l-34 -19q-109 -66 -109 -182q0 -177 192 -225v-101h28v104l45 19l45 19q65 33 65 60z" />
    <glyph glyph-name="sterling" unicode="&#xa3;" horiz-adv-x="596" 
d="M588 128h-9q-24 -85 -93 -85q-58 0 -116 43l-57 42l-17.5 12.5t-7.5 5.5q-43 23 -95 23q-12 0 -15 -1l77 46q46 28 60 63h225v11h-222q3 18 3 28q0 25 -60 114q-59 89 -59 107q0 50 45 76q37 22 90 22q48 0 92 -12q62 -17 62 -52q0 -19 -30 -26q-39 -9 -45 -15
q-23 -23 -23 -57q0 -18 7.5 -34t20.5 -27t30 -17.5t36 -6.5q43 0 70 27t27 72q0 82 -81 126q-66 36 -156 36q-103 0 -181 -48q-92 -56 -92 -153q0 -87 91 -160h-130v-11h143q31 -28 31 -51q0 -11 -55 -57q-61 -50 -69 -62q-26 -38 -33 -90h13q9 67 54 67q27 0 53 -21
l24.5 -24l17.5 -17q86 -80 175 -80q81 0 137 53q53 52 62 133z" />
    <glyph glyph-name="currency" unicode="&#xa4;" horiz-adv-x="693" 
d="M674 109l-101 100q38 71 38 129q0 67 -41 135l101 101l-80 80l-104 -102q-71 36 -128 36q-62 0 -132 -37l-105 104l-81 -81l104 -102q-40 -70 -40 -133q0 -65 38 -130l-102 -102l80 -79l101 100q77 -41 141 -41t132 41l101 -100zM476 339q0 -51 -33 -84t-84 -33
q-24 0 -45.5 9t-37 25t-24.5 37.5t-9 45.5q0 51 33 84.5t84 33.5t83.5 -33.5t32.5 -84.5z" />
    <glyph glyph-name="yen" unicode="&#xa5;" horiz-adv-x="644" 
d="M641 667h-174l-147 -286l-148 283h-170l128 -219h-109v-60h141l58 -100h-181v-61h200v-224h161v224h205v61h-186l60 100h140v60h-107z" />
    <glyph glyph-name="brokenbar" unicode="&#xa6;" horiz-adv-x="360" 
d="M309 334v313h-118v-313h118zM309 -143v276h-118v-276h118z" />
    <glyph glyph-name="section" unicode="&#xa7;" horiz-adv-x="544" 
d="M526 90q0 72 -61 130q55 55 55 126q0 123 -125 165l-46 14.5l-33 10.5q-154 49 -154 114q0 50 46 80q41 26 93 26q38 0 73 -13q48 -17 48 -46q0 -10 -22 -17q-32 -11 -42 -18q-22 -16 -22 -47q0 -15 7 -29t18 -24t26 -16t31 -6q36 0 61 25t25 61q0 49 -43 86
q-65 57 -171 57q-86 0 -147 -44q-67 -48 -67 -132q0 -44 18 -74q17 -26 55 -54q-80 -69 -80 -139q0 -80 66 -122q34 -22 137 -52q54 -16 84.5 -27t38.5 -16q36 -26 36 -76q0 -57 -53 -90q-44 -28 -106 -28q-67 0 -108 29q-32 23 -32 39q0 11 23 16q33 4 42 9q23 12 23 46
q0 35 -23.5 59t-58.5 24q-33 0 -59 -22t-26 -55q0 -54 58 -100q70 -58 177 -58q97 0 163 45q75 51 75 143zM480 284q0 -24 -28 -58q-50 30 -124 53l-129 40q-26 7 -49 27q-27 22 -27 47q0 29 36 62l146 -53q82 -29 106 -42q69 -35 69 -76z" />
    <glyph glyph-name="dieresis" unicode="&#xa8;" horiz-adv-x="430" 
d="M382 785l-69 75q-25 0 -51 -23l-50 -44l-4 -32q56 -63 86 -79q45 30 57 42q31 28 31 61zM182 785l-69 75q-25 0 -51 -23l-50 -44l-4 -32q56 -63 86 -79q45 30 57 42q31 28 31 61z" />
    <glyph glyph-name="copyright" unicode="&#xa9;" horiz-adv-x="745" 
d="M730 333q0 141 -100 244t-241 103q-155 0 -253 -97q-98 -96 -98 -250q0 -81 39 -157q45 -90 126.5 -138t181.5 -48q145 0 245 98q100 99 100 245zM657 333q0 -120 -77 -200t-195 -80q-119 0 -197 80q-77 82 -77 200q0 120 76 200q76 81 196 81q117 0 195 -82
q79 -80 79 -199zM564 297h-71q-12 -82 -104 -82q-51 0 -76 36q-24 33 -24 84q0 52 24 85q25 37 76 37q83 0 100 -63h71q-6 65 -56 104t-116 39q-87 0 -139 -57q-52 -55 -52 -144q0 -91 49 -144q51 -57 140 -57q38 0 69.5 11t54.5 32t37 51t17 68z" />
    <glyph glyph-name="ordfeminine" unicode="&#xaa;" horiz-adv-x="319" 
d="M299 321l-6 9q-14 -9 -19 -9q-20 0 -20 45v56q0 46 5 59q15 8 28 10v9q-65 26 -103 67q-40 -28 -95 -51q-34 -13 -46 -27q-14 -17 -14 -51v-72q0 -21 2.5 -36.5t9.5 -27.5t18 -23t29 -23l35 30.5l42 36.5q4 -35 57 -67q14 17 33 33t44 32zM164 339q-23 -18 -28 -18
q-15 0 -15 53v141q24 -28 43 -37v-139z" />
    <glyph glyph-name="guillemotleft" unicode="&#xab;" horiz-adv-x="297" 
d="M273 437l-7 8q-120 -168 -120 -200q0 -24 111 -196l9 6l-33 194zM148 437l-8 8q-120 -170 -120 -200q0 -24 112 -196l8 6l-33 194z" />
    <glyph glyph-name="logicalnot" unicode="&#xac;" horiz-adv-x="600" 
d="M552 109v301h-504v-100h404v-201h100z" />
    <glyph glyph-name="registered" unicode="&#xae;" horiz-adv-x="745" 
d="M730 333q0 141 -100 244t-241 103q-155 0 -253 -97q-98 -96 -98 -250q0 -81 39 -157q45 -90 126.5 -138t181.5 -48q145 0 245 98q100 99 100 245zM657 333q0 -120 -77 -200t-195 -80q-122 0 -198 78q-76 79 -76 202q0 120 76 200q76 81 196 81q117 0 195 -82
q79 -80 79 -199zM546 144q-11 23 -12 68q-1 26 -3 43t-4 25q-12 35 -49 48q63 28 63 93q0 108 -140 108h-163v-385h92v157h43q47 0 64 -32q10 -19 12 -67q1 -44 10 -58h87zM450 414q0 -60 -69 -60h-51v118h56q64 0 64 -58z" />
    <glyph glyph-name="degree" unicode="&#xb0;" horiz-adv-x="390" 
d="M369 533q0 58 -66 99l-82 51l-76 -37.5t-38 -21.5q-57 -42 -57 -107q0 -60 65 -90l97 -45l79 39q78 39 78 112zM284 505q0 -58 -47 -81q-53 29 -69 44q-33 28 -33 72q0 61 59 96q50 -34 66 -52q24 -30 24 -79z" />
    <glyph glyph-name="plusminus" unicode="&#xb1;" horiz-adv-x="402" 
d="M393 279v76h-144v125h-77v-125h-145v-76h144v-126h77v126h145zM393 37v77h-366v-77h366z" />
    <glyph glyph-name="twosuperior" unicode="&#xb2;" horiz-adv-x="268" 
d="M246 514q0 58 -33 91t-93 33q-43 0 -77 -32q-32 -32 -32 -75q0 -34 23 -56.5t57 -22.5q23 0 39 13.5t16 36.5q0 37 -27 37q-17 -21 -23 -21q-15 0 -23.5 12.5t-8.5 27.5q0 19 13 32t32 13q57 0 57 -75q0 -54 -40 -115q-23 -36 -75 -91q-40 -43 -40 -51q0 -11 15 -11
q8 0 24 1.5t24 1.5l44 -1q29 -1 41 -1t7 -1h-1q70 0 70 59q0 8 -5 20t-12 12q-3 0 -17 -17q-7 -10 -51 -10q-29 0 -29 8q0 4 32 34q41 38 61 65q32 44 32 83z" />
    <glyph glyph-name="threesuperior" unicode="&#xb3;" horiz-adv-x="268" 
d="M250 376q0 31 -18 54q-11 14 -44 38l-3 3l-2 2q2 2 3.5 3t2.5 2q47 29 47 81q0 40 -33 63q-28 19 -72 19t-70 -19q-31 -22 -31 -63q0 -50 46 -50q21 0 21 10q0 3 -3 10.5t-3 10.5q0 17 16 27.5t34 10.5q40 0 40 -34q0 -33 -36 -57q-29 -20 -67 -26v-23q21 -2 36 -6.5
t25 -9.5q27 -17 27 -54q0 -28 -18.5 -45.5t-46.5 -17.5q-30 0 -30 14v2l5 12q0 7 -11.5 12.5t-19.5 5.5q-31 0 -31 -32q0 -31 37 -46q27 -11 63 -11q57 0 94 28q42 31 42 86z" />
    <glyph glyph-name="acute" unicode="&#xb4;" 
d="M357 836q0 34 -22 47q-35 -10 -86 -35q-4 -54 -12 -77q-13 -36 -49 -58q6 -20 10 -24q6 -8 23 -8q15 0 32 9q104 56 104 146z" />
    <glyph glyph-name="paragraph" unicode="&#xb6;" horiz-adv-x="526" 
d="M537 609v58h-257q-226 0 -226 -177q0 -40 13 -72t37 -54t57 -33.5t74 -11.5h13v-428h74v718h89v-718h74v718h52z" />
    <glyph glyph-name="periodcentered" unicode="&#xb7;" horiz-adv-x="296" 
d="M215 320q0 27 -20 42.5t-47 15.5t-47 -15.5t-20 -42.5t20 -42.5t47 -15.5t47 15.5t20 42.5z" />
    <glyph glyph-name="periodcentered" unicode="&#x2219;" horiz-adv-x="296" 
d="M215 320q0 27 -20 42.5t-47 15.5t-47 -15.5t-20 -42.5t20 -42.5t47 -15.5t47 15.5t20 42.5z" />
    <glyph glyph-name="cedilla" unicode="&#xb8;" horiz-adv-x="278" 
d="M243 -94q0 32 -28 44q-4 2 -18 4t-38 6l48 55l-35 17l-20 -22l-20 -22q-29 -35 -29 -46q0 -10 19 -11h15q8 0 16 -1q19 -4 19 -20q0 -27 -23 -27q-6 0 -15 2.5l-19 5.5l-19 5.5t-15 2.5q-26 0 -41 -40q7 7 25 7q17 0 53 -14t53 -14q30 0 51 19.5t21 48.5z" />
    <glyph glyph-name="onesuperior" unicode="&#xb9;" horiz-adv-x="249" 
d="M209 276q0 4 -7 14q-29 47 -29 166q0 16 1 36t3 46q4 64 6 81v4q1 18 -19 18q-10 0 -23 -15q-42 -48 -70 -65q-14 -8 -14 -15q0 -13 17 -13q6 0 19 5.5t19 5.5q4 0 4 -7q0 -196 -37 -246q-9 -12 -9 -15q0 -13 16 -13q10 0 31 1.5t31 1.5q7 0 20.5 -2t20.5 -2q20 0 20 14z
" />
    <glyph glyph-name="ordmasculine" unicode="&#xba;" horiz-adv-x="291" 
d="M267 434q0 50 -11 78q-13 32 -54 61q-58 -49 -141 -49q-8 1 -13.5 1.5t-10.5 0.5v-161q0 -15 -4 -20.5t-19 -7.5v-9q76 -25 121 -72q16 39 70 54q50 14 59 50q3 12 3 74zM174 331l-45 30v157q45 -11 45 -88v-99z" />
    <glyph glyph-name="guillemotright" unicode="&#xbb;" horiz-adv-x="298" 
d="M280 245q0 35 -120 200l-8 -8l41 -188l-33 -194l7 -6q10 14 26 39l38 62q49 82 49 95zM154 245q0 30 -120 200l-7 -8l40 -188l-33 -194l7 -6q113 167 113 196z" />
    <glyph glyph-name="onequarter" unicode="&#xbc;" horiz-adv-x="629" 
d="M613 135q0 36 -36 36q-14 0 -14 -7l3.5 -10.5t2.5 -6.5q0 -13 -19 -17l-1 37q0 2 1 11l3 26q7 58 12 87v4q2 11 -11 11q-7 0 -29 -39q-21 -38 -26 -52q-11 -57 -15 -88q-1 -10 -8 -10q-8 0 -28 5q-21 6 -21 12q0 4 51 96q52 91 52 119q0 24 -24 24h-15q-5 -1 -9 -1h-6
q-7 0 -22 2t-23 2q-15 0 -15 -12q0 -3 11 -23t11 -29q0 -34 -57 -179q-8 -21 -8 -30q0 -22 45 -22h62q0 -45 -19 -58q-13 -9 -13 -14q0 -9 13 -9h119q16 0 16 9q-37 40 -37 75q54 12 54 51zM524 605l-41 25l-378 -619l41 -22zM209 276q0 4 -7 14q-29 47 -29 166q0 16 1 36
t3 46q4 64 6 81v4q1 18 -19 18q-10 0 -23 -15q-42 -48 -70 -65q-14 -8 -14 -15q0 -13 17 -13q6 0 19 5.5t19 5.5q4 0 4 -7q0 -196 -37 -246q-9 -12 -9 -15q0 -13 16 -13q10 0 31 1.5t31 1.5q7 0 20.5 -2t20.5 -2q20 0 20 14z" />
    <glyph glyph-name="onehalf" unicode="&#xbd;" horiz-adv-x="629" 
d="M611 252q0 58 -33 91t-93 33q-43 0 -77 -32q-32 -32 -32 -75q0 -34 22.5 -56.5t57.5 -22.5q23 0 39 14t16 36q0 13 -7.5 25t-19.5 12q-17 -21 -23 -21q-15 0 -23.5 12.5t-8.5 27.5q0 19 13 32t32 13q57 0 57 -75q0 -54 -40 -115q-23 -36 -75 -91q-40 -43 -40 -51
q0 -9 15 -9q8 0 23 0.5t23 0.5h19t27 -1h46h2h-1q70 0 70 57q0 8 -5 20t-12 12q-3 0 -17 -17q-7 -10 -51 -10q-29 0 -29 8q0 4 32 34q41 38 61 65q32 44 32 83zM524 605l-41 25l-378 -619l41 -22zM209 276q0 4 -7 14q-29 47 -29 166q0 16 1 36t3 46q4 64 6 81v4q1 18 -19 18
q-10 0 -23 -15q-42 -48 -70 -65q-14 -8 -14 -15q0 -13 17 -13q6 0 19 5.5t19 5.5q4 0 4 -7q0 -196 -37 -246q-9 -12 -9 -15q0 -13 16 -13q10 0 31 1.5t31 1.5q7 0 20.5 -2t20.5 -2q20 0 20 14z" />
    <glyph glyph-name="threequarters" unicode="&#xbe;" horiz-adv-x="629" 
d="M614 135q0 15 -11 25.5t-26 10.5q-10 0 -14 -7q6 -14 6 -17q0 -13 -19 -17q-1 8 -1 18v22q0 13 2.5 33t7.5 47q6 33 6 41q0 15 -11 15q-7 0 -29 -39q-10 -17 -16 -31t-10 -25l-3.5 -16.5l-10.5 -50.5q-1 -4 -1 -8v-8q-2 -11 -8 -11q-8 0 -28 5q-21 6 -21 12q0 7 52 96
t52 119q0 24 -25 24h-14q-5 -1 -9 -1h-6q-8 0 -23.5 2t-23.5 2q-14 0 -14 -12q0 -2 11 -22t11 -30q0 -35 -57 -179q-8 -21 -8 -30q0 -22 45 -22h62q0 -45 -19 -58q-13 -9 -13 -14q0 -9 13 -9h119q16 0 16 9q-37 34 -37 75q55 12 55 51zM524 605l-40 25l-379 -619l41 -22z
M250 376q0 31 -18 54q-11 14 -44 38l-3 3l-2 2q2 2 3.5 3t2.5 2q47 29 47 81q0 40 -33 63q-28 19 -72 19t-70 -19q-31 -22 -31 -63q0 -50 46 -50q21 0 21 10q0 3 -3 10.5t-3 10.5q0 17 16 27.5t34 10.5q40 0 40 -34q0 -33 -36 -57q-29 -20 -67 -26v-23q21 -2 36 -6.5
t25 -9.5q27 -17 27 -54q0 -28 -18.5 -45.5t-46.5 -17.5q-30 0 -30 14v2l5 12q0 7 -11.5 12.5t-19.5 5.5q-31 0 -31 -32q0 -31 37 -46q27 -11 63 -11q57 0 94 28q42 31 42 86z" />
    <glyph glyph-name="questiondown" unicode="&#xbf;" horiz-adv-x="374" 
d="M288 729q0 16 -30 48q-28 31 -46 31q-28 0 -47 -25l-43 -54q61 -79 79 -79q20 0 53 30q34 30 34 49zM361 143q0 25 -4 37q-4 1 -8 1h-8q-13 0 -41 -11q-26 -10 -41 -10q-83 0 -83 125q0 42 42 128l59 119q-23 2 -39 3t-24 1q-10 0 -25 -5q-27 -10 -86 -118
q-84 -155 -84 -218q0 -99 41 -146q43 -49 142 -49q31 0 78 32q81 55 81 111z" />
    <glyph glyph-name="Agrave" unicode="&#xc0;" horiz-adv-x="559" 
d="M369 884q-36 22 -49 58q-8 23 -12 77q-51 25 -86 35q-22 -13 -22 -47q0 -90 104 -146q16 -9 32 -9t24 8q3 4 9 24zM526 418q-2 162 -3.5 258.5t-1.5 128.5l-432 -4q-2 -29 -3.5 -43.5t-1.5 -16.5q0 -16 11 -33q19 1 36 1.5t34 0.5q18 0 41 -6q-57 -78 -79 -139
q-26 -72 -26 -158v-30t1 -43q1 -24 1.5 -42t0.5 -30q0 -128 -35 -180q-26 -38 -65 -77l231 4q34 58 34 116q0 39 -6 84t-17 97q30 11 55 11q26 0 60 -7l3 -305l147 -1l13 8v170q0 76 1 133l1 98v5v0zM359 449l-120 -2l8 86.5t5 44.5q16 81 62 111q22 15 30 15l15 -3v-252z
" />
    <glyph glyph-name="Aacute" unicode="&#xc1;" horiz-adv-x="559" 
d="M463 1007q0 34 -22 47q-35 -10 -86 -35q-4 -54 -12 -77q-13 -36 -49 -58q6 -20 10 -24q6 -8 23 -8q15 0 32 9q104 56 104 146zM526 418q-2 162 -3.5 258.5t-1.5 128.5l-432 -4q-2 -29 -3.5 -43.5t-1.5 -16.5q0 -16 11 -33q19 1 36 1.5t34 0.5q18 0 41 -6
q-57 -78 -79 -139q-26 -72 -26 -158v-30t1 -43q1 -24 1.5 -42t0.5 -30q0 -128 -35 -180q-26 -38 -65 -77l231 4q34 58 34 116q0 39 -6 84t-17 97q30 11 55 11q26 0 60 -7l3 -305l147 -1l13 8v170q0 76 1 133l1 98v5v0zM359 449l-120 -2l8 86.5t5 44.5q16 81 62 111
q22 15 30 15l15 -3v-252z" />
    <glyph glyph-name="Acircumflex" unicode="&#xc2;" horiz-adv-x="559" 
d="M478 934l-126 132q-21 0 -38 -16l-52.5 -49l-69.5 -68l54 -68q6 5 16.5 16.5l26.5 28.5q26 30 45 41l33 -46l7 -9t5 -7l24 -22l17 -15q37 43 58 82zM526 418q-2 162 -3.5 258.5t-1.5 128.5l-432 -4q-2 -29 -3.5 -43.5t-1.5 -16.5q0 -16 11 -33q19 1 36 1.5t34 0.5
q18 0 41 -6q-57 -78 -79 -139q-26 -72 -26 -158v-30t1 -43q1 -24 1.5 -42t0.5 -30q0 -128 -35 -180q-26 -38 -65 -77l231 4q34 58 34 116q0 39 -6 84t-17 97q30 11 55 11q26 0 60 -7l3 -305l147 -1l13 8v170q0 76 1 133l1 98v5v0zM359 449l-120 -2l8 86.5t5 44.5
q16 81 62 111q22 15 30 15l15 -3v-252z" />
    <glyph glyph-name="Atilde" unicode="&#xc3;" horiz-adv-x="559" 
d="M492 966q-46 -40 -70 -40q-23 0 -80 28q-60 29 -82 29q-33 0 -70 -55l-41 -59q61 43 72 43t73 -30q61 -30 87 -30q40 0 69 47zM526 418q-2 162 -3.5 258.5t-1.5 128.5l-432 -4q-2 -29 -3.5 -43.5t-1.5 -16.5q0 -16 11 -33q19 1 36 1.5t34 0.5q18 0 41 -6
q-57 -78 -79 -139q-26 -72 -26 -158v-30t1 -43q1 -24 1.5 -42t0.5 -30q0 -128 -35 -180q-26 -38 -65 -77l231 4q34 58 34 116q0 39 -6 84t-17 97q30 11 55 11q26 0 60 -7l3 -305l147 -1l13 8v170q0 76 1 133l1 98v5v0zM359 449l-120 -2l8 86.5t5 44.5q16 81 62 111
q22 15 30 15l15 -3v-252z" />
    <glyph glyph-name="Adieresis" unicode="&#xc4;" horiz-adv-x="559" 
d="M484 955l-69 75q-13 0 -53 -24l-48 -30l-4 -45q56 -63 86 -79q45 30 57 42q31 28 31 61zM284 955l-69 75q-25 0 -51 -23l-50 -44l-4 -32q56 -63 86 -79q45 30 57 42q31 28 31 61zM526 418q-2 162 -3.5 258.5t-1.5 128.5l-432 -4q-2 -29 -3.5 -43.5t-1.5 -16.5
q0 -16 11 -33q19 1 36 1.5t34 0.5q18 0 41 -6q-57 -78 -79 -139q-26 -72 -26 -158v-30t1 -43q1 -24 1.5 -42t0.5 -30q0 -128 -35 -180q-26 -38 -65 -77l231 4q34 58 34 116q0 39 -6 84t-17 97q30 11 55 11q26 0 60 -7l3 -305l147 -1l13 8v170q0 76 1 133l1 98v5v0zM359 449
l-120 -2l8 86.5t5 44.5q16 81 62 111q22 15 30 15l15 -3v-252z" />
    <glyph glyph-name="Aring" unicode="&#xc5;" horiz-adv-x="559" 
d="M381 933q0 87 -51 87q-61 0 -61 -77q0 -91 52 -91q26 0 43 27q17 28 17 54zM526 418q-2 162 -3.5 258.5t-1.5 128.5l-432 -4q-2 -29 -3.5 -43.5t-1.5 -16.5q0 -16 11 -33q19 1 36 1.5t34 0.5q18 0 41 -6q-57 -78 -79 -139q-26 -72 -26 -158v-30t1 -43q1 -24 1.5 -42
t0.5 -30q0 -128 -35 -180q-26 -38 -65 -77l231 4q34 58 34 116q0 39 -6 84t-17 97q30 11 55 11q26 0 60 -7l3 -305l147 -1l13 8v170q0 76 1 133l1 98v5v0zM347 929q0 -15 -18 -15q-26 0 -26 27q0 18 19 18q25 0 25 -30zM359 449l-120 -2l8 86.5t5 44.5q16 81 62 111
q22 15 30 15l15 -3v-252z" />
    <glyph glyph-name="AE" unicode="&#xc6;" horiz-adv-x="849" 
d="M837 800q-7 7 -34 7q-184 0 -282 -65v63l-432 -4q-2 -29 -3.5 -43.5t-1.5 -16.5q0 -16 11 -33q18 1 35.5 1.5t34.5 0.5q18 0 41 -6q-57 -78 -79 -139q-26 -72 -26 -158v-30t1 -43q1 -24 1.5 -42t0.5 -30q0 -127 -35 -180q-26 -38 -65 -77l231 4q34 58 34 116q0 39 -6 84
t-17 97q30 11 55 11q26 0 60 -7l3 -305l147 -1l13 8v23q75 -32 163 -32q2 0 36.5 0.5l101.5 1.5q1 5 1 9t1 7q1 76 0 115q0 23 1.5 52.5t5.5 65.5l-15 3l-16 -3q-26 -46 -51 -65q-32 -24 -77 -24q-48 0 -86.5 29.5t-54.5 74.5q-9 25 -9 30v17t1 24v41q38 0 91.5 -8
t123.5 -24l2 184q-5 1 -11 1q-18 0 -60 -14q-20 -7 -35 -10.5t-26 -2.5l-84 2q19 71 41 106q35 53 93 53q15 0 78 -29q62 -29 62 -38q0 -3 -10 -3h20zM359 449l-120 -2l8 86.5t5 44.5q16 81 62 111q22 15 30 15l15 -3v-252z" />
    <glyph glyph-name="Ccedilla" unicode="&#xc7;" horiz-adv-x="520" 
d="M513 804h-43t-60 1t-59.5 1.5t-42.5 0.5q-132 0 -216 -134q-38 -59 -54 -117q-25 -84 -25 -240q0 -144 71 -226q75 -85 218 -90q-56 -61 -56 -73q0 -10 19 -11q16 -1 23 -1h9q18 -5 18 -20q0 -27 -23 -27q-6 0 -15 2.5l-19 5.5l-19 5.5t-15 2.5q-28 0 -41 -40q7 7 25 7
q17 0 53 -14t53 -14q30 0 51 19.5t21 48.5q0 32 -28 44q-4 2 -18 4t-38 6l48 55h-1q127 5 140 9q-4 35 -5.5 62t-1.5 45q0 5 2 57l6 153q-14 11 -28 11q-1 0 -6 -0.5t-16 -1.5q-57 -178 -140 -178q-135 0 -135 182q0 5 0.5 27.5t1.5 62.5q7 238 141 238q36 0 36 -75
q-37 -78 -59 -129t-29 -76q38 -47 56 -50l119 272.5z" />
    <glyph glyph-name="Egrave" unicode="&#xc8;" horiz-adv-x="499" 
d="M369 884q-36 22 -49 58q-8 23 -12 77q-51 25 -86 35q-22 -13 -22 -47q0 -90 104 -146q16 -9 32 -9t24 8q3 4 9 24zM488 801q-7 7 -34 7q-206 0 -307 -82q-111 -90 -123 -298q-2 -35 -3 -58t-1 -36q0 -157 79 -242q82 -88 239 -88q2 0 36.5 0.5l101.5 1.5q1 5 1 9t1 7v115
q0 23 1.5 52.5t5.5 65.5l-15 3l-16 -3q-26 -46 -51 -65q-32 -24 -77 -24q-54 0 -100 42q-54 48 -54 144q0 -1 1.5 6.5t3.5 23.5h54q26 0 80 -14q61 -15 81 -18l2 184q-5 1 -11 1q-18 0 -60 -14q-20 -7 -35 -10.5t-26 -2.5l-84 2q19 71 41 106q35 53 93 53q15 0 78 -29
q62 -29 62 -38q0 -3 -10 -3h20z" />
    <glyph glyph-name="Eacute" unicode="&#xc9;" horiz-adv-x="499" 
d="M463 1007q0 34 -22 47q-35 -10 -86 -35q-4 -54 -12 -77q-13 -36 -49 -58q6 -20 10 -24q6 -8 23 -8q15 0 32 9q104 56 104 146zM488 801q-7 7 -34 7q-206 0 -307 -82q-111 -90 -123 -298q-2 -35 -3 -58t-1 -36q0 -157 79 -242q82 -88 239 -88q2 0 36.5 0.5l101.5 1.5
q1 5 1 9t1 7v115q0 23 1.5 52.5t5.5 65.5l-15 3l-16 -3q-26 -46 -51 -65q-32 -24 -77 -24q-54 0 -100 42q-54 48 -54 144q0 -1 1.5 6.5t3.5 23.5h54q26 0 80 -14q61 -15 81 -18l2 184q-5 1 -11 1q-18 0 -60 -14q-20 -7 -35 -10.5t-26 -2.5l-84 2q19 71 41 106q35 53 93 53
q15 0 78 -29q62 -29 62 -38q0 -3 -10 -3h20z" />
    <glyph glyph-name="Ecircumflex" unicode="&#xca;" horiz-adv-x="499" 
d="M478 934l-126 132q-21 0 -38 -16l-52.5 -49l-69.5 -68l54 -68q6 5 16.5 16.5l26.5 28.5q26 30 45 41l33 -46l7 -9t5 -7l24 -22l17 -15q37 43 58 82zM488 801q-7 7 -34 7q-206 0 -307 -82q-111 -90 -123 -298q-2 -35 -3 -58t-1 -36q0 -157 79 -242q82 -88 239 -88
q2 0 36.5 0.5l101.5 1.5q1 5 1 9t1 7v115q0 23 1.5 52.5t5.5 65.5l-15 3l-16 -3q-26 -46 -51 -65q-32 -24 -77 -24q-54 0 -100 42q-54 48 -54 144q0 -1 1.5 6.5t3.5 23.5h54q26 0 80 -14q61 -15 81 -18l2 184q-5 1 -11 1q-18 0 -60 -14q-20 -7 -35 -10.5t-26 -2.5l-84 2
q19 71 41 106q35 53 93 53q15 0 78 -29q62 -29 62 -38q0 -3 -10 -3h20z" />
    <glyph glyph-name="Edieresis" unicode="&#xcb;" horiz-adv-x="499" 
d="M484 955l-69 75q-25 0 -51 -23l-50 -44l-4 -32q56 -63 86 -79q45 30 57 42q31 28 31 61zM284 955l-69 75q-25 0 -51 -23l-50 -44l-4 -32q56 -63 86 -79q45 30 57 42q31 28 31 61zM488 801q-7 7 -34 7q-206 0 -307 -82q-111 -90 -123 -298q-2 -35 -3 -58t-1 -36
q0 -157 79 -242q82 -88 239 -88q2 0 36.5 0.5l101.5 1.5q1 5 1 9t1 7v115q0 23 1.5 52.5t5.5 65.5l-15 3l-16 -3q-26 -46 -51 -65q-32 -24 -77 -24q-54 0 -100 42q-54 48 -54 144q0 -1 1.5 6.5t3.5 23.5h54q26 0 80 -14q61 -15 81 -18l2 184q-5 1 -11 1q-18 0 -60 -14
q-20 -7 -35 -10.5t-26 -2.5l-84 2q19 71 41 106q35 53 93 53q15 0 78 -29q62 -29 62 -38q0 -3 -10 -3h20z" />
    <glyph glyph-name="Igrave" unicode="&#xcc;" horiz-adv-x="434" 
d="M227 884q-36 22 -49 58q-8 23 -12 77q-51 25 -86 35q-22 -13 -22 -47q0 -90 104 -146q16 -9 32 -9t24 8q3 4 9 24zM412 803l-378 -2l-3 -131l55 -4l14 -1l6 -1q3 0 9 0.5t14 1.5q7 1 12 1h10q11 0 29 -5l-63 -36q-19 -10 -35.5 -15.5t-32.5 -7.5l44 -52q18 -23 18 -62
v-12l-18 -258l1 19q0 -19 -1.5 -47.5l-3.5 -66.5t-3 -66.5t-1 -47.5l8 -10h134q1 142 1.5 223t0.5 103q0 28 1 68.5t3 95.5l3.5 96t1.5 68l12 12v-69q0 -40 1 -94t1 -95v-67q0 -81 -1.5 -163t-5.5 -166l6 -12q45 0 59 6q0 190 1 315t3 188l3 94q1 14 1 25v19q3 18 9 23
q18 2 39 3t44 1z" />
    <glyph glyph-name="Iacute" unicode="&#xcd;" horiz-adv-x="434" 
d="M389 1007q0 34 -22 47q-35 -10 -86 -35q-4 -54 -12 -77q-13 -36 -49 -58q6 -20 10 -24q6 -8 23 -8q15 0 32 9q104 56 104 146zM412 803l-378 -2l-3 -131l55 -4l14 -1l6 -1q3 0 9 0.5t14 1.5q7 1 12 1h10q11 0 29 -5l-63 -36q-19 -10 -35.5 -15.5t-32.5 -7.5l44 -52
q18 -23 18 -62v-12l-18 -258l1 19q0 -19 -1.5 -47.5l-3.5 -66.5t-3 -66.5t-1 -47.5l8 -10h134q1 142 1.5 223t0.5 103q0 28 1 68.5t3 95.5l3.5 96t1.5 68l12 12v-69q0 -40 1 -94t1 -95v-67q0 -81 -1.5 -163t-5.5 -166l6 -12q45 0 59 6q0 190 1 315t3 188l3 94q1 14 1 25v19
q3 18 9 23q18 2 39 3t44 1z" />
    <glyph glyph-name="Icircumflex" unicode="&#xce;" horiz-adv-x="434" 
d="M372 934l-126 132q-21 0 -38 -16l-52.5 -49l-69.5 -68l54 -68q6 5 16.5 16.5l26.5 28.5q26 30 45 41l33 -46l7 -9t5 -7l24 -22l17 -15q37 43 58 82zM412 803l-378 -2l-3 -131l55 -4l14 -1l6 -1q3 0 9 0.5t14 1.5q7 1 12 1h10q11 0 29 -5l-63 -36q-19 -10 -35.5 -15.5
t-32.5 -7.5l44 -52q18 -23 18 -62v-12l-18 -258l1 19q0 -19 -1.5 -47.5l-3.5 -66.5t-3 -66.5t-1 -47.5l8 -10h134q1 142 1.5 223t0.5 103q0 28 1 68.5t3 95.5l3.5 96t1.5 68l12 12v-69q0 -40 1 -94t1 -95v-67q0 -81 -1.5 -163t-5.5 -166l6 -12q45 0 59 6q0 190 1 315t3 188
l3 94q1 14 1 25v19q3 18 9 23q18 2 39 3t44 1z" />
    <glyph glyph-name="Idieresis" unicode="&#xcf;" horiz-adv-x="434" 
d="M410 955l-69 75q-25 0 -51 -23l-50 -44l-4 -32q56 -63 86 -79q45 30 57 42q31 28 31 61zM210 955l-69 75q-25 0 -51 -23l-50 -44l-4 -32q56 -63 86 -79q45 30 57 42q31 28 31 61zM412 803l-378 -2l-3 -131l55 -4l14 -1l6 -1q3 0 9 0.5t14 1.5q7 1 12 1h10q11 0 29 -5
l-63 -36q-19 -10 -35.5 -15.5t-32.5 -7.5l44 -52q18 -23 18 -62v-12l-18 -258l1 19q0 -19 -1.5 -47.5l-3.5 -66.5t-3 -66.5t-1 -47.5l8 -10h134q1 142 1.5 223t0.5 103q0 28 1 68.5t3 95.5l3.5 96t1.5 68l12 12v-69q0 -40 1 -94t1 -95v-67q0 -81 -1.5 -163t-5.5 -166l6 -12
q45 0 59 6q0 190 1 315t3 188l3 94q1 14 1 25v19q3 18 9 23q18 2 39 3t44 1z" />
    <glyph glyph-name="Eth" unicode="&#xd0;" horiz-adv-x="702" 
d="M680 267q0 122 -41 263q-34 118 -69 118q-7 0 -120 -65l-5 206l-30 6l-154 -64q34 -40 40 -52l-13 -663l8 -12q13 -1 28 -1h33q17 0 36 2t42 6l7 485l14 12q71 2 71 -226v-45q0 -116 -87 -333q37 -33 55 -33q1 0 4 0.5l9 1.5q46 65 75.5 110.5t43.5 72.5q53 108 53 211z
M283 578v22q-78 37 -140 46q-136 -223 -136 -392q0 -92 34 -164q42 -90 97 -90q12 0 143 99q-152 50 -152 268q0 35 3 71.5t10 74.5q14 -2 27.5 -5.5t27.5 -8.5q36 -13 57 -13q29 78 29 92z" />
    <glyph glyph-name="Ntilde" unicode="&#xd1;" horiz-adv-x="520" 
d="M460 966q-49 -40 -70 -40q-23 0 -80 28q-60 29 -82 29q-33 0 -70 -55l-41 -59q61 43 72 43t73 -30q61 -30 87 -30q40 0 69 47zM495 698q1 28 -23 28q-6 0 -29 -14q40 37 50 87q-13 7 -27 7q-18 0 -57 -14q-36 -13 -58 -13q-17 0 -41 3.5t-56 10.5q-65 15 -97 15
q-99 0 -109 -30q-14 -48 -21 -75q-10 -33 -10 -36q0 -17 5 -25q16 4 52 4q31 0 63 -17l-98 -63l-9 -562h158l10 623q130 0 225 69q-81 -80 -122 -226q-34 -120 -34 -259q0 -43 2.5 -89t7.5 -96l16 -26q110 0 166 6q-29 172 -29 288q0 54 2 92t6 61l16 88.5t22 109.5
q4 16 5.5 24l1.5 8q7 13 12 21z" />
    <glyph glyph-name="Ograve" unicode="&#xd2;" horiz-adv-x="527" 
d="M264 884q-36 22 -49 58q-8 23 -12 77q-51 25 -86 35q-22 -13 -22 -47q0 -90 104 -146q16 -9 32 -9t24 8q3 4 9 24zM496 410q0 192 -131 323q-75 75 -142 75q-54 -60 -99 -126q231 -126 231 -319q0 -57 -6 -84q-4 -18 -10.5 -34.5t-14.5 -32.5q-23 -42 -49 -42
q-52 0 -92 112q-33 90 -33 177q0 36 15 86l27 84q-17 12 -25 12q-38 0 -87 -103q-54 -113 -54 -210q0 -131 75 -246q52 -82 110 -82q97 0 177 89q108 120 108 321z" />
    <glyph glyph-name="Oacute" unicode="&#xd3;" horiz-adv-x="527" 
d="M417 1007q0 34 -22 47q-35 -10 -86 -35q-4 -54 -12 -77q-13 -36 -49 -58q6 -20 10 -24q6 -8 23 -8q15 0 32 9q104 56 104 146zM496 410q0 192 -131 323q-75 75 -142 75q-54 -60 -99 -126q231 -126 231 -319q0 -57 -6 -84q-4 -18 -10.5 -34.5t-14.5 -32.5q-23 -42 -49 -42
q-52 0 -92 112q-33 90 -33 177q0 36 15 86l27 84q-17 12 -25 12q-38 0 -87 -103q-54 -113 -54 -210q0 -131 75 -246q52 -82 110 -82q97 0 177 89q108 120 108 321z" />
    <glyph glyph-name="Ocircumflex" unicode="&#xd4;" horiz-adv-x="527" 
d="M387 934l-126 132q-21 0 -38 -16l-52.5 -49l-69.5 -68l54 -68q6 5 16.5 16.5l26.5 28.5q26 30 45 41l33 -46l7 -9t5 -7l24 -22l17 -15q37 43 58 82zM496 410q0 192 -131 323q-75 75 -142 75q-54 -60 -99 -126q231 -126 231 -319q0 -57 -6 -84q-4 -18 -10.5 -34.5
t-14.5 -32.5q-23 -42 -49 -42q-52 0 -92 112q-33 90 -33 177q0 36 15 86l27 84q-17 12 -25 12q-38 0 -87 -103q-54 -113 -54 -210q0 -131 75 -246q52 -82 110 -82q97 0 177 89q108 120 108 321z" />
    <glyph glyph-name="Otilde" unicode="&#xd5;" horiz-adv-x="527" 
d="M447 966q-49 -40 -70 -40q-23 0 -80 28q-60 29 -82 29q-33 0 -70 -55l-41 -59q61 43 72 43t73 -30q61 -30 87 -30q40 0 69 47zM496 410q0 192 -131 323q-75 75 -142 75q-54 -60 -99 -126q231 -125 231 -319q0 -57 -6 -84q-4 -18 -10.5 -34.5t-14.5 -32.5q-23 -42 -49 -42
q-52 0 -92 112q-33 90 -33 177q0 36 15 86l27 84q-17 12 -25 12q-38 0 -87 -103q-54 -113 -54 -210q0 -131 75 -246q52 -82 110 -82q97 0 177 89q108 120 108 321z" />
    <glyph glyph-name="Odieresis" unicode="&#xd6;" horiz-adv-x="527" 
d="M445 955l-69 75q-25 0 -51 -23l-50 -44l-4 -32q56 -63 86 -79q45 30 57 42q31 28 31 61zM245 955l-69 75q-25 0 -51 -23l-50 -44l-4 -32q56 -63 86 -79q45 30 57 42q31 28 31 61zM496 410q0 192 -131 323q-75 75 -142 75q-54 -60 -99 -126q231 -126 231 -319
q0 -57 -6 -84q-4 -18 -10.5 -34.5t-14.5 -32.5q-23 -42 -49 -42q-52 0 -92 112q-33 90 -33 177q0 36 15 86l27 84q-17 12 -25 12q-38 0 -87 -103q-54 -113 -54 -210q0 -131 75 -246q52 -82 110 -82q97 0 177 89q108 120 108 321z" />
    <glyph glyph-name="multiply" unicode="&#xd7;" horiz-adv-x="387" 
d="M367 156l-103 103l103 102l-55 54l-102 -102l-103 102l-54 -54l102 -102l-102 -103l54 -54l103 102l102 -102z" />
    <glyph glyph-name="Oslash" unicode="&#xd8;" horiz-adv-x="527" 
d="M507 774l-57 33l-55 -106q-90 107 -172 107q-54 -60 -99 -126q122 -67 181 -153l-125 -239q-30 87 -30 169q0 36 15 86l27 84q-17 12 -25 12q-38 0 -87 -103q-54 -113 -54 -210q0 -113 59 -220l-58 -108l59 -39l44 82q39 -43 81 -43q97 0 177 89q108 120 108 321
q0 129 -58 229zM355 363q0 -57 -6 -84q-4 -18 -10.5 -34.5t-14.5 -32.5q-23 -42 -49 -42q-32 0 -58 41l125 242q13 -42 13 -90z" />
    <glyph glyph-name="Ugrave" unicode="&#xd9;" horiz-adv-x="549" 
d="M315 884q-36 22 -49 58q-8 23 -12 77q-51 25 -86 35q-22 -13 -22 -47q0 -90 104 -146q16 -9 32 -9t24 8q3 4 9 24zM542 111q-42 51 -43 65q-3 61 -3 93l-3 537q-7 1 -10 1.5t-4 0.5q-10 0 -144 -113v-482q-23 -35 -59 -35q-54 0 -82 85q-21 61 -21 131q0 229 199 413
l-346 -7l-3 -30q1 3 1 -21v-81q90 0 110 -4l-2 -15q-67 -70 -93 -157q-20 -72 -20 -183q0 -204 165 -309l149 111q18 -78 93 -108q34 27 62.5 54t53.5 54z" />
    <glyph glyph-name="Uacute" unicode="&#xda;" horiz-adv-x="549" 
d="M429 1007q0 34 -22 47q-35 -10 -86 -35q-4 -54 -12 -77q-13 -36 -49 -58q6 -20 10 -24q6 -8 23 -8q15 0 32 9q104 56 104 146zM542 111q-42 51 -43 65q-3 61 -3 93l-3 537q-7 1 -10 1.5t-4 0.5q-10 0 -144 -113v-482q-23 -35 -59 -35q-54 0 -82 85q-21 61 -21 131
q0 229 199 413l-346 -7l-3 -30q1 3 1 -21v-81q90 0 110 -4l-2 -15q-67 -70 -93 -157q-20 -72 -20 -183q0 -204 165 -309l149 111q18 -78 93 -108q34 27 62.5 54t53.5 54z" />
    <glyph glyph-name="Ucircumflex" unicode="&#xdb;" horiz-adv-x="549" 
d="M436 934l-126 132q-21 0 -38 -16l-52.5 -49l-69.5 -68l54 -68q6 5 16.5 16.5l26.5 28.5q26 30 45 41l33 -46l7 -9t5 -7l24 -22l17 -15q37 43 58 82zM542 111q-42 51 -43 65q-3 61 -3 93l-3 537q-7 1 -10 1.5t-4 0.5q-10 0 -144 -113v-482q-23 -35 -59 -35q-54 0 -82 85
q-21 61 -21 131q0 229 199 413l-346 -7l-3 -30q1 3 1 -21v-81q90 0 110 -4l-2 -15q-67 -70 -93 -157q-20 -72 -20 -183q0 -204 165 -309l149 111q18 -78 93 -108q34 27 62.5 54t53.5 54z" />
    <glyph glyph-name="Udieresis" unicode="&#xdc;" horiz-adv-x="549" 
d="M484 955l-69 75q-25 0 -51 -23l-50 -44l-4 -32q56 -63 86 -79q45 30 57 42q31 28 31 61zM284 955l-69 75q-25 0 -51 -23l-50 -44l-4 -32q56 -63 86 -79q45 30 57 42q31 28 31 61zM542 111q-42 51 -43 65q-3 61 -3 93l-3 537q-7 1 -10 1.5t-4 0.5q-10 0 -144 -113v-482
q-23 -35 -59 -35q-54 0 -82 85q-21 61 -21 131q0 229 199 413l-346 -7l-3 -30q1 3 1 -21v-81q90 0 110 -4l-2 -15q-67 -70 -93 -157q-20 -72 -20 -183q0 -204 165 -309l149 111q18 -78 93 -108q34 27 62.5 54t53.5 54z" />
    <glyph glyph-name="Yacute" unicode="&#xdd;" horiz-adv-x="491" 
d="M398 1008q0 34 -22 47q-35 -10 -86 -35q-4 -54 -12 -77q-13 -36 -49 -58q6 -20 10 -24q6 -8 23 -8q15 0 32 9q104 56 104 146zM467 796q-9 -1 -28.5 -5.5t-29.5 -4.5q-16 0 -54 11q-36 11 -53 11q-73 0 -118 -81q-8 29 -13 45.5t-7 20.5l-163 -3q52 -64 101 -277l71 -304
l-27.5 -37.5t-13.5 -19.5q-23 -38 -23 -65t18 -55q19 -32 45 -30l219 6q14 67 21 111.5t7 66.5l-17 2l-30 -40.5t-21 -29.5q-23 -29 -59 -29q-31 0 -31 37q0 17 46 94q97 166 126 276q14 58 14 180v12q-59 -41 -112 -41q1 -14 1 -27v-24q0 -149 -61 -243l-5 5l-42 141
q-21 82 -21 145q13 36 39 36q-105 -67 -140 -112l24 -27q71 24 222 125q51 0 80 42q16 24 35 88z" />
    <glyph glyph-name="Thorn" unicode="&#xde;" horiz-adv-x="1448" 
d="M1426 -38v838h-1404v-838h1404zM1401 562q0 -29 -22 -50t-51 -21h-146q-35 0 -35 -45v-302q0 -30 19 -42v-56q-72 16 -72 86v322q0 96 115 96q16 0 48 -3q17 -1 29 -1.5t20 -0.5q40 0 40 21q0 19 -41 19q-8 0 -20 -0.5t-28 -1.5t-27.5 -1.5t-19.5 -0.5q-116 0 -116 88
v131h57v-131q0 -35 37 -35h148q28 0 46.5 -21.5t18.5 -50.5zM1014 136q0 -39 -23.5 -63.5t-62.5 -24.5h-282q-30 0 -50 20t-20 50t17.5 51.5t47.5 21.5h279v-53h-270q-20 0 -20 -18q0 -21 22 -21h250q61 0 61 45v76q0 45 -45 45h-250q-42 0 -67 25t-25 67v89q0 45 26.5 73.5
t71.5 28.5h246q76 0 89 -76h-50q-20 21 -43 21h-244q-41 0 -41 -43v-95q0 -37 41 -37h246q43 0 69.5 -23t26.5 -65v-94zM507 800l-1 -684q0 -30 -21.5 -52t-51.5 -22q-32 0 -52 22t-20 55v60t-1 51q0 54 -1 58q-44 51 -87 93l-95 93q-14 14 -27 14q-10 0 -17 -6
q-8 -26 -8 -32v-310q0 -43 35 -43h81q13 6 25 21h53q-14 -72 -77 -72h-82q-88 0 -88 96v330q0 31 26 51q23 17 56 17t52 -19l179 -177q31 -31 31 -75v-151q0 -21 19 -21q6 0 12 7.5t6 13.5l-2 682h56z" />
    <glyph glyph-name="germandbls" unicode="&#xdf;" horiz-adv-x="498" 
d="M481 291q0 82 -87 118q-46 19 -46 23q0 6 60 77q60 70 60 81q0 9 -6 15l-163 3t-53 1q-6 0 -25 -10v6q-8 10 -14 31q-2 8 -4.5 17t-4.5 18q-5 20 -37 58q7 4 11 7t6 5q7 -1 30 -20q25 -17 28 -17q12 0 37 19t25 30q0 12 -61 51q-142 -44 -195 -106q0 -2 14 -25
q14 -22 14 -41q0 -21 -50 -33q9 -33 49 -59l-12 -536l105 -2l-2 2h44q0 10 36 16q45 8 46 9q64 35 126 113q69 85 69 149zM310 470l-97 -127l3 138l79 -1q5 0 15 -10zM357 193q0 -21 -8.5 -39t-23.5 -31t-34.5 -20.5t-41.5 -7.5q-28 0 -41 7l5 213q13 -6 45 -12
q29 -6 42 -11q57 -29 57 -99z" />
    <glyph glyph-name="agrave" unicode="&#xe0;" horiz-adv-x="442" 
d="M253 713q-36 22 -49 58q-8 23 -12 77q-51 25 -86 35q-22 -13 -22 -47q0 -90 104 -146q16 -9 32 -9t24 8q3 4 9 24zM427 75l-31 45q3 336 3 338q0 94 -34 138q-38 50 -128 50q-7 0 -169 -6q-4 -21 -5.5 -45t-1.5 -50v-70l20 -3h11q37 43 52 55q31 27 69 27q39 0 39 -44
q0 -23 -60 -69q-42 -32 -70 -56t-42 -41q-60 -68 -60 -143q0 -56 27 -120q33 -77 80 -77q14 0 59 36q46 37 54 37q1 0 36 -35t49 -35q28 0 102 68zM249 384l-8 -230q-23 -20 -34 -20q-23 0 -35 39q-9 27 -9 57q0 98 86 154z" />
    <glyph glyph-name="aacute" unicode="&#xe1;" horiz-adv-x="442" 
d="M357 836q0 34 -22 47q-35 -10 -86 -35q-4 -54 -12 -77q-13 -36 -49 -58q6 -20 10 -24q6 -8 23 -8q15 0 32 9q104 56 104 146zM427 75l-31 45q3 336 3 338q0 94 -34 138q-38 50 -128 50q-7 0 -169 -6q-4 -21 -5.5 -45t-1.5 -50v-70l20 -3h11q37 43 52 55q31 27 69 27
q39 0 39 -44q0 -23 -60 -69q-42 -32 -70 -56t-42 -41q-60 -68 -60 -143q0 -56 27 -120q33 -77 80 -77q14 0 59 36q46 37 54 37q1 0 36 -35t49 -35q28 0 102 68zM249 384l-8 -230q-23 -20 -34 -20q-23 0 -35 39q-9 27 -9 57q0 98 86 154z" />
    <glyph glyph-name="acircumflex" unicode="&#xe2;" horiz-adv-x="442" 
d="M360 763l-126 132q-21 0 -38 -16l-52.5 -49l-69.5 -68l54 -68q6 5 16.5 16.5l26.5 28.5q26 30 45 41l33 -46l7 -9t5 -7l24 -22l17 -15q37 43 58 82zM427 75l-31 45q3 336 3 338q0 94 -34 138q-38 50 -128 50q-7 0 -169 -6q-4 -21 -5.5 -45t-1.5 -50v-70l20 -3h11
q37 43 52 55q31 27 69 27q39 0 39 -44q0 -23 -60 -69q-42 -32 -70 -56t-42 -41q-60 -68 -60 -143q0 -56 27 -120q33 -77 80 -77q14 0 59 36q46 37 54 37q1 0 36 -35t49 -35q28 0 102 68zM249 384l-8 -230q-23 -20 -34 -20q-23 0 -35 39q-9 27 -9 57q0 98 86 154z" />
    <glyph glyph-name="atilde" unicode="&#xe3;" horiz-adv-x="442" 
d="M411 794q-49 -40 -70 -40q-23 0 -80 28q-60 29 -82 29q-33 0 -70 -55l-41 -59q61 43 72 43t73 -30q61 -30 87 -30q40 0 69 47zM427 75l-31 45q3 336 3 338q0 94 -34 138q-38 50 -128 50q-7 0 -169 -6q-4 -21 -5.5 -45t-1.5 -50v-70l20 -3h11l30 34t22 22q32 26 69 26
q39 0 39 -44q0 -23 -60 -69q-42 -32 -70 -56t-42 -41q-60 -68 -60 -143q0 -56 27 -120q33 -77 80 -77q14 0 59 36q46 37 54 37q1 0 36 -35t49 -35q28 0 102 68zM249 384l-8 -230q-23 -20 -34 -20q-23 0 -35 39q-9 27 -9 57q0 98 86 154z" />
    <glyph glyph-name="adieresis" unicode="&#xe4;" horiz-adv-x="442" 
d="M424 784l-69 75q-25 0 -51 -23l-50 -44l-4 -32q56 -63 86 -79q45 30 57 42q31 28 31 61zM224 784l-69 75q-25 0 -51 -23l-50 -44l-4 -32q56 -63 86 -79q45 30 57 42q31 28 31 61zM427 75l-31 45q3 336 3 338q0 94 -34 138q-38 50 -128 50q-7 0 -169 -6q-4 -21 -5.5 -45
t-1.5 -50v-70l20 -3h11q37 43 52 55q31 27 69 27q39 0 39 -44q0 -23 -60 -69q-42 -32 -70 -56t-42 -41q-60 -68 -60 -143q0 -56 27 -120q33 -77 80 -77q14 0 59 36q46 37 54 37q1 0 36 -35t49 -35q28 0 102 68zM249 384l-8 -230q-23 -20 -34 -20q-23 0 -35 39q-9 27 -9 57
q0 98 86 154z" />
    <glyph glyph-name="aring" unicode="&#xe5;" horiz-adv-x="442" 
d="M277 761q0 87 -51 87q-61 0 -61 -77q0 -91 52 -91q26 0 43 27q17 28 17 54zM427 75l-31 45q3 336 3 338q0 94 -34 138q-38 50 -128 50q-7 0 -169 -6q-4 -21 -5.5 -45t-1.5 -50v-70l20 -3h11q37 43 52 55q31 27 69 27q39 0 39 -44q0 -23 -60 -69q-42 -32 -70 -56t-42 -41
q-60 -68 -60 -143q0 -56 27 -120q33 -77 80 -77q14 0 59 36q46 37 54 37q1 0 36 -35t49 -35q28 0 102 68zM243 757q0 -15 -18 -15q-26 0 -26 27q0 18 19 18q25 0 25 -30zM249 384l-8 -230q-23 -20 -34 -20q-23 0 -35 39q-9 27 -9 57q0 98 86 154z" />
    <glyph glyph-name="ae" unicode="&#xe6;" horiz-adv-x="680" 
d="M679 152l-72 -9q-14 -2 -22 -3t-9 -1q-97 0 -142 125l195 141q-15 87 -60 164q-50 86 -93 86q-49 0 -101 -76q-34 67 -139 67q-6 0 -168 -6q-4 -21 -5.5 -46.5t-1.5 -54.5v-64l20 -3h11q37 43 52 55q31 27 69 27q39 0 39 -44q0 -22 -60 -68q-42 -32 -69.5 -56.5
t-42.5 -41.5q-60 -69 -60 -143q0 -56 27 -120q33 -77 80 -77q14 0 59 36q46 37 54 37l41 -41q31 -29 44 -29q12 0 59 33q27 -34 50 -34l15 4zM491 398q-12 -19 -37 -36l-21 -15.5l-21 -15.5q-5 26 -8 49t-3 43q0 64 25 104h10zM249 384l-8 -230q-23 -20 -34 -20
q-23 0 -35 39q-9 27 -9 57q0 98 86 154z" />
    <glyph glyph-name="ccedilla" unicode="&#xe7;" horiz-adv-x="310" 
d="M300 578v22q-78 37 -140 46q-136 -220 -136 -390q0 -70 21 -133q25 -77 72 -111l-17 -56q35 0 35 -22q0 -23 -22 -23l-15 3l-1 10l-5 -9l-3 2l-7 -21q16 -10 37 -10q43 0 43 49q0 46 -28 46q-4 -1 -7.5 -2t-6.5 -2l11 28q10 -2 11 -2q42 0 156 96q-86 30 -123 105
q-29 61 -29 162q0 70 13 147l32.5 -7t23.5 -7q36 -13 55 -13q30 73 30 92z" />
    <glyph glyph-name="egrave" unicode="&#xe8;" 
d="M253 713q-36 22 -49 58q-8 23 -12 77q-51 25 -86 35q-22 -13 -22 -47q0 -90 104 -146q16 -9 32 -9t24 8q3 4 9 24zM421 152l-69 -9l-25 -3t-9 -1q-97 0 -142 125l195 141q-15 87 -60 164q-51 86 -93 86q-45 0 -97 -70q-96 -128 -96 -262q0 -29 7 -63q15 -79 56 -158
q49 -96 88 -96l15 4zM233 398q-12 -19 -37 -36l-21 -15.5l-21 -15.5q-5 26 -8 49t-3 43q0 64 25 104h10z" />
    <glyph glyph-name="eacute" unicode="&#xe9;" 
d="M357 836q0 34 -22 47q-35 -10 -86 -35q-4 -54 -12 -77q-13 -36 -49 -58q6 -20 10 -24q6 -8 23 -8q15 0 32 9q104 56 104 146zM421 152l-69 -9l-25 -3t-9 -1q-97 0 -142 125l195 141q-15 87 -60 164q-51 86 -93 86q-45 0 -97 -70q-96 -128 -96 -262q0 -29 7 -63
q15 -79 56 -158q49 -96 88 -96l15 4zM233 398q-12 -19 -37 -36l-21 -15.5l-21 -15.5q-5 26 -8 49t-3 43q0 64 25 104h10z" />
    <glyph glyph-name="ecircumflex" unicode="&#xea;" 
d="M356 763l-126 132q-21 0 -38 -16l-52.5 -49l-69.5 -68l54 -68q6 5 16.5 16.5l26.5 28.5q26 30 45 41l33 -46l7 -9t5 -7l24 -22l17 -15q37 43 58 82zM421 152l-69 -9l-25 -3t-9 -1q-97 0 -142 125l195 141q-15 87 -60 164q-51 86 -93 86q-45 0 -97 -70q-96 -128 -96 -262
q0 -29 7 -63q15 -79 56 -158q49 -96 88 -96l15 4zM233 398q-12 -19 -37 -36l-21 -15.5l-21 -15.5q-5 26 -8 49t-3 43q0 64 25 104h10z" />
    <glyph glyph-name="edieresis" unicode="&#xeb;" 
d="M395 784l-69 75q-25 0 -51 -23l-50 -44l-4 -32q56 -63 86 -79q45 30 57 42q31 28 31 61zM195 784l-69 75q-25 0 -51 -23l-50 -44l-4 -32q56 -63 86 -79q45 30 57 42q31 28 31 61zM421 152l-69 -9l-25 -3t-9 -1q-97 0 -142 125l195 141q-15 87 -60 164q-51 86 -93 86
q-45 0 -97 -70q-96 -128 -96 -262q0 -29 7 -63q15 -79 56 -158q49 -96 88 -96l15 4zM233 398q-12 -19 -37 -36l-21 -15.5l-21 -15.5q-5 26 -8 49t-3 43q0 64 25 104h10z" />
    <glyph glyph-name="igrave" unicode="&#xec;" horiz-adv-x="205" 
d="M152 713q-36 22 -49 58q-8 23 -12 77q-51 25 -86 35q-19 -13 -19 -47q0 -54 26 -89q22 -29 75 -57q16 -9 32 -9t24 8q3 4 9 24zM175 572l-14 20l-156 -55l28 -36q3 -30 3 -73v-28q0 -16 -1 -39q-1 -22 -1 -39v-27v-200q0 -65 3 -89q16 -1 31.5 -1.5t32.5 -0.5q30 0 62 12
z" />
    <glyph glyph-name="iacute" unicode="&#xed;" horiz-adv-x="205" 
d="M239 836q0 34 -22 47q-35 -10 -86 -35q-4 -54 -12 -77q-13 -36 -49 -58q6 -20 10 -24q6 -8 23 -8q15 0 32 9q104 56 104 146zM175 572l-14 20l-156 -55l28 -36q3 -30 3 -73v-28q0 -16 -1 -39q-1 -22 -1 -39v-27v-200q0 -65 3 -89q16 -1 31.5 -1.5t32.5 -0.5q30 0 62 12z
" />
    <glyph glyph-name="icircumflex" unicode="&#xee;" horiz-adv-x="205" 
d="M250 763l-126 132q-21 0 -38 -16l-65 -60t-54 -57l51 -68q6 5 16.5 16.5l26.5 28.5q26 30 45 41l33 -46l7 -9t5 -7l24 -22l17 -15q37 43 58 82zM175 572l-14 20l-156 -55l28 -36q3 -30 3 -73v-28q0 -16 -1 -39q-1 -22 -1 -39v-27v-200q0 -65 3 -89q16 -1 31.5 -1.5
t32.5 -0.5q30 0 62 12z" />
    <glyph glyph-name="idieresis" unicode="&#xef;" horiz-adv-x="205" 
d="M274 784l-69 75q-25 0 -51 -23l-50 -44l-4 -32q56 -63 86 -79q45 30 57 42q31 28 31 61zM74 784l-69 75q-22 0 -48 -23l-50 -44l-4 -32q56 -63 86 -79q42 30 55 43q30 28 30 60zM175 572l-14 20l-156 -55l28 -36q3 -30 3 -73v-28q0 -16 -1 -39q-1 -22 -1 -39v-27v-200
q0 -65 3 -89q16 -1 31.5 -1.5t32.5 -0.5q30 0 62 12z" />
    <glyph glyph-name="eth" unicode="&#xf0;" horiz-adv-x="682" 
d="M662 201q0 136 -107 195l62 60q43 42 43 94q0 104 -55 104q-25 0 -119 -58q17 -63 17 -89q0 -61 -64 -91l3 394q-43 0 -185 -57q39 -38 39 -44l-10 -695l8 -12l136 5q0 24 1.5 59l3.5 83q6 94 6 143q0 23 31 33q33 -34 42 -91q3 -23 3 -103v-27q0 -15 1 -35v-62h139
q1 55 2 93t2 58l1 35v7v2v-1zM283 578v22q-78 37 -140 46q-136 -223 -136 -392q0 -92 34 -164q42 -90 97 -90q12 0 143 99q-152 50 -152 268q0 35 3 71.5t10 74.5q14 -2 27.5 -5.5t27.5 -8.5q36 -13 57 -13q29 78 29 92z" />
    <glyph glyph-name="ntilde" unicode="&#xf1;" horiz-adv-x="433" 
d="M411 794q-49 -40 -70 -40q-23 0 -80 28q-60 29 -82 29q-33 0 -70 -55l-41 -59q61 43 72 43t73 -30q61 -30 87 -30q40 0 69 47zM416 354q0 35 -1.5 61t-5.5 43q-23 112 -89 174q-17 15 -30 15l-96 -60l-7 56q-50 0 -173 -75l27 -29l-5 -527q10 -12 96 -12q23 0 54 11
l14 494q32 0 47 -67q10 -43 10 -97v-68q0 -11 -3.5 -40t-10.5 -77q-4 -26 -10.5 -64l-14.5 -89h131q22 45 36.5 87t21.5 84q9 58 9 180z" />
    <glyph glyph-name="ograve" unicode="&#xf2;" horiz-adv-x="417" 
d="M253 713q-36 22 -49 58q-8 23 -12 77q-51 25 -86 35q-22 -13 -22 -47q0 -90 104 -146q16 -9 32 -9t24 8q3 4 9 24zM398 315q0 57 -10 100q-18 81 -59 147q-52 85 -121 85q-50 0 -117 -108q-76 -119 -76 -234q0 -127 73 -230q52 -75 106 -75q68 0 139 125q65 115 65 190z
M255 256q0 -39 -26 -99q-75 102 -75 235q0 17 2 39t6 49l12 19q81 -102 81 -243z" />
    <glyph glyph-name="oacute" unicode="&#xf3;" horiz-adv-x="417" 
d="M357 836q0 34 -22 47q-35 -10 -86 -35q-4 -54 -12 -77q-13 -36 -49 -58q6 -20 10 -24q6 -8 23 -8q15 0 32 9q104 56 104 146zM398 315q0 57 -10 100q-18 81 -59 147q-52 85 -121 85q-50 0 -117 -108q-76 -119 -76 -234q0 -127 73 -230q52 -75 106 -75q68 0 139 125
q65 115 65 190zM255 256q0 -39 -26 -99q-75 102 -75 235q0 17 2 39t6 49l12 19q81 -102 81 -243z" />
    <glyph glyph-name="ocircumflex" unicode="&#xf4;" horiz-adv-x="417" 
d="M346 763l-126 132q-21 0 -38 -16l-52.5 -49l-69.5 -68l54 -68q6 5 16.5 16.5l26.5 28.5q26 30 45 41l33 -46l7 -9t5 -7l24 -22l17 -15q37 43 58 82zM398 315q0 57 -10 100q-18 81 -59 147q-52 85 -121 85q-50 0 -117 -108q-76 -119 -76 -234q0 -127 73 -230
q52 -75 106 -75q68 0 139 125q65 115 65 190zM255 256q0 -39 -26 -99q-75 102 -75 235q0 17 2 39t6 49l12 19q81 -102 81 -243z" />
    <glyph glyph-name="otilde" unicode="&#xf5;" horiz-adv-x="417" 
d="M384 795q-49 -40 -70 -40q-23 0 -80 28q-60 29 -82 29q-33 0 -70 -55l-41 -59q61 43 72 43t73 -30q61 -30 87 -30q40 0 69 47zM398 315q0 57 -10 100q-18 81 -59 147q-52 85 -121 85q-50 0 -117 -108q-76 -119 -76 -234q0 -127 73 -230q52 -75 106 -75q68 0 139 125
q65 115 65 190zM255 256q0 -39 -26 -99q-75 102 -75 235q0 17 2 39t6 49l12 19q81 -102 81 -243z" />
    <glyph glyph-name="odieresis" unicode="&#xf6;" horiz-adv-x="417" 
d="M405 784l-69 75q-25 0 -51 -23l-50 -44l-4 -32q56 -63 86 -79q45 30 57 42q31 28 31 61zM205 784l-69 75q-25 0 -51 -23l-50 -44l-4 -32q56 -63 86 -79q45 30 57 42q31 28 31 61zM398 315q0 57 -10 100q-18 81 -59 147q-52 85 -121 85q-50 0 -117 -108q-76 -119 -76 -234
q0 -127 73 -230q52 -75 106 -75q68 0 139 125q65 115 65 190zM255 256q0 -39 -26 -99q-75 102 -75 235q0 17 2 39t6 49l12 19q81 -102 81 -243z" />
    <glyph glyph-name="divide" unicode="&#xf7;" horiz-adv-x="473" 
d="M307 531q0 24 -16 40.5t-40 16.5t-40.5 -16.5t-16.5 -40.5t16 -40.5t40 -16.5t40.5 16.5t16.5 40.5zM490 322v74h-480v-74h480zM306 186q0 24 -16 41t-40 17t-40 -17t-16 -41q0 -23 16.5 -39.5t39.5 -16.5t39.5 16.5t16.5 39.5z" />
    <glyph glyph-name="oslash" unicode="&#xf8;" horiz-adv-x="417" 
d="M398 315q0 114 -51 215l47 91l-46 26l-33 -64q-46 64 -107 64q-50 0 -117 -108q-76 -119 -76 -234q0 -106 52 -197l-56 -108l47 -30l45 85q45 -55 91 -55q68 0 139 125q65 115 65 190zM226 412l-61 -117q-5 23 -8 47t-3 50q0 17 2 39t6 49l12 19q16 -20 29 -42t23 -45z
M255 256q0 -39 -26 -99q-11 16 -21.5 33t-18.5 34l59 113q4 -20 5.5 -40t1.5 -41z" />
    <glyph glyph-name="ugrave" unicode="&#xf9;" horiz-adv-x="461" 
d="M253 713q-36 22 -49 58q-8 23 -12 77q-51 25 -86 35q-22 -13 -22 -47q0 -90 104 -146q16 -9 32 -9t24 8q3 4 9 24zM450 14q-27 46 -27 61l4 564h-144l-14 -471q-27 -21 -50 -21q-3 0 -8.5 4.5t-10 10.5t-8 12t-3.5 9v464q-35 -4 -82 -18q-8 -2 -27.5 -9l-51.5 -18
q0 -3 -1.5 -11t-1.5 -12v-12l12 -15l-4 -420q0 -32 27 -81q29 -53 58 -53q11 0 17 2l129 82q7 -13 7 -75q38 -2 63.5 -3t37.5 -1q20 0 78 11z" />
    <glyph glyph-name="uacute" unicode="&#xfa;" horiz-adv-x="461" 
d="M357 836q0 34 -22 47q-35 -10 -86 -35q-4 -54 -12 -77q-13 -36 -49 -58q6 -20 10 -24q6 -8 23 -8q15 0 32 9q104 56 104 146zM450 14q-27 46 -27 61l4 564h-144l-14 -471q-27 -21 -50 -21q-3 0 -8.5 4.5t-10 10.5t-8 12t-3.5 9v464q-35 -4 -82 -18q-8 -2 -27.5 -9
l-51.5 -18q0 -3 -1.5 -11t-1.5 -12v-12l12 -15l-4 -420q0 -32 27 -81q29 -53 58 -53q11 0 17 2l129 82q7 -13 7 -75q38 -2 63.5 -3t37.5 -1q20 0 78 11z" />
    <glyph glyph-name="ucircumflex" unicode="&#xfb;" horiz-adv-x="461" 
d="M369 763l-126 132q-21 0 -38 -16l-52.5 -49l-69.5 -68l54 -68q6 5 16.5 16.5l26.5 28.5q26 30 45 41l33 -46l7 -9t5 -7l24 -22l17 -15q37 43 58 82zM450 14q-27 46 -27 61l4 564h-144l-14 -471q-27 -21 -50 -21q-3 0 -8.5 4.5t-10 10.5t-8 12t-3.5 9v464q-35 -4 -82 -18
q-8 -2 -27.5 -9l-51.5 -18q0 -3 -1.5 -11t-1.5 -12v-12l12 -15l-4 -420q0 -32 27 -81q29 -53 58 -53q11 0 17 2l129 82q7 -13 7 -75q38 -2 63.5 -3t37.5 -1q20 0 78 11z" />
    <glyph glyph-name="udieresis" unicode="&#xfc;" horiz-adv-x="461" 
d="M424 784l-69 75q-25 0 -51 -23l-50 -44l-4 -32q56 -63 86 -79q45 30 57 42q31 28 31 61zM224 784l-69 75q-25 0 -51 -23l-50 -44l-4 -32q56 -63 86 -79q45 30 57 42q31 28 31 61zM450 14q-27 46 -27 61l4 564h-144l-14 -471q-27 -21 -50 -21q-3 0 -8.5 4.5t-10 10.5
t-8 12t-3.5 9v464q-35 -4 -82 -18q-8 -2 -27.5 -9l-51.5 -18q0 -3 -1.5 -11t-1.5 -12v-12l12 -15l-4 -420q0 -32 27 -81q29 -53 58 -53q11 0 17 2l129 82q7 -13 7 -75q38 -2 63.5 -3t37.5 -1q20 0 78 11z" />
    <glyph glyph-name="yacute" unicode="&#xfd;" horiz-adv-x="458" 
d="M357 836q0 34 -22 47q-17 -5 -38.5 -13.5t-47.5 -21.5q-4 -54 -12 -77q-13 -37 -49 -58q6 -20 10 -24q6 -8 23 -8q15 0 32 9q104 56 104 146zM442 505q0 85 -24 124l-65.5 -16.5l-48.5 -12.5q-46 -12 -59 -17q65 -119 65 -232q0 -83 -41 -182q-83 238 -83 458l-8 5
q-29 0 -89 -12q-58 -12 -88 -12l34 -60l16 -98.5l16 -104.5q30 -182 113 -356l-110 -151q33 -10 65 -10q-1 0 7.5 1.5t25.5 3.5q21 3 85 3q10 49 27 101.5t37 107.5l42 111l43 112q40 123 40 237z" />
    <glyph glyph-name="ydieresis" unicode="&#xff;" horiz-adv-x="410" 
d="M389 591q-16 32 -23 69q-2 8 -4.5 26l-6.5 47q-46 0 -125 -21q22 -126 121 -126q1 0 10 1.5t28 3.5zM179 597l-23 46q-9 19 -9 52q0 27 -17 27q-21 0 -130 -24q32 -66 43 -78q27 -30 81 -30q3 0 16.5 1.5t38.5 5.5zM409 -125q0 22 -21 70t-21 64l11 534q0 4 -1.5 10.5
t-3.5 12.5t-5.5 10t-6.5 4q-37 0 -138 -65l22 -31q2 -19 3.5 -37.5t1.5 -37.5v-177l-0.5 -21.5l-1.5 -64.5l-5 -170q34 -26 42 -33q21 -20 27 -45q-12 -15 -20 -15q-6 0 -28 11q-20 11 -25 11l-47 -131q63 -6 100 -6q117 0 117 107zM168 562l-14 20l-154 -55l26 -36
q3 -30 3 -73v-28q0 -16 -1 -39q-1 -22 -1 -39v-27v-200q0 -65 3 -86q16 -1 31.5 -1.5t32.5 -0.5q30 0 62 9z" />
    <glyph glyph-name=".null" unicode="&#xe000;" horiz-adv-x="0" 
 />
    <glyph glyph-name="nonmarkingreturn" unicode="&#xe001;" 
 />
    <glyph glyph-name="minus" unicode="&#xe002;" horiz-adv-x="403" 
d="M361 322h-322l-2 -117h322z" />
    <glyph glyph-name="longs" unicode="&#xe003;" horiz-adv-x="327" 
d="M307 754q-50 53 -132 53q-48 0 -82 -22q-40 -25 -40 -71q0 -22 18 -104q7 -2 8 -42q2 -23 3 -35.5t2 -15.5l-14 -501l7 -12q84 -3 87 -3q27 0 60 9l10 505q2 11 3 20t2 15q1 23 3 38q1 9 5 9q-76 28 -88 46q-1 14 -3 19q0 25 25 25q11 0 55 -32q24 0 40 34z" />
  </font>
</defs>
</svg>
